<svg id="Layer_1" data-name="Layer 1" xmlns="http://www.w3.org/2000/svg" xmlns:xlink="http://www.w3.org/1999/xlink" viewBox="0 0 720 432"><defs><style>.cls-1{fill:url(#Dark_Gradient);}.cls-2{fill:#77797b;}</style><linearGradient id="Dark_Gradient" x1="340.25" y1="150.2" x2="429.67" y2="349.09" gradientUnits="userSpaceOnUse"><stop offset="0" stop-color="#0088ce"/><stop offset="1" stop-color="#005b94"/></linearGradient></defs><title>Church_network_Logos</title><path class="cls-1" d="M433.52,250.05v2.87a15.42,15.42,0,0,1-1.4,6.44c-3.15.19-6.31.39-9.46.61-12.94.89-25.82,2-38.39,3.19l-4.18.4c-21.92,2.07-42.26,3.76-42.26,3.76C364.11,261.76,390,256.48,433.52,250.05Zm0-31.22V150.34a15.18,15.18,0,0,0-15.18-15.18H395.6l2.08,88.4C409.42,221.84,421.44,220.07,433.49,218.83ZM398,235.34l.13,5.63c10.19-2.17,28.77-6.54,33.35-7.36C431.44,233.61,416.52,233.92,398,235.34ZM350.6,135.16H306.43a14,14,0,0,0-14,14v95.76c16.4-4.64,36.6-9.23,56-13.16Zm-2.27,105.68c-18.82,2.7-39.69,6.38-55.86,9.14,0,9.52,5.68,16.7,16.08,16.7,11.47-4.57,27.65-10,39.57-13.64Zm11.29-25.9,5.9-1,.58-91.36.06-9,22.48-4.12.38-.07-.09-5.63-22.74,5,.21-32.3-4.42.83-.55,32.52L346.69,113l-.12,4.12,14.78-2.7-.16,9-1.56,91Z"/><polygon class="cls-2" points="129.49 311.57 124.64 311.57 124.64 367.49 127.11 367.49 129.49 367.49 140.85 367.49 140.85 364.88 129.49 364.88 129.49 311.57"/><path class="cls-2" d="M179.31,311.5h-4.84v49.11c-.28,4.13-2.21,5.08-4.12,5.24l-.7,0-.65,0c-1.24-.13-3.26-.9-3.5-5.4V311.51h-4.84V359.9h0c0,.05,0,.1,0,.14v.06h0c.07,5.41,2.8,8.14,8.35,8.34.21,0,.42,0,.64,0a8.06,8.06,0,0,0,.85,0c5.93-.24,8.83-3,8.83-8.51h0Z"/><path class="cls-2" d="M513.66,311.5h-4.85V361c-.21,3.21-1.45,4.69-4.13,4.89l-.69,0h-.53c-1.67-.13-3.39-1-3.61-5V311.51H495v48.77h0c0,6.92,4.38,8.08,8.42,8.17l.57,0q.47,0,.9,0c6.06-.23,8.78-2.76,8.78-8.15h0Z"/><polygon class="cls-2" points="467.62 333.51 458.49 333.51 458.49 311.57 453.64 311.57 453.64 367.49 458.49 367.49 458.49 336.12 467.62 336.12 467.62 367.49 472.46 367.49 472.46 311.57 467.62 311.57 467.62 333.51"/><polygon class="cls-2" points="631.01 311.57 631.01 333.51 621.88 333.51 621.88 311.57 617.03 311.57 617.03 367.49 621.88 367.49 621.88 336.12 631.01 336.12 631.01 367.49 635.86 367.49 635.86 311.57 631.01 311.57"/><polygon class="cls-2" points="200.75 311.57 200.5 311.57 200.5 333.51 198.52 333.51 197.03 336.12 200.5 336.12 200.5 367.49 200.75 367.49 205.35 367.49 215.99 367.49 215.99 364.88 205.35 364.88 205.35 336.12 213.75 336.12 215.24 333.51 205.35 333.51 205.35 314.18 215.99 314.18 215.99 311.57 205.35 311.57 200.75 311.57"/><path class="cls-2" d="M553.82,324.15c0-12.63-8-12.63-12.32-12.63h-5v22.37h-1.95l-1.49,2.61h3.44v31h4.85v-31c3.78,0,7.15.84,7.58,8.37,0,2.52-.1,9.95-.1,13,0,6.58,0,7.59.25,9.58h4.59c-.28-2.31-.37-3.11-.37-10.26,0-2.39.09-9.18.11-10.66h0v-.3h0c-.06-5.48-1.79-9.09-5.24-10.92C551.18,334,553.82,331,553.82,324.15Zm-12.43,9.7V314.1c4.28,0,7.62.19,7.62,10C549,333.08,546.13,333.83,541.39,333.85Z"/><polygon class="cls-2" points="313.27 333.62 322.03 311.51 318.45 311.51 309.39 333.96 309.51 333.99 309.26 334.04 309.26 311.5 304.42 311.5 304.42 367.49 309.26 367.49 309.26 336.01 319.86 367.5 324.8 367.5 313.27 333.62"/><polygon class="cls-2" points="351.64 336.84 344.89 311.51 340.06 311.51 348.84 342.61 348.84 367.49 353.69 367.49 353.69 340.66 363.58 311.51 360.15 311.51 351.64 336.84"/><path class="cls-2" d="M95.28,331.82c3.85-1.22,7.27-4.7,7.27-14.69,0-5.72-1.17-9.66-3.58-12.07-2.76-2.75-6.52-2.81-9.34-2.81H84.15v65.24h7c2.71,0,5.83-.26,8.33-2.73,2.79-2.75,4.15-7.74,4.15-15.23s-1.41-12.51-4.3-15.37A9.17,9.17,0,0,0,95.28,331.82Zm-6.29-27h.55c2.15,0,4,.09,5.32,1.42,1.69,1.68,2.5,5.23,2.5,10.87,0,12.59-3.5,12.75-8.37,12.75Zm6.52,58.7c-1.19,1.18-2.73,1.37-4.51,1.39H89V333.86l.87,0a13.21,13.21,0,0,1,3.79.26,5.27,5.27,0,0,1,1.6,1c2.14,2.14,3.23,7,3.23,14.43S97.51,361.57,95.51,363.54Z"/><path class="cls-2" d="M590,356.06v3.54c-.28,4.72-2.35,6.06-4.29,6.25l-.53,0-.46,0c-3-.4-3.57-4.57-3.68-6.58V319.53c.29-4.72,2.36-6.06,4.29-6.25l.53,0,.47,0c3,.4,3.56,4.57,3.67,6.58v5.65l4.85-.84v-4.33h0s0-.09,0-.13v-.06h0c-.07-5.69-3.15-9.17-8.31-9.45a5,5,0,0,0-.68,0,7.27,7.27,0,0,0-.82,0c-5.64.31-8.86,3.77-8.86,9.63h0v38.45h0v.2h0c.07,5.69,3.15,9.17,8.31,9.45.22,0,.45,0,.67,0s.55,0,.81,0c5.65-.3,8.88-3.77,8.88-9.63h0v-6l-4.85.84Z"/><path class="cls-2" d="M425.05,356.43v3.21c-.22,2.93-1.67,6-5.15,6.22h-.66c-2.85-.16-4.44-3.16-4.65-6.34V309.8c.23-2.93,1.67-6,5.14-6.22h.68c2.85.17,4.43,3.17,4.64,6.35v6.82l4.85-1v-5.48h0v-.19h0c-.08-5.43-3.56-8.86-9.15-9.08a5.49,5.49,0,0,0-.58,0c-.26,0-.53,0-.79,0-6.05.28-9.64,3.69-9.64,9.26h0v48.9h0s0,.07,0,.11v.08h0c.08,5.44,3.56,8.87,9.17,9.09.19,0,.37,0,.56,0a6.85,6.85,0,0,0,.79,0c6.05-.27,9.64-3.68,9.64-9.26h0v-8.41l-4.85.87Z"/><path class="cls-2" d="M283.39,311h0s0-.09,0-.14v-.05h0c-.06-6.06-3.21-9.52-8.9-9.82a7.55,7.55,0,0,0-.83,0,7.37,7.37,0,0,0-.82,0c-5.78.32-9.18,3.9-9.29,10.25v.17c0,.82,0,1.57,0,2.27-.07,7.7.16,9.48,7.84,19.85s7.56,13.38,7.43,21.62c0,1.18,0,2.45,0,3.84v.21c0,4.47-2,6.39-4.79,6.65h-1.18c-3-.27-4.34-2.31-4.5-6.82h0v-8.37l-4.85.87v6.89h0c0,.16,0,.3,0,.46v.15h0c.19,5.95,3.26,9.11,9.13,9.39a8.72,8.72,0,0,0,.9.05c.24,0,.46,0,.69,0,5.8-.25,9.24-3.24,9.45-9l0-.41c0-1.36,0-2.6,0-3.76.14-8.65.21-13-8.4-24.63-6.94-9.37-6.93-10.23-6.87-16.88,0-.71,0-1.47,0-2.31v-.27c.18-6.18,2.73-7.36,4.62-7.57l.57,0h.59c2.66.29,4.1,2.56,4.3,6.77v6.09l4.84-.87Z"/></svg>