<svg id="Layer_1" data-name="Layer 1" xmlns="http://www.w3.org/2000/svg" viewBox="0 0 720 432"><defs><style>.cls-1{fill:#60685b;}.cls-2{fill:#486a48;}</style></defs><title>Church_network_Logos</title><path class="cls-1" d="M271.06,343a11.9,11.9,0,0,0-8.42-3.7c-8.27,0-15,6.38-15,14.09s6.7,14.17,15,14.17a12.71,12.71,0,0,0,8.5-3.78,15.73,15.73,0,0,1,.94,2.76h1.5V355.63H272c-1.27,5.83-4.57,9.37-9.37,9.37-7.09,0-9-6.6-9-11.65s1.89-11.65,9-11.65c4.8,0,8.1,3.54,9.37,9.37h1.57V340.29h-1.5A14.66,14.66,0,0,1,271.06,343Z"/><path class="cls-1" d="M302.54,341.78c4.33,0,5.12,1,5.12,6.53v3.08H293.8v-3.08c0-5.58.72-6.53,5.13-6.53v-1.49H283.25v1.49c4.41,0,5.12,1,5.12,6.53V358.4c0,5.58-.71,6.6-5.12,6.6v1.5h15.68V365c-4.41,0-5.13-1-5.13-6.6v-4.58h13.86v4.58c0,5.58-.79,6.6-5.12,6.6v1.5h15.59V365c-4.41,0-5.12-1-5.12-6.6V348.31c0-5.58.71-6.53,5.12-6.53v-1.49H302.54Z"/><path class="cls-1" d="M346.07,341.78c4.41,0,5,1,5,6.53v8.11c0,5.2-3.31,7.72-7.63,7.72s-7.48-2.52-7.48-7.72v-8.11c0-5.58.78-6.53,5.11-6.53v-1.49h-15.5v1.49c4.41,0,5.11,1,5.11,6.53V356c0,7.49,5.43,11.43,12,11.43S354.1,363.51,354.1,356v-7.71c0-5.58.71-6.53,5.12-6.53v-1.49H346.07Z"/><path class="cls-1" d="M387.16,359.26l-3.62-3.95c4.88-.85,7.47-3.92,7.47-7.4,0-4.33-3.69-7.62-10.62-7.62H366.54v1.49c4.4,0,5.11,1,5.11,6.53V358.4c0,5.58-.71,6.6-5.11,6.6v1.5H382.2V365c-4.41,0-5.12-1-5.12-6.6v-2.84h1.34l8.74,10.94H396V365C392.59,364.54,390.31,362.72,387.16,359.26Zm-10.08-6.14V342.65h3.23c3.54,0,5.12,2.43,5.12,5.26s-1.58,5.21-5.12,5.21Z"/><path class="cls-1" d="M425.26,343a11.93,11.93,0,0,0-8.42-3.7c-8.27,0-15,6.38-15,14.09s6.7,14.17,15,14.17a12.7,12.7,0,0,0,8.49-3.78,14.84,14.84,0,0,1,.95,2.76h1.49V355.63H426.2c-1.26,5.83-4.57,9.37-9.36,9.37-7.1,0-9-6.6-9-11.65s1.88-11.65,9-11.65c4.79,0,8.1,3.54,9.36,9.37h1.57V340.29h-1.49A14.66,14.66,0,0,1,425.26,343Z"/><path class="cls-1" d="M456.74,341.78c4.33,0,5.11,1,5.11,6.53v3.08H448v-3.08c0-5.58.71-6.53,5.11-6.53v-1.49H437.45v1.49c4.41,0,5.12,1,5.12,6.53V358.4c0,5.58-.71,6.6-5.12,6.6v1.5h15.66V365c-4.4,0-5.11-1-5.11-6.6v-4.58h13.85v4.58c0,5.58-.78,6.6-5.11,6.6v1.5h15.59V365c-4.41,0-5.12-1-5.12-6.6V348.31c0-5.58.71-6.53,5.12-6.53v-1.49H456.74Z"/><path class="cls-1" d="M156.9,298.19a15.76,15.76,0,0,0,7.2-12.89c0-9.75-7.54-16.05-19.22-16.05H118.24v2.88h.33c7.86,0,9,1.44,9,11.81v34c0,10.46-1.09,11.91-9,11.91h-.33v2.88h29.38c12.78,0,21.37-7.2,21.37-17.93C169,307.4,164.27,300.93,156.9,298.19ZM136,273.8h8.37c7.69,0,10.42,5.94,10.42,11.5s-2.73,11.39-10.42,11.39H136Zm11.5,54.42H145c-7.87,0-9-1.43-9-11.82V301.24h11.5c9,0,12.18,7,12.18,13.6S156.5,328.22,147.52,328.22Z"/><path class="cls-1" d="M210.59,311.31l-5.09-6.14c6.86-1.35,10.5-6.13,10.5-11.54,0-6.75-5.19-11.9-14.92-11.9H181.62v2.34c6.19,0,7.19,1.47,7.19,10.18V310c0,8.7-1,10.3-7.19,10.3v2.33h22v-2.33c-6.18,0-7.18-1.6-7.18-10.3v-4.43h1.87l12.28,17.06H223v-2.33C218.21,319.54,215,316.71,210.59,311.31ZM201,301.74h-4.53V285.41H201c5,0,7.18,3.81,7.18,8.22S205.94,301.74,201,301.74Z"/><path class="cls-1" d="M270.6,302.1a22.11,22.11,0,1,0-22.1,22.1A22.12,22.12,0,0,0,270.6,302.1Zm-22.1,18.17c-10.17,0-13.71-10.06-13.71-18.17s3.54-18.16,13.71-18.16,13.81,10.19,13.81,18.16S258.77,320.27,248.5,320.27Z"/><path class="cls-1" d="M301.88,280.14a22,22,0,1,0,22.11,22A22.13,22.13,0,0,0,301.88,280.14Zm0,40.13c-10.17,0-13.7-10.06-13.7-18.17s3.53-18.16,13.7-18.16,13.81,10.19,13.81,18.16S312.16,320.27,301.88,320.27Z"/><path class="cls-1" d="M357.4,320.27v2.33h22.21v-2.33c-3.53,0-6.3-2.45-13.26-8.59L352.1,298.92l7.29-6.38c7.41-6.39,10.06-8.47,15-8.47v-2.34h-18v2.34c5,0,5,1.58-1,6.62l-10.16,9v-5.4c0-8.71,1-10.18,7.18-10.18v-2.34h-22v2.34c6.19,0,7.18,1.47,7.18,10.18V310c0,8.7-1,10.3-7.18,10.3v2.33h22v-2.33c-6.19,0-7.18-1.6-7.18-10.3v-5.05l1.76-1.59,10.83,10.32C363,318.56,362.15,320.39,357.4,320.27Z"/><path class="cls-1" d="M386.78,281.73v2.34c6.19,0,7.2,1.47,7.2,10.18V310c0,8.7-1,10.3-7.2,10.3v2.33h22v-2.33c-6.18,0-7.19-1.6-7.19-10.3v-7c8.63,0,9.3.86,9.3,7.25H413V291.92h-2.09c0,6.38-.67,7.24-9.3,7.24V285.41h7.31c8,0,9.17,1.47,10.05,5.53l.57,2.33h1.86l-.88-11.54Z"/><path class="cls-1" d="M452.77,284.07v-2.34h-22v2.34c6.19,0,7.17,1.47,7.17,10.18V310c0,8.7-1,10.3-7.17,10.3v2.33h22v-2.33c-6.19,0-7.18-1.6-7.18-10.3V294.25C445.59,285.54,446.58,284.07,452.77,284.07Z"/><path class="cls-1" d="M495,313.27c-1,4.06-2.21,5.53-10.06,5.53h-1.55c-5.75,0-6.74-1.47-6.74-10.2V303c8.63,0,9.29.86,9.29,7.25H488V291.92h-2.09c0,6.38-.66,7.24-9.29,7.24V285.41h6.07c7.85,0,9.07,1.47,10.07,5.53l.55,2.33h1.76l-.76-11.54h-32.5v2.34c6.19,0,7.18,1.47,7.18,10.18V310c0,8.7-1,10.3-7.18,10.3v2.33h34.7l.67-11.53h-1.66Z"/><path class="cls-1" d="M544.62,313.27c-.89,4.06-2.11,5.53-10.06,5.53h-3.88c-5.74,0-6.73-1.47-6.73-10.2V294.25c0-8.71,1-10.18,7.18-10.18v-2.34h-22v2.34c6.2,0,7.18,1.47,7.18,10.18V310c0,8.7-1,10.3-7.18,10.3v2.33h37l.78-11.53h-1.77Z"/><path class="cls-1" d="M573.23,273.54H550v2.58h.33c6.76,0,7.69,1.23,7.69,10.15v29.4c0,9-.93,10.24-7.69,10.24H550v2.57h23.23c17.87,0,28.53-10.27,28.53-27.47S591.1,273.54,573.23,273.54Zm.07,50.91H573c-6.68,0-7.52-1.14-7.52-10.15V277.57h7.85c17.12,0,19.69,14.68,19.69,23.44S590.42,324.45,573.3,324.45Z"/><path class="cls-2" d="M351,244.85c-4.46,1-3.59.66-7.07,1.53s-5.32-.11-6.41,0a28.79,28.79,0,0,0-5.12,2.31h9.34c2.5-.72,5.63-1.63,7.08-2a22.6,22.6,0,0,0,5.44-1.85c.87-.54,2.61-.1,3.69-.21s5.55-2.07,4-1.52S355.49,243.88,351,244.85Z"/><path class="cls-2" d="M395.15,243.56c2-1.39,3.11-1.67,3.6-2.22s.08-.64.23-1.11.62-1.84.62-1.87c-.19-.79-1.31,2.82-3.94,3.94s-3.32,1.38-3.91,1.85S394,245,391,246s-3.29,1.47-4.75,1.84a16.73,16.73,0,0,0-2.08.86h5.86a11.71,11.71,0,0,0,2.13-1.23c1.23-1,1.84-1.2,2.35-2.13S393.14,245,395.15,243.56Z"/><path class="cls-2" d="M374.55,237.71c.2.19,1.44.26,1.57.62l2.49-1.78c1.64-.69,2.18-1.38,1.13-2.05-5.31-3.38-4.72-1.65-6.58-2.91s-2.28-.86-4.06-1.5a12.44,12.44,0,0,1-1.27-.35c.08,0-5.42-2-6.64-2.55a3.64,3.64,0,0,1-.46-.3l-4,.1c-.3-.41-.58-.79-.74-1.05a17.82,17.82,0,0,1-1.23-5c.12-.45-.41-1.85-.52-4a4.37,4.37,0,0,1,.87-3.4,5.23,5.23,0,0,0,.47-3.33c-.23-1-1.11-1.09-1.05-1.73a17.6,17.6,0,0,0-.41-3.78,19.93,19.93,0,0,1-.23-4,25.39,25.39,0,0,1,.45-3.67l2.32.12a3,3,0,0,1-.48-.17l1.38.26a1.22,1.22,0,0,0,1.13,1.31,7.82,7.82,0,0,0,2.18-1.89l.86.24a4.2,4.2,0,0,0,.64,1.48s0,.06-.07.1l2.62-.73.9.09a7.45,7.45,0,0,0,.94,0s0,.07,0,.12c1.79.27,2.76,1.78,4.11.27-.07.06.13-.26.18-.2a1,1,0,0,1-.13-.65c1.48-1.54,3.38-.08,4-2.2l.33-.05c1.5-.18,3.33-.64,4-.11,2.51-.77,3-.62,3.38-1a1.86,1.86,0,0,0,.27-.45,6.58,6.58,0,0,1,3.16-3h.42a7.91,7.91,0,0,0,3-1.05l.3-.17c1.43-1.3,3.45-1,4.2-2.78a6.68,6.68,0,0,1,1.14-.79c1.51-.89,3.51-.67,2.86-2.58,0-.18-.91-1.22-.95-1.41-.28-1.31-.71-2.64-1-3.59l-.78-.23c.31-2.78-2-14.46-4.88-14.91l-.31,0c-3.56.49-2.21-1.8-2.32-3.21a3.14,3.14,0,0,1,.24-.42,6.6,6.6,0,0,0,1.25-2.42,2.06,2.06,0,0,0-.32-.65,2.63,2.63,0,0,0-.26-.35c-.8-2.86-3.5-4-5.37-4.9-.12,0-.1,0-.2.08l-.61-.4a4.68,4.68,0,0,1-.37-.29c.35-2.76-2.34-2.24-2.83-3.42a2.46,2.46,0,0,1,0-.54,2.48,2.48,0,0,1,.33-1.09c-.19.11-.05-.15-.2-.08.32-.78-.67-2.28-.81-3.09a2.19,2.19,0,0,0-.94-.27,4.7,4.7,0,0,0-.54,0c-1.36-.4-2.71-2.17-5,.14a.79.79,0,0,0-.43.26c-.55-.12-.7-.57-.8-1.06,0-.17-.07-.34-.1-.5-1.05-1.46-1.72-.65-3.07.28a6.13,6.13,0,0,1,1.75-4.5,1.89,1.89,0,0,0,.08-.53c-2-1.84-6.67-.88-9.42-2.06h-3.33a1,1,0,0,1-.83,0H328.87c-2.78,1.61-2.13.36-4.08,2.61,0,.19-.91,1.56-.86,1.73,1.08,1-2.36,2.3-2.36,4.41-1.35-.7-2-1.41-3.07.32,0,.18-.07.36-.1.54a1.48,1.48,0,0,1-.8,1.27.68.68,0,0,0-.43-.18c-2.35-2-3.2-1.15-4.56-.46a5.23,5.23,0,0,0-.54.12,13.49,13.49,0,0,0-1.85,1.27c-.14.87-1.12.75-.81,1.49-.14,0,0,.21-.2.13a2,2,0,0,1,.33,1.07,2.19,2.19,0,0,1,0,.57c-.48,1.33-2.77,0-2.41,2.78a3.3,3.3,0,0,1-.38.37l-.6.54a12.68,12.68,0,0,0-1.93.1c-.93.63-.33,1.24-1.34,2.22v40.65l.24-.05a5.1,5.1,0,0,1,3.16,2.54,1.38,1.38,0,0,0,.27.42,5.14,5.14,0,0,0,3.68,2.1c.66-.68,2.19-1,3.69-1.09l.32,0c.62,2.1,2.65.68,4.13,2,.06.23-.19.12-.25.21.05-.07.25.22.18.18,1.35,1.3,2.32-.47,4.11-1.11,0-.05,0-.12,0-.13a27.34,27.34,0,0,0,7.12-1.61c.06-.12-.06-.26.08-.34a4.2,4.2,0,0,0,1.94-.76l0,.06a24.29,24.29,0,0,0,1.06,2.85l.13.22a12.42,12.42,0,0,1,2.07,3.7c.64,2.11.78,1.59,2,3.52a10.67,10.67,0,0,1,1.34,4.61,10.41,10.41,0,0,0-.11,3,31.32,31.32,0,0,1-.47,4.87,12.54,12.54,0,0,0-.12,2.31c0,.39,0,1-.17,1.09s-1.41,2-1.76,2.37c-.17.16-.4.42-.72.71a9,9,0,0,1-.77.65h-.29a11.87,11.87,0,0,0-5.23.11h-.38c-1.47,0-15.35,3-17,3.29-.62.12-4.18,1.39-8.33,2.89v14.64h11.55c5.33-1.61,11-3.29,14.92-4.32a14.91,14.91,0,0,0,4.77.27c4.26-.16,10.64-1.6,14.78-2.61,2.59-.63,7.39.39,10-.22,1.32-.31,5.63-2.54,6.39-1.45.89,1.28,3.33-.41,5.69-1.79C372.69,238.23,373.21,238.06,374.55,237.71ZM360.69,176.4a1,1,0,0,0,0,.1h0c-2.73,1.62-3.71-4.25-5.68-1.19.83-2.51,3.45-1.65,5.35-2.25a1.11,1.11,0,0,1,.38-.55,1.17,1.17,0,0,1,.63-.23,4.74,4.74,0,0,1,2,1.45M365,155.16l0,.05a.42.42,0,0,0-.18,0Zm-10.67-4.76.56-.08c1.76-.62,2.44,1.5,4.24,1.29l.58-.08a5,5,0,0,0,1.07-.34l.55.51c-4.26,1.28-10.16,1.05-10.13.78a1,1,0,0,1-.21-.6A9,9,0,0,1,354.31,150.4Zm-39.23,39.38c-1.61.37-3.62-1-4.69.54l-.49.26a5.79,5.79,0,0,1-2.63.95,2.86,2.86,0,0,1-.48.06,2,2,0,0,1-.43,0c-.14-.32-.37-.57-.16-.93a.72.72,0,0,0,.41-.39,7.21,7.21,0,0,0,1.25-1.45l.58.09a1.4,1.4,0,0,0,1.62-.47,3.44,3.44,0,0,1,.27-.27c1.13-.11,3.14-.81,4.68.62a1,1,0,0,1,.18.28.56.56,0,0,1,0,.34A1.07,1.07,0,0,1,315.08,189.78Zm.89-20.86a7.27,7.27,0,0,0-3.77-.34h-.46a9.19,9.19,0,0,1-1.45-.13c-.35-.37.11-1.28.82-2.19l.22-.27c.8-1.1,2.14-2.51,2.82-1.81.67,1.41,0,3.53,1.92,4.54C316.18,168.42,316.18,169.12,316,168.92ZM330.6,174c-1.79.38-1.14,1.14-.65,1.89s-.49.76-2,1.33-4.4-.76-5.87-1.13-5.54,1.89-5.54,1.89,2.28-3.41,3.43-3.79,3.25,1.32,5.05,1-.82-1.9,1.3-2.28a22,22,0,0,1,7.18.19c1.3.38.65-1,1.63-1.71s3.58.19,3.58.19-2.77.38-3.42.57-.33,1.14-.65,1.9S332.39,173.66,330.6,174Zm8.29,26.84c-.11,1.35-.23,4-.23,4a15.12,15.12,0,0,1-2.3-3.27c-.29-1-.87-1.09-1-2.24a13.31,13.31,0,0,0-.84-2.91l2.68-1.06c-.06-.1-.12-.22-.18-.31.11.11.21,0,.36,0a1.5,1.5,0,0,0,.18.28l1.1.21c.14.64.37,1.71.52,2.63C339.42,199.6,339,199.54,338.89,200.88Zm1.66-56.74c-2.39.44-4.13.87-5.87.44s-2.83.87-5.87.65-2.83,2-3.91,2.39-1.15-2.72-.49-2.93,2.44-3.59,4.62-3.59,2.39,0,3.47-.44,0,2.17,0,2.17l9.57.44s-2.83-.87-2.17-1.74,8.26.66,8.26.66c-8.26-.66-3.7,1.95-3.7,1.95A9.48,9.48,0,0,0,340.55,144.14Zm6,67.23c-.46,1.28.51,1.63-.58,9.89a24.61,24.61,0,0,1-.3-4.82c.19-1.81-.2-2.22,0-3.64s.19-4.15.53-4.92.64-.75.68.68A5.28,5.28,0,0,1,346.58,211.37Zm2.89,12.53c-.07,1.19.11,3.47-.2,4.14s-.63.67-.78-.52-.9-1.17-.5-2.27.83-1.33.51-8.39a16.07,16.07,0,0,1,.66,4C349.1,222.39,349.55,222.7,349.47,223.9Zm2.8-16.94c-.17,1.85-.89,3.07-.86,4.15s-.29,4.8-.24,6.43.05,5.32.05,5.32a55.38,55.38,0,0,1-1.17-10.18c.08-4.25,1.41-3.63,1-5.15s-.43-7.05.62-8.28c.51-.6,0,2.72-.21,4S352.43,205.1,352.27,207ZM350,166c0-.54,0-.85.24-1.1,2.26-.22,4.17-1.33,6.12-2.31l.49-.24c1.77-.29,3.79-1,4.81.31a1.94,1.94,0,0,0,.42.17,2.31,2.31,0,0,0,.47.08l.25-.21.24-.2c1.64-.44,3-1.14,4.28-1l.4.26c.52.37.37.78,1.07.54l.44.14.44.14a5.76,5.76,0,0,1,.59.18,1.4,1.4,0,0,0,2.07-.63l5.65,5.32-10.26-1.74s2.54,1.49,3,3.06a4.73,4.73,0,0,0-.85.78,1.5,1.5,0,0,1-.33-.45c-.63,0-1.39.09-2.15.15l-.45,0c-1.55-2.26-.88-3.67-3.8-3l-.54,0c-.72,0-1.5.07-2.45,0-1.71-3.39-2.87-2.42-6.11-1.27,0,.07.12.14,0,.17C352.83,164.89,351.47,166.28,350,166Z"/><path class="cls-2" d="M417.44,154.23l-.5-.37c0-1.67-.83-2.16-3.44-3.84a3.9,3.9,0,0,0-.13-.57c0-.08-.23,0-.25-.08a.44.44,0,0,0,.17-.26c-.19.21-.57.2-.73.43l-.35-.18c-.82-2.6,2.56-4.22-.29-4a2.46,2.46,0,0,1-.34-.22l-.26-.18c-.38-.08-2.25,1.33-2.6,1.22-.17,0-.35-1.61-.52-1.66-1,.74-.37-1.31-1.43-1.39-.16,0-.3-3-.44-3-.57,1.26-.57,1.26-1.92,1.26.68-.7.68-2.31,1.35-3a4.4,4.4,0,0,0-2.13-.62h-.45a6.51,6.51,0,0,0-6.34.5s0-.7-.22-.42a1.45,1.45,0,0,1-.19-.47c-.12-.64-1.44-2.78-2.57-3,0,0,.06,0,.08.09-.83.07-1.36.83-2.22,1a5.28,5.28,0,0,1-1.37-1.65H378.16a3.11,3.11,0,0,0-.67,1.29,1.64,1.64,0,0,0-.31.26,2.25,2.25,0,0,0-.24.3c-1.1.21-1.78,2.13-2.34,3.07-.09.15-.17.31-.26.47l0,0,.22.08c.62-.46.76-.13,1.39-.25,1.29-.24,1.76.68,2.53,1.09.23.11.44.23.63.3a3.44,3.44,0,0,1,.46,0,3.29,3.29,0,0,1,1.37.4,1,1,0,0,1,.5.73c0,.16.75.74.87,1,.27.64,0,1.1,0,1.77l0,.05c2.29.57,3.08,3.29,2.21,3.37a3.05,3.05,0,0,1,.49,1.66l.11.07.17,0a1.07,1.07,0,0,1,.27.08c2,.89,4.29.19,5.28,3.33.07.09.7,2.18.76,2.26.19.29.3,2.58.54,3.41-.4-.14-.59.9-.83.89a4,4,0,0,1-.52,0,2.33,2.33,0,0,0-.17.26c0,.3-.07.6-.1.87a3.24,3.24,0,0,0-.06.88s.14.16,1.23,0a1.5,1.5,0,0,1,.37,0l.3,0c1.2.2,2.29,1.56,3.22,3.41l.36,2.29.94,4.38,1.68,3.42a18.45,18.45,0,0,1,.23,2.21l.06.13.07.22c.29.93,1.63,3.19,1.9,4.47l.86.81c.94,2.89-3.26,2-3.48,3.59,0,.37-1.87,1.22-2.06,1.36.32,1.41-2.64,2.84-3.59,3.2-.55.22-.07-1.29-.43-1-.1.08-.93.57-1.09.67,0,1.31-1,.57-1.25,1.87,0,0-4.2,2-4.35,2.34,0,0-1.13.94-1.72.63-.68.29-1.62.59-3,1-.41.12-1.33-.2-3.2,0-.76,1.2-2.14,1.21-2.92,1.41a7.41,7.41,0,0,0-.73.22,1.51,1.51,0,0,1-.38.56l-.1.14a3.42,3.42,0,0,1-1.88,1.14,3.54,3.54,0,0,1-2.26-.45c-.41-.18-.95-1-1.4-1-.1,0-.9-.37-1-.41-1.4,0-2.46,1.46-3.62,1.14-.58.86-1.7.35-2.2.89,2.93,1.47-.24,4.08,8.74,5.5,1.85,4.62,5.42,5.51,5.21,11.55.25,1.69-.33,6.24-.23,7.31-.34.1-1.82.58-1.1,1.27.46.64,1.69,1.83,4.43,2.1a6.39,6.39,0,0,0,1,.1c1.45.14,3.94.42,6.91.82a9.71,9.71,0,0,0,2.35.84,38.19,38.19,0,0,0,4.38.17l3,.52c1.82.64,4.29,1.94,5.75,1.21,1.25.3,2.43.61,3.48.94,1.84,1.16,3.72,2.45,5,2.65.2.49.64,2.7.25,3.4-1.1,1-2.4,2.2-2.17,2-.79.87-5.06,2.06-6.06,3.95-1.84,1.5-3.67,2.93-5.09,4.13H418V230.18h-1c-4.1-2.43-7.42-1.2-12.05-2.39-5-1.3-14.88-2.86-17-4.43s-1.48-7.21-1.74-11.25V208.4a14.26,14.26,0,0,1,.95-4.32l.66.58.36.3c1.73,1.31,3.08,4.13,5.8,1.11l.6-.15.52-.13a4.35,4.35,0,0,1,.57-.13c1.94.51,3.21-.38,4.64-1.23l.45-.25c3.31.68,3.31,1.39,5.13-2l.57,0c1.31-.07,2.42-.07,3-.07.67-.71-.68-1.42,0-2.12.56,1.18,1.59.88,2.17,1.19a.66.66,0,0,1,.28.27c1.6,2.07,3.61-6.07,4.93-5.13a3.15,3.15,0,0,0,.22.29,1.92,1.92,0,0,0,.86.52V156.84c-.31-.42,0-1.65,0-1.65A2,2,0,0,0,417.44,154.23Zm-39.79,65.13a14.81,14.81,0,0,1-.44,3.15c-.31.49-.58.48-.62-.44s-.18-1,.24-1.81-.48-1,.47-6.34a11.18,11.18,0,0,1,.29,3.1C377.44,218.18,377.8,218.44,377.65,219.36Zm.77-6.79a15.3,15.3,0,0,1,.22-3.17c.27-.51.55-.51.65.4a4.09,4.09,0,0,1-.36,2.34c-.36.84,1.08.05.48,2.38,0,0-.84,1.55-.77.38S378.34,213.49,378.42,212.57ZM400,198.65l-.16.08c-.46-.93-1.13.49-1.69.8l-.13.13a.91.91,0,0,0-.11.16,3.73,3.73,0,0,1-.48,0,3.58,3.58,0,0,1-1.37-.22.55.55,0,0,0-.29-.51.73.73,0,0,1,.41-.76s0-.12-.08-.13c.17,0,.1-.34.24-.42a.72.72,0,0,1-.08-.38,1.2,1.2,0,0,0,.45-1.1.62.62,0,0,1,.68-.13c0,.16,0,.36.12.38s-.09-.15-.08-.25c.26.16.28.13.49.25a25.3,25.3,0,0,1,2.73-.28c-.07.18-.12.36-.18.52C400.9,197.93,400.57,198.37,400,198.65Zm10.47-7.51a3.72,3.72,0,0,1-.57.08,1.71,1.71,0,0,1-1.32,0c-.93-.39-1.64-1.39-2.92-1.25a5,5,0,0,0-.58.09.35.35,0,0,0-.11,0,5.66,5.66,0,0,0-1,.3l-.38-.36-.16-.15a27.84,27.84,0,0,1,6.94-1,9.26,9.26,0,0,1,3.18.2,1,1,0,0,1,.2.6A8.75,8.75,0,0,1,410.47,191.14Zm4.6-27.17a2,2,0,0,0-.33.08.44.44,0,0,0-.16.06c-.37-.63-.37,1.48-1.29.5a.86.86,0,0,0-.17,0,1.54,1.54,0,0,1-1-.12,6.14,6.14,0,0,1-.17-.68c-.94-.47-2.75-2.51-2.72-4,0,0,0,0,0-.08-.31.29-1.28,2.19-1.56,1.84,0,0-1.33-1.33-1.29-1.68a1.15,1.15,0,0,0,0-.19c-.95-.9,1.08-.9.18-1.27,0,0,0-.09,0-.13,0-.26.08-.53.13-.79a.77.77,0,0,0,0-.15c.05-.68.73-1.38.46-1.74a.67.67,0,0,1,.07-.17c.17-.37.37-.51.58-.25a2.16,2.16,0,0,0,0,.55c.17-.1.57-.43,1-.21l.82,1.1.07.08c1.17,0,1.17,0,1,1.35l.08.09c1.3-.06.27.53.76,1l.08.07c-.09,1.65,1.93,1.31,2.51,2.14h.12c1.11,0,0,.63.72,1.17a.27.27,0,0,0,.08.07.77.77,0,0,0,.15.1A1,1,0,0,1,415.07,164Z"/><path class="cls-2" d="M430.68,120.62H289.33V262H430.68Zm-6.53,134.83H295.85V127.14h128.3Z"/><path class="cls-2" d="M388.35,232.43a44.7,44.7,0,0,1,5.79,2.41,11.11,11.11,0,0,0-3.76-2.82c-2.15-.89-2.33-.44-3.65-.53s-2.3-1.32-3.17-1.24l-4.09-.6s4.28,1.46,4.76,2S386.67,232,388.35,232.43Z"/><path class="cls-2" d="M384.58,238.28a2.25,2.25,0,0,0,1.42-.77s-1.21-1.54-1.26-1.57a7,7,0,0,1,.24,1.3c0,.44-1.87.44-2.42.87s-.65,1.53-2.5,2.5-8.76,2.94-9.3,3.7,2.43-.5,3.29-.39.47,1.37.91,1.26,4.43-3.4,6.11-3.11c.05,0,2-2.49,2.73-2.49S383.49,238.39,384.58,238.28Z"/></svg>