<svg id="Layer_1" data-name="Layer 1" xmlns="http://www.w3.org/2000/svg" viewBox="0 0 720 432"><defs><style>.cls-1{fill:#231f20;}.cls-2{fill:#5f7f3d;}</style></defs><title>Church_network_Logos</title><path class="cls-1" d="M187.31,311.2c-3.37,8-12.42,14.89-23.87,14.89a26.9,26.9,0,1,1,23.87-38.63h-6.25a20.83,20.83,0,0,0-17.69-10c-12.15,0-21.29,9.63-21.29,21.71,0,12.29,9.21,21.84,21.29,21.84a21.09,21.09,0,0,0,17.69-9.76Z"/><path class="cls-1" d="M195.23,307.76c.28,9.49,8.35,14,14.74,14a14,14,0,0,0,13-7.81h5.41a20,20,0,0,1-7.66,9.21A19.73,19.73,0,0,1,210,326.23c-13.14,0-19.94-10.47-19.94-19.88a19.85,19.85,0,1,1,39.61,1.41Zm29.27-4.14c-.34-6.6-6.75-13.06-14.53-12.85-8.14,0-14.18,6-14.68,12.85Z"/><path class="cls-1" d="M273.46,325.18h-5v-7.8c-2.67,5-7.73,8.85-15.6,8.85-12.08,0-19.52-9.41-19.52-20,0-11.24,8.15-19.88,19.46-19.88,8.28,0,13.76,4.78,15.45,8.71V273.21h5.19Zm-35-18.9c.08,7.59,5.34,15.11,15.18,15.11A15,15,0,0,0,264.4,317a14.78,14.78,0,0,0,4.21-10.89,14.47,14.47,0,0,0-4.35-10.61,15.16,15.16,0,0,0-25.78,10.76Z"/><path class="cls-1" d="M318.12,325.18h-5.2v-7.8c-2.95,5.69-8.7,8.85-15.45,8.85-12.29,0-19.59-9.55-19.59-20,0-11.09,8.07-19.94,19.59-19.94,8.08,0,13.62,4.71,15.45,9v-7.94h5.2ZM283,306.35c.08,6.82,4.78,15,15.18,15a14.16,14.16,0,0,0,13.63-9.2,14.54,14.54,0,0,0,1.26-6,13.53,13.53,0,0,0-1.19-6.05A14.58,14.58,0,0,0,298,291.12a14.81,14.81,0,0,0-15,15.16Z"/><path class="cls-1" d="M324.72,287.39h4.92v6.19c2.74-5.61,7.65-7.1,12.07-7.24v5.13h-.48c-7.32,0-11.39,4.57-11.39,13.13v20.58h-5.12Z"/><polygon class="cls-1" points="360.66 325.18 360.66 273.21 366.42 273.21 366.42 296.31 391.49 296.31 391.49 273.21 397.31 273.21 397.31 325.18 391.49 325.18 391.49 301.45 366.42 301.45 366.42 325.18 360.66 325.18"/><path class="cls-1" d="M406.37,307.76c.27,9.49,8.36,14,14.74,14a14,14,0,0,0,13-7.81h5.43a20.15,20.15,0,0,1-7.67,9.21,19.68,19.68,0,0,1-10.74,3.09c-13.14,0-19.95-10.47-19.95-19.88a19.85,19.85,0,1,1,39.61,1.41Zm29.28-4.14c-.36-6.6-6.74-13.06-14.54-12.85-8.15,0-14.18,6-14.68,12.85Z"/><path class="cls-1" d="M444.62,273.21h5.21v7.24h-5.21Zm0,14.18h5.21v37.79h-5.21Z"/><path class="cls-1" d="M494.21,320.82c0,7.16-2.33,11.74-5.62,14.9a21.21,21.21,0,0,1-14.34,5.82c-9.4,0-16.27-5.41-18.67-12.22h6a14.51,14.51,0,0,0,4.48,5A14.8,14.8,0,0,0,474.4,337,14.65,14.65,0,0,0,489,322v-4.83c-2.67,5.33-8,9.05-15.25,9.05-11.81,0-19.74-9-19.74-19.88,0-11.3,8.23-20,19.74-20,7.45,0,13.2,4.22,15.31,8.85v-7.8h5.13Zm-35-14.54c0,7.65,5.4,15.11,15.16,15.11A14.5,14.5,0,0,0,485,317a15.82,15.82,0,0,0,4.2-10.68,16.29,16.29,0,0,0-3.44-9.9c-2.3-3-6.09-5.26-11.52-5.26a14.69,14.69,0,0,0-15,15Z"/><path class="cls-1" d="M500.72,273.21h5.21v20.37c2.31-5,8.15-7.37,13.47-7.24,6,0,9.91,1.9,12.51,5.19s3.57,7.87,3.57,13.28v20.37h-5.11V305c0-4.07-.85-7.52-2.74-10s-5-3.86-9.48-3.86c-4.15,0-7.24,1.48-9.2,3.72a12.76,12.76,0,0,0-3,8.78v21.49h-5.21Z"/><polygon class="cls-1" points="544.89 291.53 537.44 291.53 537.44 287.39 544.89 287.39 544.89 273.21 550.02 273.21 550.02 287.39 558.3 287.39 558.3 291.53 550.02 291.53 550.02 325.18 544.89 325.18 544.89 291.53"/><path class="cls-1" d="M577.48,296.87c0-4-2.67-6.24-6.47-6.24-4.13,0-6.67,2.81-6.54,6.1.16,3.6,2.89,5.06,7.46,6.39,5.41,1.48,11.45,3,11.72,11.1.29,6.95-5.34,12-12.5,12-6.09,0-12.85-3.87-12.91-11.8h5.13c.19,5.19,4.06,7.51,7.86,7.51a7,7,0,0,0,7.3-7.09c-.14-4.28-2.95-6-9.49-7.93-5.4-1.63-9.61-3.8-9.75-9.76,0-6.82,5.42-10.82,11.8-10.82,5.26,0,11.15,2.89,11.51,10.53Z"/><path class="cls-2" d="M360,230.7a128.88,128.88,0,0,1,35.31,4.83H367.18a.21.21,0,0,0,.05.22l.47.47,1.17,1.18,4.06,4.06c.65.64.38,1.28-.27,1.92l-1.77,1.78c-.65.65-1.36,1-2,.35L364,240.64c-.65-.64-1.18-.43-1.18.48v7.8c0,.9-.25,1.17-1.16,1.17h-3.23c-.91,0-1.34-.33-1.34-1.23v-7.74c0-.91-.51-1.12-1.16-.48l-4.8,4.71c-.66.64-1.07.87-1.7.22l-2.25-2.3a1.15,1.15,0,0,1,0-1.87l3.91-4c.64-.64,1.16-1.18,1.16-1.18l.48-.47a.17.17,0,0,0,0-.22H324.68A129,129,0,0,1,360,230.7m-4.3-60.87V155.66a1.66,1.66,0,0,1,1.66-1.65h5.27a1.65,1.65,0,0,1,1.65,1.65v14.17a4.78,4.78,0,0,0,.12,1.55c.05-.08.64-.66,1.3-1.3l4-4a1,1,0,0,1,1.82.36l2.35,4.53a2.66,2.66,0,0,1-.52,2.68l-1.56,1.56-2.33,2.35-4,4a4.61,4.61,0,0,0-1.18,2.82v6.2c0,.9.53,1.13,1.18.47l1.2-1.19,2.33-2.34,6.91-6.91a1.05,1.05,0,0,1,1.83.34l2.35,4.55a2.67,2.67,0,0,1-.51,2.68l-14.11,14.11a4.61,4.61,0,0,0-1.18,2.84v6.19c0,.9.53,1.12,1.18.48l3.2-3.2,2.32-2.34,11.18-11.17a1,1,0,0,1,1.83.36l2.34,4.53a2.64,2.64,0,0,1-.52,2.7L365.46,223a4.58,4.58,0,0,0-1.18,2.83v.85c-1.41,0-2.85-.07-4.28-.07s-2.88,0-4.3.07v-.85a4.57,4.57,0,0,0-1.17-2.83l-20.37-20.35a2.6,2.6,0,0,1-.49-2.7l2.32-4.53a1.05,1.05,0,0,1,1.83-.36L349,206.25l2.34,2.34,3.19,3.2c.65.64,1.17.42,1.17-.48v-6.19a4.6,4.6,0,0,0-1.17-2.84l-14.11-14.11a2.59,2.59,0,0,1-.51-2.68l2.35-4.55a1.06,1.06,0,0,1,1.83-.35l6.91,6.92,2.34,2.34,1.19,1.19c.65.66,1.17.43,1.17-.47v-6.2a4.59,4.59,0,0,0-1.17-2.82l-4-4-2.34-2.35-1.55-1.56a2.66,2.66,0,0,1-.53-2.68l2.36-4.55a1,1,0,0,1,1.82-.34l4,4c.65.64,1.23,1.22,1.28,1.3h0a4.62,4.62,0,0,0,.12-1.55m-55,32.22A59.26,59.26,0,1,0,360,142.79a59.26,59.26,0,0,0-59.26,59.26"/><path class="cls-2" d="M297.81,368a14.27,14.27,0,0,1-13.66,9.31,14.95,14.95,0,1,1,0-29.89,14.65,14.65,0,0,1,13.74,9.45H293a10.19,10.19,0,0,0-8.91-5.41c-6.11,0-10.39,5-10.39,10.86,0,6,4.36,10.94,10.43,10.94A10.32,10.32,0,0,0,293,368Z"/><path class="cls-2" d="M305.79,376.78V348h4.59v12.14h12.41V348h4.6v28.8h-4.6V364.17H310.38v12.61Z"/><path class="cls-2" d="M341.4,348v18a8.53,8.53,0,0,0,1.05,5,5.12,5.12,0,0,0,4.43,2.3,4.91,4.91,0,0,0,4.36-2.22c1.09-1.64,1.09-3.23,1.09-5.1V348h4.56v18c0,3.81-.59,6.73-3.12,8.83a9.89,9.89,0,0,1-6.85,2.54,10.24,10.24,0,0,1-7-2.5c-2.84-2.53-3.19-5.37-3.15-8.87V348Z"/><path class="cls-2" d="M366.11,348h8.13c4.52,0,6.85.63,8.37,1.67a9.26,9.26,0,0,1,3.81,7.79,9.73,9.73,0,0,1-1.63,5.49,7.85,7.85,0,0,1-5.56,3.15l6.77,10.7h-4.87l-7.9-13h1c2,0,4.4-.08,5.76-1.24a6.13,6.13,0,0,0,2-4.71,5.92,5.92,0,0,0-2.45-4.87,9.26,9.26,0,0,0-4.91-.93H370.7v24.75h-4.59Z"/><path class="cls-2" d="M421.33,368a14.27,14.27,0,0,1-13.66,9.31,14.95,14.95,0,1,1,0-29.89,14.64,14.64,0,0,1,13.74,9.45h-4.86a10.22,10.22,0,0,0-8.92-5.41c-6.11,0-10.38,5-10.38,10.86,0,6,4.36,10.94,10.42,10.94a10.36,10.36,0,0,0,8.88-5.26Z"/><path class="cls-2" d="M429.31,376.78V348h4.59v12.14h12.42V348h4.59v28.8h-4.59V364.17H433.9v12.61Z"/></svg>