<svg id="Layer_1" data-name="Layer 1" xmlns="http://www.w3.org/2000/svg" viewBox="0 0 720 432"><defs><style>.cls-1{fill:#e1b77e;}.cls-2{fill:#6e7c7c;}</style></defs><title>Church_network_Logos</title><path class="cls-1" d="M325.34,245.27H412a1,1,0,0,0,.93-.62l13.43-32a1,1,0,0,0-1.6-1.17L405.4,228l-5.6-13.57a1.46,1.46,0,0,0-2.48-.6l-10.21,8.33-25-37.14a1.3,1.3,0,0,0-2.2,0l-25,37.14-10.21-8.33a1.46,1.46,0,0,0-2.48.6L316.56,228,297.17,211.5a1,1,0,0,0-1.6,1.17l13.43,32a1,1,0,0,0,.93.62Z"/><path class="cls-1" d="M444,179.71a7.38,7.38,0,0,0-7.37,7.37,7.26,7.26,0,0,0,.54,2.76L410.65,212a.87.87,0,0,1-1.4-.43l-5.64-14.18a.88.88,0,0,0-1.49-.36l-12.31,10.68a.87.87,0,0,1-1.36-.1l-23.86-34.65a7.35,7.35,0,1,0-7.21,0l-23.87,34.65a.87.87,0,0,1-1.36.1L319.84,197a.87.87,0,0,0-1.48.36l-5.65,14.18a.87.87,0,0,1-1.4.43l-26.49-22.12a7.26,7.26,0,0,0,.54-2.76,7.37,7.37,0,1,0-7.37,7.37l.5,0,20.88,50.3a.87.87,0,0,0,.81.54h2a.87.87,0,0,0,.81-1.2l-20.49-49.36a.87.87,0,0,1,1.36-1l29.44,24.59a.87.87,0,0,0,1.4-.44l5.4-13.28a.87.87,0,0,1,1.49-.36l11,9.2a.87.87,0,0,0,1.36-.09l26.5-38.49a.65.65,0,0,1,1.14,0l26.5,38.49a.87.87,0,0,0,1.36.09l11-9.2a.87.87,0,0,1,1.49.36l5.4,13.28a.87.87,0,0,0,1.4.44l29.44-24.59a.87.87,0,0,1,1.36,1L419,244.07a.87.87,0,0,0,.81,1.2h2a.87.87,0,0,0,.81-.54l20.88-50.3.5,0a7.37,7.37,0,0,0,0-14.74ZM278,190.87a3.79,3.79,0,1,1,3.78-3.79A3.79,3.79,0,0,1,278,190.87Zm83-20.57a3.78,3.78,0,1,1,3.75-3.78A3.79,3.79,0,0,1,361,170.3Zm83,20.57a3.79,3.79,0,1,1,3.79-3.79A3.79,3.79,0,0,1,444,190.87Z"/><path class="cls-1" d="M417.31,250.12H304.68a2,2,0,0,0-1.88,2.81l4.37,10.5a2,2,0,0,0,1.87,1.25h103.9a2.05,2.05,0,0,0,1.88-1.25l4.36-10.5A2,2,0,0,0,417.31,250.12ZM315.74,261.18H313.8a.89.89,0,0,1-.83-.56l-2.42-5.81a.9.9,0,0,1,.83-1.24h1.94a.9.9,0,0,1,.83.55l2.41,5.82A.89.89,0,0,1,315.74,261.18Zm8.64,0h-1.94a.89.89,0,0,1-.83-.56l-2.42-5.81a.9.9,0,0,1,.83-1.24H322a.9.9,0,0,1,.83.55l2.41,5.82A.89.89,0,0,1,324.38,261.18Zm8.63,0h-1.94a.88.88,0,0,1-.82-.56l-2.42-5.81a.9.9,0,0,1,.83-1.24h1.94a.9.9,0,0,1,.83.55l2.41,5.82A.9.9,0,0,1,333,261.18Zm8.64,0h-1.94a.88.88,0,0,1-.82-.56l-2.42-5.81a.9.9,0,0,1,.83-1.24h1.94a.91.91,0,0,1,.83.55l2.41,5.82A.9.9,0,0,1,341.65,261.18Zm8.64,0h-1.94a.9.9,0,0,1-.83-.56l-2.41-5.81a.9.9,0,0,1,.83-1.24h1.94a.91.91,0,0,1,.83.55l2.41,5.82A.9.9,0,0,1,350.29,261.18Zm10.7.9a4.63,4.63,0,0,1-.05-9.25H361a4.63,4.63,0,1,1,0,9.25Zm15.86-7.27-2.41,5.81a.9.9,0,0,1-.83.56h-1.94a.9.9,0,0,1-.83-1.24l2.41-5.82a.91.91,0,0,1,.83-.55H376A.9.9,0,0,1,376.85,254.81Zm8.64,0-2.41,5.81a.9.9,0,0,1-.83.56h-1.94a.9.9,0,0,1-.83-1.24l2.41-5.82a.91.91,0,0,1,.83-.55h1.94A.9.9,0,0,1,385.49,254.81Zm8.64,0-2.42,5.81a.88.88,0,0,1-.82.56H389a.9.9,0,0,1-.83-1.24l2.41-5.82a.91.91,0,0,1,.83-.55h1.94A.9.9,0,0,1,394.13,254.81Zm8.64,0-2.42,5.81a.89.89,0,0,1-.82.56h-1.95a.89.89,0,0,1-.82-1.24l2.41-5.82a.9.9,0,0,1,.83-.55h1.94A.9.9,0,0,1,402.77,254.81Zm8.64,0L409,260.62a.89.89,0,0,1-.83.56h-1.94a.89.89,0,0,1-.82-1.24l2.41-5.82a.9.9,0,0,1,.83-.55h1.94A.9.9,0,0,1,411.41,254.81Z"/><path class="cls-2" d="M231,291.39c-5.72.52-6.16.95-6.16,7.18v28.2c0,6.15.59,6.59,6.16,7.1v2.56H208.61v-2.56c5.86-.51,6.37-1,6.37-7.18V313.07H195v13.62c0,6.23.59,6.67,6,7.18v2.56H179.17v-2.56c5.34-.51,6-.95,6-7.18V298.57c0-6.23-.66-6.66-6.3-7.18v-2.56h22v2.56c-5.27.52-5.86.95-5.86,7.18v10.77h20V298.57c0-6.23-.59-6.66-6-7.18v-2.56h22Z"/><path class="cls-2" d="M286.94,336.43v-2.56c5.42-.51,6.08-1,6.08-7.18V298.64c0-6.22-.66-6.73-6.08-7.25v-2.56h22v2.56c-5.42.52-6.07,1-6.07,7.25v28.05c0,6.16.65,6.67,6.07,7.18v2.56Z"/><path class="cls-2" d="M332.5,307.58c-6.45-3.22-9.08-5.57-9.08-9.6s3-6.86,7.1-7.25c6.3-.59,8.89,3,9.87,6.68h2.26l.05-8.58a57.42,57.42,0,0,0-11-1.1c-10.4,0-16.77,6.3-16.77,14.36,0,7,5.2,11,12.75,14.79,5.49,2.93,8.65,5.64,8.71,10,.06,3.94-2.34,7.71-7.32,7.69-8.59,0-10.78-5.47-12.28-10l-2.32.06-.08,9.24a24.89,24.89,0,0,0,5.89,2.7,22.69,22.69,0,0,0,7.4,1c10.69,0,17.79-6.52,17.79-14.86C345.46,315.42,340.19,311.31,332.5,307.58Z"/><path class="cls-2" d="M373.88,326.69V292.51h3.37c4.25,0,6.15,0,7.4,1.3s2.16,3.34,3,6.6l2.86.73c-.3-3.93-.61-9.05-.74-12.41H348.24c-.19,3.57-.55,8.13-.8,12.7h.07l2.76-.71c.89-3.27,1.79-5.53,2.89-6.69s2.41-1.52,8.42-1.52h2.49v34.18c0,6.23-.73,6.67-6.89,7.18v2.56h23.88v-2.56C374.61,333.36,373.88,332.92,373.88,326.69Z"/><path class="cls-2" d="M520.55,288.82v2.56c5.34.29,6.88,1.54,7.25,4.69.14,2.12.58,5.56.58,12V321h-.29l-28-32.15H487.39v2.46a6.94,6.94,0,0,1,5.25,2.74c1.39,1.68,1.54,3.07,1.54,7.83l-.13,15.37a92.7,92.7,0,0,1-.6,12c-.29,3.14-2,4.31-6.06,4.61v2.56h17.92v-2.56c-5.42-.22-6.66-1.61-7-4.83a116.65,116.65,0,0,1-.42-11.81l-.16-16.54h.22l30.46,36.48h3.52V308.08a103.6,103.6,0,0,1,.66-12.16c.36-3.37,1.9-4.32,5.86-4.54v-2.56Z"/><path class="cls-2" d="M475.54,325.89c-4.76-12.6-9.3-25.34-14-38.16l-3.73.95-15,37.65c-2.41,6.15-3.29,7-8.13,7.54l-.07,2.56H451v-2.56c-5.35-.66-5.5-1.68-4.47-5.2.88-2.93,1.83-5.56,2.63-7.84h14.07c1.1,3,2.45,6.81,3.18,9,1.07,2.93,1.78,3.67-2.43,4v2.56h17.94v-2.56C477.8,333.66,478.73,333.34,475.54,325.89ZM450.42,317c1.9-5.2,3.73-10.47,5.79-15.82h.22L461.84,317Z"/><path class="cls-2" d="M596.66,290.78c-5.8-5.53-13.36-8.22-25.86-8.22H542.49v2.63c6.5.67,8.14,1.55,8.14,9.81v36.54c0,7.94-1.63,9-8.14,9.72V344h23.24c12.19,0,20.53-2.65,27.42-7.86C601,330,605,321.51,605,310.78A27,27,0,0,0,596.66,290.78Zm-21.27,48.93a21.81,21.81,0,0,1-4.78.53h-.17l-.78,0h-.27c-6.39-.3-7.87-3.46-7.87-9.81V293.26c0-2.83.19-4.55,1.17-5.53,1.11-1.17,3.52-1.63,6.87-1.63,6.5,0,11.26,1.39,15.86,6.22s7.19,11.64,7.19,20.37C592.61,327.46,585.93,337.38,575.39,339.71Z"/><path class="cls-2" d="M168,327.57c-1.22,4.54-3.15,7.78-5.81,9.93a15.53,15.53,0,0,1-11.2,4.13,19.66,19.66,0,0,1-13.16-5c-6.5-4.8-10.68-13.41-10.68-24.49,0-8.71,3.42-17.19,9.61-22.21a18.65,18.65,0,0,1,13.17-5.24,17.76,17.76,0,0,1,11.52,3.66c3.06,2.13,5.26,5.45,6.64,10.21h2.32v-15c-6.14-1.83-9.6-2.57-18.65-2.83a45.25,45.25,0,0,0-20,4.28c-10.55,5.67-16.7,16.1-16.7,29,0,10.44,4.55,21.28,14.92,27.32,5.22,2.77,11.8,4.44,19.87,4.44a76,76,0,0,0,11.24-1.21,70.38,70.38,0,0,0,9.33-2.6V327.57Z"/><path class="cls-2" d="M428.82,323.25a23.88,23.88,0,0,1-4.1,7.55c-1.76,2-4.4,2.49-7.47,2.49a16.14,16.14,0,0,1-5.5-.66c-1.53-.66-1.83-2-1.83-5.42V298.64c0-6.3.66-6.73,6.3-7.25v-2.56H393.81v2.56c5.57.52,6.3.95,6.3,7.25v28.05c0,5.88-.68,6.61-6.3,7.11v2.63h34.86c.59-2,2.13-9.3,2.71-12.37Z"/><path class="cls-2" d="M276.82,331.7c-1.6-1.41-3.27-3.41-5.91-7.44a119.17,119.17,0,0,1-5.57-10.76c4.9-2.05,9.67-5.7,9.67-12.15a11.15,11.15,0,0,0-5-9.74c-2.93-2.05-6.67-2.78-13-2.78H236.41v2.56c5.35.52,6,1.25,6,7.11v28.12c0,5.91-.79,6.71-6,7.22v2.59h21.86v-2.56c-5.5-.51-6.23-1.24-6.23-7.25V315.93h1.39c2.34.07,3.66.95,4.84,3.22,2.12,3.81,4.2,7.7,6,10.77,3.41,5.79,10,6.51,11.53,6.51h5.71v-2.58A9.56,9.56,0,0,1,276.82,331.7Zm-15.73-20.61c-1.61,1.47-4.1,2-7.18,2H252V295.2c0-1.54.15-2.27.66-2.71s1.46-.73,3.29-.73c4.11,0,8.65,2.86,8.65,10.62C264.61,306.11,263.58,309,261.09,311.09Z"/><path class="cls-2" d="M329.35,355.77c-2.56.23-2.76.43-2.76,3.23v12.68c0,2.76.26,3,2.76,3.19V376h-10v-1.15c2.63-.23,2.86-.46,2.86-3.23v-6.12h-9v6.12c0,2.8.27,3,2.7,3.23V376h-9.81v-1.15c2.4-.23,2.7-.43,2.7-3.23V359c0-2.8-.3-3-2.83-3.23v-1.15h9.88v1.15c-2.37.23-2.64.43-2.64,3.23v4.84h9V359c0-2.8-.26-3-2.7-3.23v-1.15h9.88Z"/><path class="cls-2" d="M444.52,355.77c-2.56.23-2.76.43-2.76,3.23v12.68c0,2.76.26,3,2.76,3.19V376h-10v-1.15c2.63-.23,2.86-.46,2.86-3.23v-6.12h-9v6.12c0,2.8.27,3,2.7,3.23V376h-9.81v-1.15c2.4-.23,2.7-.43,2.7-3.23V359c0-2.8-.3-3-2.83-3.23v-1.15H431v1.15c-2.37.23-2.64.43-2.64,3.23v4.84h9V359c0-2.8-.26-3-2.7-3.23v-1.15h9.88Z"/><path class="cls-2" d="M297.57,370.58a6.67,6.67,0,0,1-2.08,3.57,5.62,5.62,0,0,1-4,1.48,7.06,7.06,0,0,1-4.73-1.79c-2.34-1.72-3.84-4.82-3.84-8.8a10.28,10.28,0,0,1,3.46-8,6.71,6.71,0,0,1,4.73-1.88,6.45,6.45,0,0,1,6.52,5h.84v-5.39a21.46,21.46,0,0,0-6.7-1,16.28,16.28,0,0,0-7.19,1.54,11.39,11.39,0,0,0-6,10.43,11.09,11.09,0,0,0,5.35,9.81,15.18,15.18,0,0,0,7.15,1.6,26.7,26.7,0,0,0,4-.44,25.42,25.42,0,0,0,3.35-.93v-5.18Z"/><path class="cls-2" d="M412.74,370.58a6.62,6.62,0,0,1-2.09,3.57,5.58,5.58,0,0,1-4,1.48,7,7,0,0,1-4.73-1.79c-2.34-1.72-3.84-4.82-3.84-8.8a10.31,10.31,0,0,1,3.45-8,6.75,6.75,0,0,1,4.74-1.88,6.45,6.45,0,0,1,6.52,5h.84v-5.39a21.48,21.48,0,0,0-6.71-1,16.31,16.31,0,0,0-7.19,1.54,11.39,11.39,0,0,0-6,10.43,11.1,11.1,0,0,0,5.36,9.81,15.15,15.15,0,0,0,7.15,1.6,26.58,26.58,0,0,0,4-.44,25.22,25.22,0,0,0,3.36-.93v-5.18Z"/><path class="cls-2" d="M361,355.74c-2,.1-2.77.72-2.94,2a37.28,37.28,0,0,0-.24,5v3.38c0,3.75-.58,6.66-2.52,8.71a8.64,8.64,0,0,1-6.25,2.46,9.49,9.49,0,0,1-5.84-1.71c-1.95-1.54-2.9-4.07-2.9-8.06v-8.23c0-3.18-.31-3.35-2.91-3.59v-1.12h9.77v1.12c-2.56.21-2.87.41-2.87,3.59v7.55c0,5.25,2,8.29,5.84,8.29,4.37,0,6.08-3.45,6.08-9.15v-3.24a34.51,34.51,0,0,0-.31-5.09c-.2-1.23-.95-1.81-3.31-1.95v-1.12H361Z"/><path class="cls-2" d="M386.66,373.89a15.76,15.76,0,0,1-2.67-3.36,54.08,54.08,0,0,1-2.51-4.85c2.21-.93,4.36-2.58,4.36-5.48a5,5,0,0,0-2.25-4.4c-1.32-.92-3-1.26-5.88-1.26h-9.29v1.16c2.42.23,2.71.56,2.71,3.21V371.6c0,2.66-.35,3-2.72,3.26V376h9.86v-1.15c-2.48-.23-2.81-.56-2.81-3.27v-4.83h.63a2.25,2.25,0,0,1,2.18,1.46c1,1.71,1.9,3.47,2.71,4.85a6.36,6.36,0,0,0,5.2,2.94h2.58v-1.16A4.32,4.32,0,0,1,386.66,373.89Zm-7.1-9.3a4.74,4.74,0,0,1-3.24.89h-.86v-8.06c0-.69.07-1,.3-1.22a2.23,2.23,0,0,1,1.49-.33c1.85,0,3.9,1.29,3.9,4.79A4.77,4.77,0,0,1,379.56,364.59Z"/></svg>