<svg id="Layer_1" data-name="Layer 1" xmlns="http://www.w3.org/2000/svg" viewBox="0 0 720 432"><defs><style>.cls-1{fill:#231f20;}.cls-2{fill:#616164;}.cls-3{fill:#fffef9;}.cls-4{fill:#0094d6;}</style></defs><title>Church_network_Logos</title><g id="Layer_2" data-name="Layer 2"><g id="Horizontal"><path class="cls-1" d="M173.07,313.82l4.84,2.38c-3.93,6.26-11.29,10.26-21.42,10.26-15.58,0-25.13-8.6-25.13-22.15s9.47-22.14,25.23-22.14c10,0,17.31,4.06,21.24,10.26L173,294.81c-3.22-5.54-9.26-8.06-16.53-8.06-12.11,0-20.11,6-20.11,17.48s8.06,17.49,20.11,17.49C163.82,321.82,169.85,319.43,173.07,313.82Z"/><path class="cls-1" d="M219.58,317.85V322h-33V284.73h4.52v33.12Z"/><path class="cls-1" d="M263,317.85V322H227V284.73h35.49v4.15H231.42V301h26.29v4.14H231.42v12.73Z"/><path class="cls-1" d="M302.39,312H277.27l-5.43,10H266.9l20.5-37.26h5L312.9,322h-5Zm-2.16-4-10.39-19.12L279.47,308Z"/><path class="cls-1" d="M354.52,322l-12.36-14.27H324.42V322h-4.53V284.73h25c8.3,0,14.26,4.15,14.26,11.5,0,6.46-4.68,10.55-11.55,11.29L360.46,322Zm-9.9-18.42c6,0,10-2.29,10-7.34s-4-7.34-10-7.34H324.39v14.7Z"/><path class="cls-1" d="M420.78,322l-12.35-14.27H390.68V322h-4.42V284.73h25c8.31,0,14.28,4.15,14.28,11.5,0,6.46-4.7,10.55-11.55,11.29L426.59,322Zm-9.9-18.42c6,0,10-2.29,10-7.34s-4-7.34-10-7.34H390.65v14.7Z"/><path class="cls-1" d="M435.41,322V284.73h4.47V322Z"/><path class="cls-1" d="M452,284.73l17.19,32.42,17.2-32.42h4.95L471.58,322h-4.84l-19.83-37.26Z"/><path class="cls-1" d="M534.38,317.85V322H498.33V284.73h35.49v4.15h-31V301h26.29v4.14H502.8v12.73Z"/><path class="cls-1" d="M582.2,326.28l-13.78-15.92H548.63v15.92h-5V284.73h27.83c9.26,0,15.91,4.63,15.91,12.83,0,7.19-5.23,11.76-12.87,12.59l14.19,16.08Zm-11.05-20.54c6.71,0,11.17-2.55,11.17-8.18s-4.46-8.19-11.17-8.19H548.56v16.39Z"/></g></g><path class="cls-2" d="M280.83,358.36l2,1c-2.64,4-7.33,6.54-14.06,6.54-10.42,0-16.64-5.85-16.64-14.87s6.22-14.87,16.71-14.87c6.6,0,11.3,2.48,13.95,6.54l-2,1c-2.41-3.72-6.53-5.57-12-5.57-8.78,0-14.55,4.57-14.55,12.9S260,364,268.77,364C274.31,363.93,278.47,362.08,280.83,358.36Z"/><path class="cls-2" d="M318.8,337v28.12h-2.09V351.82H291.93v13.23h-2.09V336.94h2.09v12.83h24.78V336.94Z"/><path class="cls-2" d="M357.09,337v14.83c0,8.07-5,14.06-14.39,14.06s-14.43-6-14.43-14.06V337h2.09V351.7c0,7.45,4.54,12.3,12.3,12.3S355,359.24,355,351.7V337Z"/><path class="cls-2" d="M393.54,365.05l-9.83-11.26h-15v11.26h-2.11V336.94H385c6.26,0,10.42,3.13,10.42,8.38,0,4.94-3.6,8-9.1,8.38l10,11.3Zm-8.79-13.18c5.17,0,8.42-2.28,8.42-6.5s-3.17-6.53-8.33-6.53h-16.2v13Z"/><path class="cls-2" d="M429.93,358.36l2,1c-2.64,4-7.33,6.54-14.06,6.54-10.42,0-16.64-5.85-16.64-14.87s6.22-14.87,16.71-14.87c6.61,0,11.3,2.48,13.95,6.54l-2,1c-2.4-3.72-6.53-5.57-12-5.57-8.78,0-14.55,4.57-14.55,12.9S409.09,364,417.87,364C423.39,363.93,427.57,362.08,429.93,358.36Z"/><path class="cls-2" d="M467.9,337v28.12h-2.09V351.82H441v13.23h-2.1V336.94H441v12.83h24.77V336.94Z"/><g id="Emblem"><path class="cls-2" d="M431.47,146.46c-19-8.94-42.93-13.39-71-13.27-25.13.11-49.28,5.17-69.84,14.63l-1,.46V265.64l1.64.1a212.84,212.84,0,0,1,25.08,2.92c10.27,1.7,20,3.31,45.27,3.31,19.63,0,59.76-6,69.43-7.6l1.46-.24V146.93Z"/></g><path class="cls-3" d="M293,150.67V262.54c28.45,1.69,27.64,6.08,68.58,6.08,18.13,0,55.91-5.47,67.5-7.39V149.33c-17.4-8.18-40-12.93-68.61-12.79C335.61,136.66,312.36,141.76,293,150.67Z"/><path class="cls-4" d="M378.27,211.45c-15,3.59-55.39,18.66-81.52,21.92v11.8c34.23-5.15,45.4-10.38,66-17.48,11.28-3.89,43.84-12.78,62.58-14.31v-8.1C412,206.64,398.67,206.57,378.27,211.45Z"/><path class="cls-4" d="M374.32,189.64c-24,6.59-60.19,25.66-77.57,28.28v9.43c32.21-5.43,63.3-20.78,84.24-25.85s32.79-5.16,44.34-6.71V179.88C404.59,183.54,383.28,187.18,374.32,189.64Z"/><path class="cls-4" d="M397.38,170.12c-23.76,3.44-31.46,1.43-48,4-25.52,4-36.27,13.6-52.62,18.57v12.81c17.09-3.61,39-18.78,63.12-21.6,9.4-1.11,36.26-4.41,65.46-8.05V164.64C419.81,166.26,411.27,168.1,397.38,170.12Z"/><path class="cls-4" d="M296.75,153.53c18.3-8.42,40.26-13.24,63.75-13.35,27-.13,48.38,4.35,64.83,12.09v9.25c-12.34,2.27-26.77,5-38,5.76-17.49,1.2-32-1.16-51.25,1.47-14.75,2-26.51,6.17-39.29,11.83Z"/><path class="cls-4" d="M347.14,240.31a427.5,427.5,0,0,1-50.39,10.1v8.83c26.88,1.6,26.11,5.75,64.79,5.75,17.14,0,52.84-5.17,63.79-7V227.59C401.83,227,367,235,347.14,240.31Z"/></svg>