<svg id="Layer_1" data-name="Layer 1" xmlns="http://www.w3.org/2000/svg" viewBox="0 0 720 432"><defs><style>.cls-1{fill:#231f20;}</style></defs><title>Church_network_Logos</title><path class="cls-1" d="M177.57,218.11a5.07,5.07,0,1,0-5.07-5.06A5.06,5.06,0,0,0,177.57,218.11Z"/><path class="cls-1" d="M276,354.21a18.92,18.92,0,1,1-18.4-24.16c8.51,0,16.17,5.24,18.4,13.82h-7a11.64,11.64,0,0,0-11.12-7.46,11.51,11.51,0,0,0-8.71,3.46,12.94,12.94,0,0,0-3.46,9c0,7.34,5.36,12.51,12.17,12.51a11.81,11.81,0,0,0,11.12-7.2Z"/><path class="cls-1" d="M286.61,318.27h6.81v17.8c2.09-4.18,6.93-6.08,11.58-6,5.56,0,9.09,1.84,11.39,5s3.07,7.33,3.07,12.24V366.7h-6.87V347.59c0-3.2-.59-6-2-8s-3.93-3.14-7.46-3.14-6.09,1.37-7.53,3.27a11.2,11.2,0,0,0-2.15,6.87V366.7h-6.81Z"/><path class="cls-1" d="M364.68,366.7h-6.41v-5.49c-1.7,3.66-5.69,6.6-12,6.54-11.46-.06-14.4-8.38-14.4-15.77V331.1h6.8v19.31c0,6.41,2.49,11,9.49,11,6.68-.07,9.75-4.33,9.75-10.41V331.1h6.81Z"/><path class="cls-1" d="M378.16,331.1h6.41v5.24c2-4.19,5.76-6.22,10.6-6.29v6.81h-.46c-6.41,0-9.75,3.54-9.75,10.6V366.7h-6.8Z"/><path class="cls-1" d="M437.65,354.21a18.92,18.92,0,1,1-18.4-24.16c8.51,0,16.17,5.24,18.4,13.82h-7a11.64,11.64,0,0,0-11.12-7.46,11.51,11.51,0,0,0-8.71,3.46,12.94,12.94,0,0,0-3.47,9c0,7.34,5.37,12.51,12.18,12.51a11.82,11.82,0,0,0,11.12-7.2Z"/><path class="cls-1" d="M448.3,318.27h6.81v17.8c2.09-4.18,6.93-6.08,11.58-6,5.56,0,9.1,1.84,11.39,5s3.08,7.33,3.08,12.24V366.7h-6.87V347.59c0-3.2-.6-6-2-8s-3.92-3.14-7.45-3.14-6.09,1.37-7.54,3.27a11.2,11.2,0,0,0-2.15,6.87V366.7H448.3Z"/><path class="cls-1" d="M621.93,287.45l-21.82-35.21L622,225.49H601.38l-16.38,22V187.4H567.61v93q-12.47-1.38-25.32-2.6A33.16,33.16,0,0,0,550,263.2H532.24c-1.89,3.71-5.34,8.11-12.59,8.11-8.28,0-13.84-6.59-13.84-15.45a17.17,17.17,0,0,1,3.8-11.2,12.17,12.17,0,0,1,10-4.26c7.25,0,10.7,4.37,12.59,8.55h17.62A31.13,31.13,0,0,0,519,223.41c-17.41,0-30.72,14.46-30.72,32.33a33.46,33.46,0,0,0,5.24,18.16q-12.66-.84-25.55-1.53a35,35,0,0,0,4.24-16.51c0-14.92-10.18-32.35-31.36-32.35s-31.35,17.43-31.35,32.23v.12a35.2,35.2,0,0,0,3.28,14.35q-14.28-.37-28.8-.54v-16c0-8.55,4.2-11.94,13.12-11.94h.62V223.41c-10.05,0-13.1,5.58-14.77,8.87v-6.79H366.61v44.05H360q-11,0-21.93.13h0V254.53c0-8.43-1.48-15.57-5.35-20.72s-9.75-8.12-18.66-8.12c-8-.2-16.69,3.52-20.13,11.3V187.4H286.2v83.46q-12.17.43-24.14,1V227.42h-7.84v11.94c-3.22-7.1-12-13.55-23.41-13.55-17.61,0-30.17,13.33-30.17,30.6a31.26,31.26,0,0,0,5.46,17.75l.81,1.16h0q-12.82,1-25.34,2.16V277h0V227.35h-7.75v50.88q-12.13,1.17-23.94,2.5v-26.2c0-8.43-1.48-15.57-5.36-20.72s-9.74-8.12-18.64-8.12c-8-.2-16.69,3.52-20.14,11.3V187.4H98V287.46q-20.3,3-39.26,6.49c60.08-6,125.89-10.24,195.38-12.42v0c0,2.76,0,5.29,0,5.29,0,14.39-11.29,23-22.33,23A22.75,22.75,0,0,1,219,305.57a22.51,22.51,0,0,1-6.87-7.63H203c3.65,10.42,14.17,18.69,28.57,18.69a32.32,32.32,0,0,0,21.9-8.92c5-4.83,8.59-11.81,8.59-22.75V281.3Q310,279.92,360,279.84c108.88,0,211.41,5.12,301.28,14.11Q642.28,290.47,621.93,287.45Zm-479.69-5.84q-18.7,2.17-36.5,4.72V252.79c0-5.38,1.46-10.2,4.5-13.72s7.56-5.8,13.74-5.8c6.7,0,11.11,2.19,14.15,6,2.82,3.85,4.1,9.21,4.1,15.58v26.72h0Zm105.88-9h0c-10.28.58-20.48,1.2-30.52,1.92h0l-.08-.07v0h0a23,23,0,0,1-8.85-18.11v-.11c0-13.54,10.31-23,23-23,8.27,0,14,3.42,17.6,8a24.9,24.9,0,0,1,5.27,15.13A24.26,24.26,0,0,1,248.12,272.6Zm82.32-2.85Q312,270,294,270.59v-17.8c0-5.38,1.47-10.2,4.52-13.72s7.54-5.8,13.71-5.8c6.71,0,11.13,2.19,14.18,6,2.82,3.85,4.08,9.21,4.08,15.58Zm111,1.39-1.8-.08c-7-.66-12.72-6.82-12.72-15.1v-.1c0-8.88,6.38-15.34,13.94-15.34s13.94,6.46,13.94,15.34C454.82,264.49,448.75,270.81,441.46,271.14ZM585,282.45V257.06l15.74,27.4C595.56,283.76,590.31,283.1,585,282.45Z"/></svg>