<svg id="Layer_1" data-name="Layer 1" xmlns="http://www.w3.org/2000/svg" viewBox="0 0 720 432"><defs><style>.cls-1{fill:#ad9e6e;}.cls-2{fill:#5f6369;}</style></defs><title>Church_network_Logos</title><path class="cls-1" d="M343.37,218.44l3.88-12.57h29.33V168.64H319.13a23.63,23.63,0,0,0-23.5,23.77v85.71a23.63,23.63,0,0,0,23.5,23.77h57.45V218.44Z"/><path class="cls-1" d="M405.39,168.64H389v37.23h27.7l4,12.57H389v83.45h16.38a23.63,23.63,0,0,0,23.49-23.77V192.41A23.63,23.63,0,0,0,405.39,168.64Z"/><path class="cls-2" d="M55.29,338.53H67.4v24.28c0,6.1-5.11,6.41-6.13,6.41S55,368.9,55,362.56v-3.1H46.55v3.41c0,9.93,7.6,14.46,14.66,14.46s14.72-4.53,14.72-14.46V330.73H58.38Z"/><path class="cls-2" d="M116.66,330a23.09,23.09,0,0,0-23.31,23.36c0,13.44,10.24,24,23.31,24s23.26-10.53,23.26-24A23.06,23.06,0,0,0,116.66,330Zm0,39.22c-8.18,0-14.6-7-14.6-15.86,0-8.59,6.42-15.32,14.6-15.32s14.55,6.73,14.55,15.32C131.21,362.25,124.82,369.22,116.66,369.22Z"/><path class="cls-2" d="M172,349.72c-4.91-2.08-7.89-3.56-7.89-6.49s2.86-5.07,6.52-5.07a13.87,13.87,0,0,1,8.55,3.4l1.19,1.13,4-7.28-.64-.67c-.19-.19-4.66-4.74-13.06-4.74-8.61,0-15.11,5.74-15.11,13.35,0,8.06,6.93,11.11,12.49,13.57,4.45,2,8.29,3.65,8.29,7.12s-3.09,5.12-6.16,5.12c-5.74,0-10-4.24-10-4.29l-1-1.05-4.89,6.61.69.77A21.1,21.1,0,0,0,170,377.33c8.62,0,14.87-5.67,14.87-13.48C184.89,355.2,177.74,352.16,172,349.72Z"/><polygon class="cls-2" points="230.93 345.94 211.21 345.94 211.21 330.74 202.68 330.74 202.68 376.59 211.21 376.59 211.21 353.74 230.93 353.74 230.93 376.59 239.47 376.59 239.47 330.74 230.93 330.74 230.93 345.94"/><path class="cls-2" d="M287.45,359.86c0,5.86-3.62,9.36-9.68,9.36s-9.56-3.45-9.56-9.24V330.73h-8.53V360c0,10.21,7.47,17.35,18.15,17.35S296,370.19,296,360V330.73h-8.53Z"/><path class="cls-2" d="M326.23,330.73,309.9,376.59h8.86l3.16-8.64h16.57l3.26,8.64h8.91l-16.33-45.86Zm-1.86,29.67,5.34-15.92c.18-.53.36-1.14.54-1.77.18.63.36,1.24.54,1.77L336,360.4Z"/><path class="cls-2" d="M394.44,372.57c-10.18,0-17.85-8.23-17.85-19.14,0-10.75,7.48-18.55,17.78-18.55a21.6,21.6,0,0,1,13.18,4.72l2.41-3.68c-1.47-1.32-6.84-5.51-15.85-5.51-12.95,0-22.72,9.92-22.72,23.09,0,13.68,9.61,23.61,22.85,23.61a24.41,24.41,0,0,0,16.95-6.72l-2.59-3.51A21.36,21.36,0,0,1,394.44,372.57Z"/><polygon class="cls-2" points="433.82 331.2 428.81 331.2 428.81 376.32 433.82 376.32 433.82 351.52 457.02 351.52 457.02 376.32 462.03 376.32 462.03 331.2 457.02 331.2 457.02 347.31 433.82 347.31 433.82 331.2"/><path class="cls-2" d="M499.87,372.57c-7.63,0-12.36-4.6-12.36-12V331.2h-5v29.36c0,9.9,7,16.55,17.43,16.55s17.43-6.65,17.43-16.55V331.2h-5v29.22C512.36,367.92,507.57,372.57,499.87,372.57Z"/><path class="cls-2" d="M558.62,356.84l.31-.1c4.73-1.55,8-6.93,8-12.61s-2.8-10.22-7.31-11.92c-1.66-.62-3.64-1-8.36-1H537.84v45.12h5V357.78h11l9.74,18.54h5.64Zm-5.77-3.27h-10V335.41H551c3.78,0,5.36.44,6.68,1.14,2.66,1.49,4,4.2,4,7.84C561.75,350,558.26,353.57,552.85,353.57Z"/><path class="cls-2" d="M605.86,372.57c-10.18,0-17.85-8.23-17.85-19.14,0-10.75,7.48-18.55,17.78-18.55A21.54,21.54,0,0,1,619,339.6l2.42-3.68c-1.47-1.32-6.85-5.51-15.85-5.51-12.95,0-22.72,9.92-22.72,23.09,0,13.68,9.61,23.61,22.85,23.61a24.41,24.41,0,0,0,17-6.72L620,366.88A21.36,21.36,0,0,1,605.86,372.57Z"/><polygon class="cls-2" points="668.44 347.31 645.24 347.31 645.24 331.2 640.23 331.2 640.23 376.32 645.24 376.32 645.24 351.52 668.44 351.52 668.44 376.32 673.45 376.32 673.45 331.2 668.44 331.2 668.44 347.31"/></svg>