<svg id="Layer_1" data-name="Layer 1" xmlns="http://www.w3.org/2000/svg" viewBox="0 0 720 432"><defs><style>.cls-1{fill:#00594e;}</style></defs><title>Church_network_Logos</title><path class="cls-1" d="M89.22,245.32H107.4l28.12,55.18h.21V245.32h14.16v73.79H131.82l-28.23-55.18h-.21v55.18H89.22Z"/><path class="cls-1" d="M188,263.4c16.17,0,28.54,10.89,28.54,28.86,0,15.64-10.47,28.12-28.54,28.12s-28.44-12.48-28.44-28.12C159.56,274.29,171.93,263.4,188,263.4Zm0,46c10.89,0,13.74-9.72,13.74-18.81,0-8.35-4.44-16.18-13.74-16.18s-13.64,8-13.64,16.18C174.36,299.55,177.22,309.38,188,309.38Z"/><path class="cls-1" d="M223.07,264.67h12.58V277h.21c.63-5.08,6.45-13.64,14.9-13.64a15.58,15.58,0,0,1,4.34.42v14.27a14.45,14.45,0,0,0-6.34-1.16c-11.53,0-11.53,14.38-11.53,22.2v20H223.07Z"/><path class="cls-1" d="M272.43,275H262V264.67h10.47V253.78l14.16-4.54v15.43h12.58V275H286.59V300.4c0,4.65,1.27,9,6.66,9a12.66,12.66,0,0,0,6.45-1.48l.42,11.21a37.48,37.48,0,0,1-10.46,1.27c-11.1,0-17.23-6.87-17.23-17.66Z"/><path class="cls-1" d="M305,239.83h14.16v32.24h.21a20.27,20.27,0,0,1,17.13-8.67c12.89,0,18.5,9.09,18.5,21.35v34.36H340.82V290c0-6.66-.1-15.65-9.2-15.65-10.25,0-12.47,11.1-12.47,18.08v26.64H305Z"/><path class="cls-1" d="M393.1,245.32h18.71c16.06,0,30.76,4.66,30.76,22.31,0,17.23-12.58,23.46-28.44,23.46H407.9v28H393.1Zm14.8,34.15h5.18c7.4,0,14.05-2.43,14.05-11S420.69,257,413.08,257H407.9Z"/><path class="cls-1" d="M452.18,264.67h14.17v54.44H452.18Z"/><path class="cls-1" d="M477.35,264.67h13.42v7.4H491c4.44-6.24,10.47-8.67,17.87-8.67,12.89,0,18.5,9.09,18.5,21.35v34.36H513.18V290c0-6.66-.1-15.65-9.19-15.65-10.26,0-12.48,11.1-12.48,18.08v26.64H477.35Z"/><path class="cls-1" d="M582.66,316c-5.18,2.86-11.1,4.34-18.71,4.34-18,0-28.44-10.36-28.44-28.23,0-15.75,8.35-28.75,25.27-28.75,20.19,0,25.9,13.85,25.9,32.87H549c.64,8.78,6.77,13.75,15.54,13.75,6.87,0,12.79-2.54,18.08-5.5Zm-9.52-29.49c-.42-6.87-3.59-12.79-11.52-12.79s-11.94,5.5-12.58,12.79Z"/><path class="cls-1" d="M627.19,276.08a35,35,0,0,0-12.69-2.32c-3.8,0-8.35,1.37-8.35,6,0,8.67,24.63,3.18,24.63,22.84,0,12.68-11.31,17.76-22.83,17.76a63.68,63.68,0,0,1-16.07-2.33l.85-11.63a31.11,31.11,0,0,0,13.95,3.6c3.6,0,9.3-1.38,9.3-6.66,0-10.68-24.63-3.39-24.63-23.05,0-11.73,10.26-16.91,21.36-16.91a65.26,65.26,0,0,1,15.43,2Z"/><path class="cls-1" d="M296.27,341.17a13.33,13.33,0,0,0-7.29-2.06c-5.65,0-9.25,4.58-9.25,11.82,0,7,4.06,11.71,9.4,11.71a15.16,15.16,0,0,0,7.35-1.9l.31,7.5a28.92,28.92,0,0,1-9,1.28c-9.81,0-16.7-7.34-16.7-18.69,0-13.15,8.84-18.39,16.13-18.39a22.43,22.43,0,0,1,9.45,1.74Z"/><path class="cls-1" d="M318.76,354H310v14.9h-8.42V333.05H310v14.28h8.73V333.05h8.43v35.86h-8.43Z"/><path class="cls-1" d="M333.6,333.05H342v24.2c0,3.59,1.33,5.8,4.72,5.8s4.73-2.21,4.73-5.8v-24.2h8.42v22.86c0,8.89-5.08,13.61-13.15,13.61s-13.15-4.72-13.15-13.61Z"/><path class="cls-1" d="M366.32,333.05h13.15c5.9,0,10.94,2.62,10.94,9.25a8.38,8.38,0,0,1-7.14,8.78v.1c2.62.31,3.64,1.75,5,6l3.7,11.72h-8.84l-2.77-9.61c-1.39-4.88-2.52-4.88-5.6-4.88v14.49h-8.42Zm8.11,15.31h2.62a4.55,4.55,0,0,0,4.93-4.72c0-1.5-.46-4.53-5-4.53h-2.57Z"/><path class="cls-1" d="M418,341.17a13.33,13.33,0,0,0-7.29-2.06c-5.65,0-9.25,4.58-9.25,11.82,0,7,4.06,11.71,9.4,11.71a15.16,15.16,0,0,0,7.35-1.9l.31,7.5a28.92,28.92,0,0,1-9,1.28c-9.81,0-16.7-7.34-16.7-18.69,0-13.15,8.84-18.39,16.13-18.39a22.43,22.43,0,0,1,9.45,1.74Z"/><path class="cls-1" d="M440.47,354h-8.73v14.9h-8.42V333.05h8.42v14.28h8.73V333.05h8.43v35.86h-8.43Z"/><circle class="cls-1" cx="459.27" cy="253.05" r="8.81" transform="translate(135.69 665.67) rotate(-80.75)"/><path class="cls-1" d="M360,109a62.38,62.38,0,1,0,62.37,62.38A62.37,62.37,0,0,0,360,109Zm2.88,108.55h-5.83a1.59,1.59,0,0,1-1.58-1.59V193.7a1.62,1.62,0,0,1,.46-1.12l2.5-2.24c1.1-1.1,2-1.12,3.14,0l2.45,2.3a1.58,1.58,0,0,1,.45,1.1V216A1.59,1.59,0,0,1,362.88,217.58Zm29.64-18.72-3.65,4.56a1.59,1.59,0,0,1-2.28.2l-25.24-22.09a1.91,1.91,0,0,0-2.51,0l-25,21.87a1.58,1.58,0,0,1-2.16-.07l-4.14-4.13a1.58,1.58,0,0,1,.08-2.31l31.21-27.32a1.9,1.9,0,0,1,2.51,0l31,27.1A1.58,1.58,0,0,1,392.52,198.86Zm0-22.15-4.13,4.13a1.59,1.59,0,0,1-2.16.08l-25-21.88a1.9,1.9,0,0,0-2.51,0l-25,21.87a1.58,1.58,0,0,1-2.16-.07l-4.14-4.13a1.58,1.58,0,0,1,.08-2.31l31.21-27.32a1.9,1.9,0,0,1,2.51,0l31.22,27.32A1.58,1.58,0,0,1,392.51,176.71Zm0-22.5-4.13,4.14a1.58,1.58,0,0,1-2.16.07l-25-21.88a1.9,1.9,0,0,0-2.51,0l-25,21.88a1.58,1.58,0,0,1-2.16-.07l-4.14-4.14a1.58,1.58,0,0,1,.08-2.31l31.21-27.32a1.93,1.93,0,0,1,2.51,0l31.22,27.32A1.59,1.59,0,0,1,392.51,154.21Z"/></svg>