<svg id="Layer_1" data-name="Layer 1" xmlns="http://www.w3.org/2000/svg" viewBox="0 0 720 432"><defs><style>.cls-1{fill:#8b7565;}.cls-2{fill:#68863a;}</style></defs><title>Church_network_Logos</title><path class="cls-1" d="M359.72,317c-66.61.3-121.76-54.72-121.63-122.15.12-66.68,55.37-122.62,124-121.52,63.84,1,119.9,52.84,119.84,122.06A121.56,121.56,0,0,1,359.72,317Zm.4-239.22C296,77.28,242.45,130.2,242.49,195.19c0,64.31,52.08,116.89,116.26,117.5a117.47,117.47,0,1,0,1.37-234.93Z"/><path class="cls-1" d="M360.19,79.29a115.9,115.9,0,1,1-1.08,231.8c-64.55-.33-116.79-54-114.94-119.47C245.87,131.27,295.76,79.24,360.19,79.29ZM255.8,195.12c-.51,55.84,44.89,104.23,103.79,104.4A104.34,104.34,0,1,0,360,90.84C300.83,90.86,255.31,139.4,255.8,195.12Z"/><path class="cls-2" d="M395.88,271.94l28.48.11c-.9,1.27-20.54.37-22.2,1.6,6.84.05,13.67.28,20.62,0-2.78,1.92-4.89,4.34-8.36,5.17a22.05,22.05,0,0,0-2,2c-2.89,2.71-6.49,2.27-10.22,2.29a41,41,0,0,0-8.53.71l13.26.31-1.54.81c-10.48,0-18.9-.5-29.36.26,0,.18-2,.3-2,.48l29.6.21c-26.95,13.61-54.33,10.95-81.92,2.44,9.78-1.11,28.23.58,39.89-.3,0-.48-2.53-1-4.55-1-5.17,0-10.34,0-15.51,0-7.27,0-14.54-.15-21.81-.16a12,12,0,0,1-4.23-1c-6.16-2.32-11.51-5.91-17-10.43,13.07-.74,25.61.68,38.69-.37-3.3-1-6.16-.79-9-.76-9.72.1-19.42.78-29.16.13-2-.13-2.93-1.23-4.7-2.79H325c0-.27-1.67-.75-5.73-.68l-25.64-.13v-.77h20.67c-6.71-1.17-13.42-.14-20.12-.4-.9,0-1.88.25-2.63-.51l-9.71-9.9H294c-4.58-1.7-9.83,1.1-14.23-2.09,1.27-1.5,4.05-1,4-2.39-3.94,1.75-6.05-.64-7.69-2.92-.78-1.1-.8-1.89,1-2,11.29-.69,22.58-1.5,33.87-2.25,9.54-.64,19-1.46,27.77-5.91a36.64,36.64,0,0,1,7.33-2.24,4.52,4.52,0,0,0,3.66-4c.72-4.46,2.62-8.7,1.48-13.49-.7-2.92-3.4-3.6-4.69-5.7-.2-.32-.84-.29-.92.07-.56,2.42-3.1,1.57-4.45,2.73-.53.45-1.14-1.37-2.12-.47-.24-.56.21-.85.47-1.2s1.27-1.23.82-1.52c-.79-.49-1.67-1.33-2.78-1a3.25,3.25,0,0,1-1.88,0c-1.89-.47-1.89-.46-.93-3.74-1.51.49-3.43,0-4,1.81-.37,1.26,1.59.46,2,1.38-2.83,1.24-5.41.71-7.22-1.64-.66-.87-1.13-.29-1.61,0a3.76,3.76,0,0,1-3.18.47c-1.67-.61-4.24-.68-3-3.77.24-.58.49-1.67-.24-2a2.6,2.6,0,0,0-2,.57,13.27,13.27,0,0,0-1.59,1.87c-.92,1-1.26,4.12-3.38.86-.42-.65-1.19-.07-1.73.63-.73,1-1.21,2.33-2.9,2.43.18-.62.57-1.23.45-1.71-.18-.73-.59-1.8-1.14-2-.94-.3-1.25.85-1.62,1.55a12.84,12.84,0,0,0-.53,1.55c-.35.91-.51,2.09-1.9.77a1.26,1.26,0,0,0-2,.23c-.55,1-.13,1.83,1.36,2.24a9.81,9.81,0,0,1-1.38.26c-1-2.75-4.1-1.69-5.83-3.36s-4.79-.78-6.76-2.5c-.43-.38-1.65-.23-1.34-1,1.11-2.89-1.51-4.36-2.28-6.52-.38-1.06-1.37-1.29-2.45-1.46-4.27-.67-6.14-4.26-4.38-8.2a3.63,3.63,0,0,0,.46-1.85c-.81-4.25,2-7,4.17-10,1.07-1.44,1.63-2.73.6-4.19-.78-1.1-.41-2.38-1-3.55-.37-.76.32-2.61,1.35-2.65,2.63-.09,3-2,3.69-3.73.3-.83.58-1.62,1.68-1.38.93.21,1.61.06,2-.92a1.45,1.45,0,0,1,.52-.5c.8.74,2.09,1.63,2.5.35a3.94,3.94,0,0,0-1.39-3.56c-3.08-1.74-.59-3.07.14-4.36a3.61,3.61,0,0,1,3.73-1.91c2.72.79,1.29-1.15,2.87-2.45,2.26-1.87,4.31-3.81,3.5-6.08-.5-1.4-.33-2.36,1.45-2.39a6,6,0,0,0,5.59-3.33c1.07-2,2.86-1.07,4.32-.72,2,.47,3.64.87,2.73-2.15-.47-1.53,1.48-3,.08-4.65-.25-.32,1.34-1,2.22-1.07,1.63-.09,3.27,0,5.51,0-1.37-1.44-3.38-2-2.74-3.78s2.22-2.56,4-2.82c1-.15,1.61-1.37,2.73-1.13s4.41-1,3.26,2.14c-.36,1,0,1.16.59,1.42a1,1,0,0,0,1.45-.82c.86-3.94,4.47-4.72,7.33-6,3-1.31,6.72-.9,9.51-3.17.14-.11.4-.23.51-.18,2.57,1.35,3.53-.87,4.93-2.17a1.16,1.16,0,0,1,2,.25c1.06,1.66,2.26,1.94,3.77.42a2.47,2.47,0,0,1,3.49-.28c1,.71,1.88,1.37,3.23.54.84-.52.72.69,1.09,1.06,1.33,1.33,2.59,2.53,4,.14a1.94,1.94,0,0,1,2.69-.46,3,3,0,0,0,3.1-.25c2.17-1.76,4.5-1,6.82-.95,1.15,0,1.67.52,1.31,1.74-.21.68-.56,1.57.24,2s1.5.23,1.1-1a4.82,4.82,0,0,1-.32-1c0-.21.17-.44.26-.65,1,.11,1,1,1,1.48.14,1.88,1.13,2.56,2.89,2.45,1.46-.09,1.74.4.73,1.53-1.15,1.29-1.36,2.27.66,3,1.65.63,2.32,2.22,2.68,3.91a13.61,13.61,0,0,0,2,5.08c1.39,2,2.94,3.65,5.61,1.76.7-.5,1.49-.8,2.15.15.37.53-.13,2,1.36,1.3,1-.48,2.62-.08,2.69-1.81,0-.9.44-1.6,1.23-1.46s1.82.89,1.55,1.91c-.41,1.52.23,2.14,1.47,2.66a2.16,2.16,0,0,1,1.31,1.94c.24,2.17,1.33,3.31,3.7,2.73.91-.23,1.9-.35,1.84,1.15,0,1,.73.83,1.36.9,4.44.5,6.32,3.6,4.88,8-1,3.08-.06,4.84,3.16,5.89.26.08.6.12.75.31,2.44,3,5.8,4.93,8.75,7.33.89.72,1.7,1.73.16,3.15-1.82,1.69-1,4.32,1.19,5.41.55.27,1.27.56,1.28,1.32.06,2.94,2.22,5.3,2.23,8.25,0,.86.73.5,1.19.67a2.91,2.91,0,0,1,1.67,4.46,5.68,5.68,0,0,0-.68,1.46c-.44,2.07,0,2.45,2.74,1.81-2.28,2.15-3.58,4.22-2.86,7.16.2.82-.59,1.92-2,2.51-2.49,1.07-5.23,1.48-7.2,4.15-1,1.34-3.8,2.13-5.69,3.35-.14.09-.46.15-.53.07-3.3-3.65-3,1.48-4.67,1.86-.71-.3.28-1.3-.07-1.24a5.84,5.84,0,0,0-3.86,2.77c-.79,1.2.44,1.74,1.32,2.34a1.74,1.74,0,0,1-2.62-.65c-.29-2.18-3.12-1.3-3.63-3.36-.14-.57-1.93.83-3.06,1-.67.07-1.87,1.78-1.88-.6,0-.53-1.15-.7-1.4-.39-3,3.53-4.08.38-5.69-1.79-.66,1.31-.45,2.88-2,3.74-.12-3.58-2.15-3.54-4.77-2.69-.67.21-2.1.75-2.32-.51s1.12-.16,1.64-.63,1.29-.78,1-1.72c-.34-1.31-1.42-.46-1.73-.3-2.22,1.16-5.07,1-6.72,3.49-1.3,2-3.84,2.15-6,2.78.41-1.78-1.62-3.05-1.09-4.95.09-.31-.88-.83-1.57-.3a49.39,49.39,0,0,1-15,7.76c-2,.63-.42,3.25-2.25,4,1.2,2.46-.75,4.57-.78,7-.06,4.87,2.11,8.89,6.7,10.77,6.88,2.82,14.16,3.65,21.47,4.3,17.72,1.57,35.49,1.8,53.27,1.75a2,2,0,0,1,.5.15c-.55,3.69-3.66,3.54-6.62,3.86,1.3,1.27,2.46.06,3.67.75-1.58,2.18-3.18,4.27-4.64,6.45-1.88,2.78-5.15.33-7.6,2.23a7.5,7.5,0,0,1,1.09.21c1.19.47,3-.81,3.58.48s-1.3,2.18-1.91,3.36c-1.85,3.59-4.74,4.27-8.69,3.86a83.58,83.58,0,0,0-14.32.17c-4.85.33-9.64-.31-14.46-.4a128.71,128.71,0,0,0-15.7.52c16,1.34,32.12-.46,48.25,1.25-.56,1.63-1.86,1.9-3.53,1.92-10.59.14-16.82.1-27.41.29-.44,0-4.93.31-5.37.34A17.17,17.17,0,0,0,395.88,271.94ZM334.13,131.28c-.16-.08-.35-.25-.49-.22-2.21.51-5.61,1.92-5.24-2.44.05-.53-1.25,1.08-1.61.56-.58-.87.2-2.84-.3-2.19s-2.77,1-2,1.53c2.23,1.48.44,3.75,1.39,5.26,1.29-.18,1.29-1.44,2.42-2.06-.45,2.84,2.47,1.59,3.7,3.39-1.69.1-2.73.6-2.57,2.4s1.64.4,2.2,1.06c.23.9-1.62,1.05-.78,2,.54.59,1.37,1.27,2.36.55-1.46-3.48-1.33-6.76.95-9.83.75-2.43,2.56-2.11,4.42-1.74,2,.41,3.73.08,3.63-.69-.26-1.86,1-2.56,2.51-3.23l-4.33-1.47c-.63.85.68,1.65-.22,2.41-.19-.16-.46-.27-.57-.47-.33-.58.1-1.62-1-1.72s-.79,1-1.18,1.56c-.7,1-1.19,2.06-2.35,2.6S333.71,130.11,334.13,131.28Zm55.08,47.25c3,1.63,5,1.55,6.57-.25-1.07-1.08-2.32.68-3.8-.38,1.61-.76,2.17-2.4,3.87-2.79.78-.18,1.43-.91,1-1.65-.7-1.16-1.12.12-1.61.44a4.55,4.55,0,0,1-2.93,1.09c2.17-1.2,2.39-3.92,5.09-3.92.42,0,2.18-.24,1.64-1.63s-1.67,0-2.77.11c.65-1.6.94-2.87-1-4.11.68,4.07-1,3.33-3,1.65-.86,2.55-2.49,4.86-1.89,7.42.43,1.83-.35,2.76-1.3,3.87-1.57.46-2.36,1.88-3.47,2.91a.93.93,0,0,0-.2,1.23c.28.43.75.38,1.22.3C389.2,182.35,390,181.11,389.21,178.53Zm-9.8-48.89c.43-.94,1.83-.79,1.53-2-.23-.92-1.17-.76-1.79-1a3,3,0,0,0-2.58-.28,8.65,8.65,0,0,1-4.89,0c-.6-.14-1.35-.73-1.71,0a3.62,3.62,0,0,0,0,2.14c.08.4,1.19.54.5,1.18-.43.4-1,.06-1.47-.33s-1-1.13-1.62-.5-.4,1.59-.26,2.36c.19,1,.9.67,1.69.58,1.53-.18,2.3,2.55,4.26,1.28,0,.09,0,.18.05.27.64,2.79,1.64.94,2.89.24-1.6-.71-3.3-1.26-3.36-2.83,0-1.06,1.58-1.45,2.57-1.76,1.21-.37,2.7-.73,3.41,1-.74,1-2.21-.12-2.71,1.37,1.86.09,3.56,3.16,5.38.35C382.21,130.23,380.45,130,379.41,129.64Zm-15.14,4.06c.5-3.71-.45-4.83-3.62-5.16-2.4-.25-5-.34-6.8-2.22-1.39-1.5-2.46-.76-3.44,0a3.94,3.94,0,0,1-3.44,1.15c-2.54-.43-4.21,1.58-3.8,4.7,1.53-2.18,3-4.25,5.81-4.22,1.88,0,3.17.74,2.86,2.88-.07.48-.39.86.3.93a1.14,1.14,0,0,0,.94-.38c.4-.64-.12-1.73,1-2.06.8.67.13,1.82.85,2.5C357.72,130.7,362.59,131.55,364.27,133.7Zm11,133.71c1.64-.15,3.71-.39,3.74-.68-20.67-.49-41.31-.16-62,.29C321.29,268,354.61,267.41,375.24,267.41Zm-9.5-57.77c4.06-2.5,8.29-1.87,11.95-3.43.64-.28,1.81-.05,1.86-.79s-.82-2-1.66-1.89c-2.41.24-4.88-1.88-7.1.4-.68-1.15.25-3-1.38-3.15s-1.8,1.65-2.18,2.78C366.63,205.35,366.31,207.23,365.74,209.64ZM346.29,275.4c-1.57-.14-3.06.22-7.33.84,20.82.51,52.5.31,60-.69C378.12,275.55,367.11,275.4,346.29,275.4ZM337.9,143.21c-.65-2-1.23-3.66-1.77-5.36-.18-.57-.18-1.47-1.09-1.09s-.48,1-.08,1.72c1.68,3.09,1,5.65-2,7.21-.72.38-1.85.33-1.23,1.41a2.72,2.72,0,0,0,2.36,1.65c2.77.2,3.28-2.23,4.84-3.39,2.12-1.58,2.13-5,0-7C338.07,139.7,339.6,141.43,337.9,143.21ZM302.71,183c-.38,1-1.07,1.88-2.17,1.73-2.93-.39-3.59,2.65-5.65,3.57-.34.15-.46,1-.55,1.49-.12.68.07,1.3.9,1.42s.89-.35,1.07-1c.35-1.12.84-2.21,1.35-3.53a2.71,2.71,0,0,1-.07,2.66c-.71,1.45-1.48,2.86-.32,4.48.35.49-.5,1.69.73,1.66a1.65,1.65,0,0,0,1.5-1.43c.07-2.07,1.86-3.73,1.44-5.83S303,185.11,302.71,183ZM343,207.36c-.68,1.83,3.87,1.31,1.1,3.67a1.12,1.12,0,0,0,.28.44c2,1.65,3.36,4,6.11,4.83-1.87-1.47-2.46-3.7-3.85-5.63a4,4,0,0,1,1.09-.23c1,.09,2,.35,2.25-1.19.24-1.76-.06-3.47-1.42-4.48-1-.75-2.33.37-2.65,1.22C345.31,207.67,344.13,207.45,343,207.36Zm26-36c.83-2.84-1.67-2.46-2.8-2.56-1.7-.16-3.65.29-3.83,2.64-.13,1.7,2.27,4.5,3.79,4.39C369.12,175.57,368.49,173,369.05,171.32Zm-54.86-3.4c.24-.07.57-.07.72-.23,1.4-1.54,2.23-3.68,4.69-4.06.59-.09.55-.9.39-1.43-.22-.72-.81-1.14-1.48-.85-2.11.91-3.43-.07-4.72-1.6-.68-.81-1.84-1.16-2.52-.07a3,3,0,0,0,2,4.23c2.65.35,3.17,1,.82,2.71C313.78,166.84,313.85,167.47,314.19,167.92Zm-12.62-8.75c1.68,1.22,3.31,2.19,3-1.17,0-.26.05-.69.21-.77,2.36-1.16,1.34-3.14,1.43-5-2.57,2.15-4.36,4.91-7.44,6.37.25,1,1,2.34.81,3.86-.12,1.09.55,1.16,1.38,1.08,1-.11,1.24-.67.94-1.53S300.79,160.51,301.57,159.17Zm39.63-10.61c-.57-.75-.23-2.39-1.4-2.34-.7,0-1.35,1.28-2,2-.79.92-.34,1.91,0,2.85.12.37.56.95.95.43,1.14-1.52,2.27-.22,3.43-.17,1,0,2.24.6,3-.64s.08-2.17-.38-3.12a3.28,3.28,0,0,0-2-1.65A2.31,2.31,0,0,1,341.2,148.56Zm8.58-11.19c-1,2.5-1.71,1.09-2.82.75-.85-.26-2.82-.44-3.4,1s-.95,3.32.42,4.89c.77-.64.63-2.19,2-1.92s.11,1.75,1.24,2.61C347,141.86,350.25,140.73,349.78,137.37Zm6.05,13.12c.87,2.86,2.3,3.84,4,2.75.4-.25.85-.57.4-1.05a1.2,1.2,0,0,0-.95-.08c-.32.88-.7,1.62-1.6.6a1.73,1.73,0,0,1-.06-2.28,6.33,6.33,0,0,0,.9-2c.21-.82.78-2-.61-2.21-.83-.13-2-.21-2,1.45-.06,1.31-.6,2.75-2.63,1.65-1-.56-1.3.41-1.11,1.19a6.34,6.34,0,0,0,1.75,3.18C354.61,152.53,354.32,150.92,355.83,150.49Zm-11.16,2.95c-1,1,1.21,2.6-.85,3.2.36.68-.16,2.88,1.67,1,.7-.71.72.17.86.34a7.07,7.07,0,0,0,2.93,1.95c1.25.57,2,.27,1.77-1.18-.13-1,.74-2.48-.26-2.73-1.38-.34-3.08-1.72-4.46.27C345.89,155.21,345.86,154,344.67,153.44ZM289.35,188c-.14.72-1,1.85.36,1.93,1,.06,1-1.08,1-1.91a15.76,15.76,0,0,0,0-2.75c-.29-1.68,1.85-1,2-2.18.31.44.65,1.53,1.2.49s-.63-2.17-.95-3.29a.87.87,0,0,0-1.11-.54,4.93,4.93,0,0,0-3,5.45C289,186.18,289.16,187.11,289.35,188Zm18-29.12c.79-2.1,1.51-2.44,2.66-1.59a1.62,1.62,0,0,0,2-.13,1.84,1.84,0,0,0,.06-2.09c-.72-1.2-1.4-2.58-2.84-3.05-1.1-.36-2.21-.5-1.95,1.4A49.47,49.47,0,0,1,307.4,158.92Zm50.06-19.14a2,2,0,0,0-2.41,1.31,2.36,2.36,0,0,0,.28,2.56c.85,1,1.76.55,2.69.21,1.19-.45,2.38-.88,3.57-1.32.65-.23,1.67-.25,1.4-1.24-.19-.71-1.1-.4-1.69-.39-.81,0-1.86,1.12-2.14-.75C359.07,139.51,358.05,139.87,357.46,139.78Zm-33.19,42.14c-1.83,0-2.95-.68-3.12-2.55s-1-3.65-3-2.93c-1.51.56-2.05,2.6-2,4.56.6-3.08,2.84-1.35,3.86-1.14,1.26.28.08,1.38-.3,2.1-.53,1,.14,1.38.92,1.47C322,183.6,323.41,183.61,324.27,181.92Zm48.92-26.6c-.21-.87.47-2.31-1-2.17s-.6,1.44-.55,2.24a18.11,18.11,0,0,0,.45,2.14c.28,1.54,1.76,3.07,0,4.65a.83.83,0,0,0,.22,1.21,1.8,1.8,0,0,0,1.31,0c1.79-.78-.64-3.86,2.21-4.15,0,0,.07-.6-.07-.75-.31-.32-.73-.75-1.1-.74C372.51,157.84,372.93,156.5,373.19,155.32ZM342.24,172.7c-.68,2.63-2,3.45-4,3-.73-.17-1.51.21-1.39.86a4.54,4.54,0,0,0,3.29,3.35c1.35.4.74-1.23.93-2,.07-.33.06-.8.28-.95C343.36,175.51,343.37,175.52,342.24,172.7ZM391.6,288.43a121.57,121.57,0,0,0-28.4.15C372.69,288.41,382.13,288.86,391.6,288.43Zm-71.45-134c-1.36-2.47-4.43-3.16-6.22-1.68a2,2,0,0,0-.21,2.92c.71,1,1.68,1,2.46-.06C317.12,154.42,318.33,154,320.15,154.48Zm1-12.37c1.44-.46,2.78-1.07,4.27-.75.67.15,1.51.61,2.08-.08s-.19-1.2-.57-1.61c-.64-.7-1-2.52-1.92-1.93C323.47,138.71,320.68,138.88,321.14,142.11Zm-12.07,59.18c-.26-1.18.65-2.73-1.24-3.25-.12,1.57-2.68.43-2.55,2.32.12,1.69.28,3.44,2.43,3.55S308.6,202.15,309.07,201.29Zm-16.09,8c4.54-1.83,4.65-1.93,6.22-5.41-1.48.18-2.62,2.14-4.45.9-.07,0-1.81.08-1.46,1.08C293.72,207.1,292.84,208.1,293,209.28Zm76.22-50.07c2.48-3.44,1.45-6.2-2.35-6.64-.86-.1-1.76-.11-2,.91-.31,1.26.68,1.32,1.51,1.3,2.2-.06,2.64,1.18,2.35,3A1.3,1.3,0,0,0,369.2,159.21Zm-49.53,32.84,2.72-3.24c-2.06.25-.75-2-1.78-2.43-.39-.18-4,1.9-3.81,2.16A11.72,11.72,0,0,0,319.67,192.05Zm56.24,19.06c-.31-.83-1.46-.57-1.36-1.32.18-1.41,2,0,2.35-1.21a9.32,9.32,0,0,0-8.82,3ZM323.65,259a151.54,151.54,0,0,0,17.32.1C335.15,258.34,329.4,257.92,323.65,259Zm6.41-95.48c1.44-.77.83-2.51,2.19-2.74,1.81-.31,1.06-1.39.63-2.23a4.78,4.78,0,0,0-2.55-2,1.36,1.36,0,0,0-1.05-.1c-.5.29-.31.8-.06,1.2C330.28,159.36,330.06,161.31,330.06,163.5Zm77.61-18.61c-2.61,2.39-6.29,3.33-8.46,6.27C402.87,150.22,406.18,148.79,407.67,144.89ZM373,149.44c.19.59.4,1.27.63,2s-.38,2,1,2.17c1.2.12,1.72-1.08,2.15-1.82.8-1.38.17-3-1.41-2.64C374.56,149.28,373.26,146.19,373,149.44Zm-68.17,34.71c-.7.95-1,2.27-2.29,2.6-.53.13-.82.39-.68.94s.62.48,1.09.4c1.91-.35,3.95-.05,5.77-1,0-.17,0-.3-.07-.34Zm-10.09-3.76c1,.1,1.86-.26,2.75.61s2.23.39,3.37,0c1.49-.55.81-1.61.23-2.12C299.7,177.65,295.93,178.59,294.72,180.39Zm30.17-22.94c-.2-.36.93-2.19-.74-2-2,.17-1.89,2.58-2.61,4-.48.93,1,.85,1.94.93C325.58,160.48,325.42,159.31,324.89,157.45Zm52,21.6c-.58,2.81-.84,5.42,3.26,4.5C381.47,180.39,378.88,179.92,376.9,179.05Zm10.72-25.78c-2.26.52-1.49-1.68-2.55-2.22a.5.5,0,0,0-.8.39c-.09.95-1.15,2,.43,2.8,1.06.53.81,1.44.16,2.19-.29.34-1.3,0-1,.89a1.34,1.34,0,0,0,1.64.63c.47-.11,1.25-.73,1.21-.85C386.15,155.76,386.36,154.61,387.62,153.27Zm51.46,24.91c-.37-1.54-2.82-2-2.21-4.05-.54-.11-1.35-.27-1.49.19-.34,1.13-.93,3-.45,3.4a5,5,0,0,0,3.7,1.3C439.12,179,439.14,178.61,439.08,178.18Zm-26.67,28c1,0,2,.1,2.15-1s-.66-1-1.36-1.3a21.45,21.45,0,0,1-2.16-1.16c-.79-.4-1.93-1.15-2.41-.24-.55,1.06.5,1.55,1.56,1.56.38,0,.71,0,.57.58C410.27,206.39,412,205.61,412.41,206.16ZM304.68,194.53c.64-1.4,2.07-2.18,3.15-3.32.06-.07,0-.36-.14-.48-1.27-1.45-2.65.2-4.06-.08-1-.2-.81,1.38-.61,2.2A2.26,2.26,0,0,0,304.68,194.53ZM333,167.18a5.26,5.26,0,0,1-.79,4.73c-1.52,2.52-.18,3,2,3.19A14.37,14.37,0,0,0,333,167.18Zm41.63-42.26c.89-.3,1.9.42,2.32-.66.29-.76-.24-1.43-.59-2.05-.55-1-1.29-.16-1.93-.07a17.7,17.7,0,0,0-1.83.49c-.4.1-1-.1-1.07.53a1,1,0,0,0,.87,1.21C373.17,124.58,374,124.76,374.62,124.92Zm5.83,32.58c-1.89.86-3.53,1.56-2.84,3.85.34,1.09,1.3.92,2.05.57C382,160.85,380.26,159.16,380.45,157.5Zm-20.64,24.93c4.13-3.06,4.59-5,2-7.18-.56.75.16,1.36.21,2.05s0,1.57,0,2.43c-.83-.39-.25-2.1-1.13-1.59C359.49,178.94,360,180.69,359.81,182.43ZM333,199.29c-.25-.7-.57-1.5-1.43-1.4a13.54,13.54,0,0,0-3.25.79c-.62.24-1.46.69-1,1.6s1.1.27,1.68.2c1-.12,2-.26,2.94-.4C332.43,200,333.13,200.21,333,199.29Zm36.85,86.25a87.85,87.85,0,0,0-19.25,0C357.31,285.91,363.52,285.79,369.86,285.54Zm27.36-12.42c-2.16,0-4.22-.65-6.38-.6s-4.31-.35-6.15.78C388.75,273.84,396.06,273.52,397.22,273.12Zm-12.81-133.4c-1.1,0-2.21.38-2.29,1.52-.1,1.49,1.57,2,2.46,2,1.07,0,1.7-1.37,1.71-2.5S385.2,139.81,384.41,139.72Zm-45.55-4.48c.25-1.36,1.78-3.05.08-3.33a12.68,12.68,0,0,0-3.77.07c-.74.13-1.26.48-1.21,1.17s.83.6,1.29.54A3.3,3.3,0,0,1,338.86,135.24Zm14.52-16.72c1.86-.41,2.32.77,2.77,2a1.3,1.3,0,0,0,2,.85,1.63,1.63,0,0,0,.46-2.09C356.82,119.27,355.55,116.64,353.38,118.52Zm56.53,70.86c-2.82-2.44-7.14-2.52-8.26-.36,1.3,0,2.57,0,3.83,0S408.17,189.24,409.91,189.38Zm-85.22-58.31a11.64,11.64,0,0,0-3,5.22c-.13.39-.35.93.23,1.17A.88.88,0,0,0,323,137C323.35,135.05,325.28,133.58,324.69,131.07Zm40,68.14c-1-.75-2.41-1.51-3.2-.78-1.17,1.07.29,2.54.11,4.08A6.94,6.94,0,0,0,364.7,199.21ZM290,198.49c1.29,3.54,2.48,3.9,4.81,2.14.69-.53,1.64-1.24.84-2.11s-2-.13-2.3.51C292.33,201.56,291.42,199.81,290,198.49Zm42.37,71.61c-4.17-1.22-8.6,0-13,0C323.78,270,328.23,270.84,332.38,270.1ZM387.3,169.4c.78-2.2-1-2.16-1.81-2.75s-1.06.71-1,.73c1.14,1.09-.1,3.54,1.91,3.86C387.35,171.4,387.09,169.8,387.3,169.4Zm11.32-13.77c-2.69,1.59-3.45,3.27-3.27,5.44C399,160.92,397.7,158.13,398.62,155.63ZM372,176.69c-.25-.58-1.25-.92-1.56-.53-1.18,1.45-2.72,2.68-3.35,4.54-.18.53.22,1.44.68,1C369.24,180.19,370.5,178.45,372,176.69ZM437.35,198c-.18-1.54-.13-2.65-1.38-2.88s-1,.86-1,1.47c0,.95.78,1.81-.27,2.84-.44.43.61.69,1.07.52C436.89,199.56,437.49,198.73,437.35,198ZM367,166.87c1.61,0,2.91.35,3.94-1.19-2.22-.34-2-2-1.75-3.77C367.3,163.28,367.82,165.16,367,166.87Zm47.81-12.66a19.13,19.13,0,0,1,2.52-2.16c.66-.39,1.16-.79.76-1.43a2.07,2.07,0,0,0-2.18-.85c-.79.16-1.63,1.13-1.2,1.44C416.18,152.26,414.36,153,414.81,154.21ZM347.89,284.35a18.73,18.73,0,0,0-5.85-.63H327.91a7.14,7.14,0,0,0-3.18.73C329.64,284.45,343,284.35,347.89,284.35Zm59.91-14.43a42.58,42.58,0,0,0-14.52,0A109.93,109.93,0,0,0,407.8,269.92ZM322.56,163.15a5.55,5.55,0,0,0-.64.79c-.35.63-.07,1,.56,1.23,1.52.53,3.15.7,4.11,2.37.53.92,1.09,0,1.42-.49s.5-.91-.27-1.29C326,164.94,323.6,165.58,322.56,163.15Zm-1.21,37.38c.31,2.1-1.47,3.5-1.7,5.4-.09.69-.22,1.3.71,1.45-.15-1.68,2.83-1.74,2-3.42C321.85,202.82,322,201.66,321.35,200.53Zm52.56-25.18c.78-.39,1.71-.74,1.88-1.81.08-.44-.23-.82.6-.72,1.66.21.75-.87.43-1.25a1.22,1.22,0,0,0-2.07,0c-.57,1.12-1.48,2.15-1.43,3.52C373.32,175.17,373.63,175.23,373.91,175.35ZM354,190.19a5.32,5.32,0,0,1-2.06,1.18c-.66.13-1.24.68-.77,1.39a.92.92,0,0,0,1.61-.1c.87-1.45,1.49-.73,2.19.12.26.31.62.84,1,.19.24-.43.87-1,.39-1.44A12,12,0,0,0,354,190.19Zm-.58-5.81c2.28-.27,3.29-1.63,2.49-3.23-.71-1.41-1.21,0-1.78.11-.31.06-1.57.11-.85.51C355.15,182.77,353.09,183.57,353.43,184.38Zm69.93,27.5c-1.69-.29-3.32-1.11-4.39.76a.79.79,0,0,0,.57,1.24A3.06,3.06,0,0,0,423.36,211.88Zm7.72-13.81c-1.36-1-2.77-.62-3.59-1.89-.36,1.45-.75,2.56-.4,3.9ZM309.19,273c4.56.48,9.19.1,13.82,0C320.22,272.22,313.81,272.68,309.19,273Zm119.64-86.57a4.14,4.14,0,0,0,3.72,3.06C432,187.25,431.79,185.21,428.83,186.46Zm-22.42-21.18a14.24,14.24,0,0,0-.1,2.36c.07.59-1,1.15-.14,1.62a2,2,0,0,0,1.52-.24,1.6,1.6,0,0,0,1-1.74C408.5,166.18,407.69,165.66,406.41,165.28ZM352.14,282.2c2.91.31,5.83.63,8.72-.12C357.93,281.1,355.05,282.25,352.14,282.2ZM300.87,152.83a6,6,0,0,0,.61.29c.71.28,1.51,1.21,2.17.41a9,9,0,0,0,1.29-2.89c.06-.18-.36-.6-.65-.78s-.49.07-.74.12C304,152.25,301.09,151.2,300.87,152.83Zm68,106.2c0,.09,4.93,0,4.93.11h12.12a37,37,0,0,0,5,0C386.89,258.46,372.93,258,368.87,259Zm22.49-66.37c-2.49-1.45-3.91-.62-5.56.46,1.75-.3,1.34,1.66,2.68,2.08C388.46,193.6,389.34,192.86,391.36,192.66Zm47.78-7.19c-.13-.54-.25-1-.38-1.55-.23.06-.58,0-.66.19-.49.81.69,1.92-.47,2.64.64,0,1,.8,1.89.36s.73-1.69,1.53-2.25c.28-.19.05-.69-.36-.82C439.45,183.68,439.87,185.16,439.14,185.47Zm-97.28-51.55c.06,1.22-1.07,2.7.74,3.4a1.1,1.1,0,0,0,1.62-.9C344.63,134.59,342.71,134.78,341.86,133.92Zm1.75,63.66c1.76-.45,3.13-.64,2.77-2.22-.19-.86-1.11-2-2.11-1.82-1.27.16-1.08,1.36-.88,2.34.73.28.81-1.07,1.74-.48Zm7.51-24.36c2.7.78,3.73-.2,4.18-4.67C354.12,170.93,352.19,171.61,351.12,173.22ZM330.68,282c0,.07,3.27.07,3.27.14h11.46c0-.07-.31-.15-.31-.22A43.74,43.74,0,0,0,330.68,282Zm85.56-87.21a20.14,20.14,0,0,1,2.05-.61c.72-.09,1.46-.1,2.18-.15,1.07-.09,2-1,1-1.53-1.19-.67-2.8.2-4.13.81C417.09,193.4,417,193.8,416.24,194.75ZM393.84,251a10.47,10.47,0,0,0-3.77-.47H378.74c0,.1-2.17-.17-3.45.47C382.85,251.47,390,251,393.84,251ZM316,168.91c-1.43,1.34-.67,3-1.47,4.25-.42.65.63.88,1.17,1.16a1,1,0,0,0,1.42-.35c.44-.7-.26-1-.67-1.21C314.78,171.78,316.35,170.47,316,168.91Zm103,6.42c-.93-.41.65-2.56-1.64-2.23-.94.13-1.3.74-.94,1,.8.62-.4,2.54,1.53,2.24C418.46,176.28,419.29,176.43,418.93,175.33Zm-26.54-39.75c-1.84,1-.55,2.29-.77,3.32-.12.53-1.22.85-.25,1.62.4.31.86.45,1.22,0,.58-.64,1-1.74.38-2.2C391.9,137.55,392.46,136.61,392.39,135.58Zm-39.67,67.31c-1.07,2.62.43,4.48.23,6.4C354.22,207.34,353.73,205.45,352.72,202.89Zm12-78.1c-.65-.15-1,.17-1.08,1-.07,1.26.75,1.51,1.71,1.72s1.15-.22,1.16-1C366.58,125.39,366.1,124.77,364.77,124.79Zm-71.31,66.54c-1.37,0-2.76-.74-3.37,1a1.16,1.16,0,0,0,.82,1.51C292.5,194,292.88,192.66,293.46,191.33Zm-7.65,1.47c.47-1.55.7-2.42,1-3.27s-.32-1.08-1-1.22c-1-.23-1.08.57-1,1.14A28.21,28.21,0,0,0,285.81,192.8Zm134-6.3c.63-2.07-1.29-1.78-2.29-2.31-.42-.22-.72.51-.57.58,1.26.67,1.37,2.4,2.57,2.9C420.1,187.94,420.12,187.08,419.76,186.5ZM386.71,179c1-1.1,2.5-1.73,1.74-3.44-.24-.51-.86-.13-1.18.06C386,176.35,385.69,177.38,386.71,179Zm42.53,12.62a1,1,0,0,0-1.5-.83c-.85.36-2.42.28-2.35,1.39.1,1.62,1.37.1,2.09.37A1.2,1.2,0,0,0,429.24,191.57ZM312.33,255.81c0-.09,4.6-.19,4.6-.28-3.85-1.14-13.08-.07-16.19-.07,0,.09,2.28.26,2.28.35Zm70.08-78.43a3.14,3.14,0,0,0,2.3-2.6c.1-.38-.25-.88-.56-.64a15.44,15.44,0,0,0-2.65,2.52C381.16,177.1,381.77,177.38,382.41,177.38ZM382,196.73c-1.1.8-1.42,1.84-2.5,1.84s-1,.73-.76,1.33c.44,1.11.87,0,1.18,0C382.24,200,381.78,198.41,382,196.73Zm-69.17.43c.56,1.67,2.09,1.93,3.53,2.23.12,0,.56-.58.5-.8-.4-1.53-1.94-1-2.92-1.56A.81.81,0,0,0,312.86,197.16Zm54.87,94.47c0,.07,3.44,0,3.44.09h8.38v-.2C377.71,290.68,370.58,290.87,367.73,291.63Zm46.39-104.07c-.28-.65.48-2-1.14-1.85a1.15,1.15,0,0,0-1.17,1.23,2,2,0,0,0,1.61,1.94C414.46,189.09,414.14,188.18,414.12,187.56Zm-56-21.31c-1,.3-.33,1.28-.42,1.95s-.23,1.6,1,1.42c.95-.14,1-1,.93-1.66S359.55,166.21,358.09,166.25Zm36.5,18.83c0,1.48-1.61.53-1.72,1.21s.72,1.5,1.59,1.55.52-1.62,1.67-1.42C396.18,185.46,395.19,185.79,394.59,185.08Zm-53.42,10.74c.56-1.68-.51-2.74-.68-3.95-.05-.39-.62-.27-.9-.05s-.95.71-.51,1.33C339.67,194,340.34,194.77,341.17,195.82Zm52,3.14a3.69,3.69,0,0,0-2.78,2.95c-.08.41.48.48.81.39C392.81,201.86,393.14,200.64,393.21,199Zm22.06-5.65c-2.23.35-3.73.88-4.67,2.79C412.86,196.33,414.05,195.21,415.27,193.31Z"/><path class="cls-1" d="M258.54,354.53c0,12.56-8.62,20.87-21.52,20.77-12-.09-21-9.73-20.89-22.26.14-11.7,9.41-20.58,21.47-20.56S258.55,341.73,258.54,354.53Zm-36.21-.63a26.09,26.09,0,0,0,1.31,8.87c2.07,6.59,7.1,9.77,14.87,9.48,6.53-.23,12-4.35,13.35-10.44a29.25,29.25,0,0,0-1.26-17.64c-2-4.86-5.55-8.08-11-8.68-5.93-.66-10.75,1.15-14.07,6.32A20.16,20.16,0,0,0,222.33,353.9Z"/><path class="cls-1" d="M362.1,374.72c-11.19,0-19.33-7.17-20.87-18.34-1.47-10.66,4.54-20.3,14.39-22.92A23.59,23.59,0,0,1,372.2,335a7.29,7.29,0,0,1,4.21,9.09c-.41,1.51-1.4,1.11-2.11.47a5.51,5.51,0,0,1-1.26-2.15c-3.36-9.13-17.17-8.52-22-1.66s-4.94,19.45.33,26.13c4.34,5.48,11.84,6.69,19.2,3.07a22.84,22.84,0,0,0,5.18-3.56c.65-.58,1.44-1.62,2.38-.6s.1,1.79-.55,2.5a19.23,19.23,0,0,1-13.88,6.45C363.16,374.74,362.63,374.72,362.1,374.72Z"/><path class="cls-1" d="M295.17,363.68c2.59-1.58,3.85-3.44,5.42-5,.23-.21.63-.57.57-.71-2.09-5.2,2.28-2.21,3.64-2.71a12.65,12.65,0,0,1,4.37-.26c1.09,0,2.67-.34,2.67,1.33,0,1.4-1.45,1.31-2.47,1.23-2.75-.23-4.82,1-6.74,2.81-1.41,1.33-1.35,2.35,0,3.66,1.66,1.61,3.22,3.33,4.75,5.06,1.27,1.42,2.44,2.8,4.31.75a1,1,0,0,1,1.45,0,1.61,1.61,0,0,1,.36,1.73,4.65,4.65,0,0,1-7.06,2.6c-2.59-1.68-4.39-4.2-6.49-6.41-.69-.73-1.19-2.37-2.63-1.53a3.72,3.72,0,0,0-2.14,3.27,2.36,2.36,0,0,0,2.22,2.57c.86.15,1.82.38,1.7,1.46-.15,1.32-1.32,1.21-2.22,1.05a21.38,21.38,0,0,0-8.13,0c-.93.2-2.09.15-2.42-.94-.42-1.34.77-1.54,1.69-1.69,2-.33,2.43-1.67,2.42-3.43,0-9.37-.05-18.73,0-28.1,0-2-.6-3.23-2.62-3.62-.89-.17-1.75-.57-1.52-1.61s1.28-.93,2.12-.88c1.23.07,2.41.53,3.72.17,2.07-.58,2.86.47,2.86,2.5,0,7.57.11,15.14.17,22.72C295.18,360.86,295.17,362,295.17,363.68Z"/><path class="cls-1" d="M275.89,363.82v-.63c0-7.13-2.13-8.51-8.56-5.51-1,.48-2,1-2.74-.24s.29-2,1.2-2.47c3.77-1.8,7.65-2.31,11.52-.38a5.59,5.59,0,0,1,3.33,5.31c0,2.21.06,4.42,0,6.62-.08,2.44,0,4.7,2.95,5.48a1.19,1.19,0,0,1,1,1.39,1.26,1.26,0,0,1-1.66,1c-2.33-1.19-5,.93-7.28-.82-.3-.24-1.31.4-2,.68a10.72,10.72,0,0,1-9.71-.18,7.33,7.33,0,0,1-.85-12.73,10.12,10.12,0,0,1,9.87-1.21c.93.36,2.29.77,1.86,2.09-.48,1.47-1.75.74-2.67.36a5.35,5.35,0,0,0-3.07-.44,4.93,4.93,0,0,0-4.21,5.09,5.43,5.43,0,0,0,5.2,5,5.26,5.26,0,0,0,5.71-4.32,33,33,0,0,0,0-4.1Z"/><path class="cls-1" d="M388.4,353c0,5,.07,10.07,0,15.11,0,2.12.22,3.78,2.75,4.06.94.1,1.73.58,1.48,1.59-.18.75-1.06,1-1.84.87a36.44,36.44,0,0,0-9.39,0c-.85.09-1.82-.1-1.95-1.15s.87-1.2,1.71-1.33c1.95-.29,2.48-1.56,2.47-3.37q0-14.34,0-28.66a3,3,0,0,0-2.25-3.29c-.79-.24-1.83-.44-1.67-1.52.21-1.39,1.47-.9,2.31-.92,6.4-.12,6.4-.1,6.4,6.33Z"/><path class="cls-1" d="M485.7,352.8c0,5.06.08,10.11,0,15.16-.05,2.27.31,4,3,4.26.81.09,1.47.51,1.32,1.41s-1,1.11-1.72,1a41.21,41.21,0,0,0-9.74,0,1.34,1.34,0,0,1-1.64-1.12c-.13-1,.56-1.21,1.38-1.3,2.49-.27,2.9-2,2.89-4.08,0-9.16,0-18.31,0-27.47,0-2.1-.72-3.39-2.78-3.94-.67-.18-1.54-.44-1.36-1.42s1-.89,1.76-.92h.31c6.61-.31,6.61-.31,6.61,6.43Z"/><path class="cls-1" d="M466.05,375.2c-8.19-.1-13.94-6.69-11.94-13.69,1.43-5,7.08-8.67,12.52-8a29.86,29.86,0,0,1,5.49,1.32,4.43,4.43,0,0,1,2.88,5.73c-.17.58-.42.93-1,.94s-1.07-.48-1.43-1c-2.76-4.25-5.76-5.24-9.59-3.18a7.89,7.89,0,0,0-3.52,10,9,9,0,0,0,10.6,4.61c.59-.2,1.13-.55,1.71-.78,1-.41,2.32-1.72,3-.44.93,1.65-.89,2.27-2.06,2.88A14.13,14.13,0,0,1,466.05,375.2Z"/><path class="cls-1" d="M321.62,374.9c-5,0-7.05-1.84-6.8-6,0-.76.15-1.5,1-1.73s1.37.34,1.73,1A30.35,30.35,0,0,0,319,371a3.24,3.24,0,0,0,3.65,1.22,3,3,0,0,0,2.38-2.64,2.91,2.91,0,0,0-1.6-3.14c-1.63-.95-3.34-1.78-4.95-2.76a5.3,5.3,0,0,1-2.69-5.59c.3-2.33,2-3.33,3.92-4.06a10,10,0,0,1,7.95.63c2.3,1,1.91,3.27,1.29,4.89s-1.8.59-2.2-.5c-.79-2.16-2.34-2.82-4.44-2.6a2.17,2.17,0,0,0-2,1.36c-.36,1,.3,1.62,1,2.08,1.23.8,2.52,1.5,3.78,2.24,4.06,2.37,5.51,4.81,4.71,7.95S326.11,374.9,321.62,374.9Z"/><path class="cls-1" d="M444.66,359.79a45.71,45.71,0,0,1,3.08-4.88c1-1.25,2.73-2.28,4.1-.9s-.17,2.55-1.3,3.45c-3.67,2.9-5.4,6.82-6.16,11.31-.31,1.79-.09,3.12,2,3.53.87.17,1.67.61,1.47,1.67s-1.16.79-1.81.69a21,21,0,0,0-7.49,0c-.8.17-1.8.12-2-1-.14-.93.67-1.16,1.36-1.44a3.78,3.78,0,0,0,1.37-.74c1.55-1.67.28-12.44-1.59-13.62-.54-.33-1.27-.51-1.11-1.29.2-1,1.07-.9,1.78-.81C441,356.11,444.76,354.39,444.66,359.79Z"/><path class="cls-1" d="M497.1,374.71h-4.42c-.78,0-1.54-.18-1.71-1s.49-1.35,1.3-1.4c2.77-.19,3-2,3-4.24-.09-2,.07-4-.06-6-.22-3.39-2.08-4.32-5.15-2.79-1,.52-2.25,2.57-3.32.66-.9-1.62,1.06-2.49,2.22-3.26a14.77,14.77,0,0,1,3.38-1.67c3.77-1.29,6.92.83,7.52,4.73.45,3-.1,5.87,0,8.81,0,1.92.28,3.61,2.74,3.79.79.06,1.46.49,1.34,1.42s-1,.92-1.71.93c-1.68,0-3.36,0-5,0Z"/><path class="cls-1" d="M399.89,374.71c-1.47,0-2.94,0-4.41,0-.87,0-1.77-.13-1.85-1.23s.7-1.19,1.47-1.25c2.21-.16,2.72-1.56,2.68-3.48-.06-2.2.06-4.41,0-6.61-.15-3.46-1.94-4.41-5.05-2.91-1,.49-2.22,2.61-3.33.71-1-1.64,1-2.52,2.16-3.27a15.73,15.73,0,0,1,3.94-1.9,5.42,5.42,0,0,1,6.89,4.9c.17,2.82.06,5.66,0,8.49,0,2,.14,3.83,2.72,4.14.74.09,1.56.41,1.47,1.33-.11,1.17-1.13,1-1.95,1-1.57,0-3.14,0-4.72,0Z"/><path class="cls-1" d="M416.24,363.14c0,1.58,0,3.15,0,4.72.07,3.81,2,5.09,5.44,3.71.8-.32,1.8-1.29,2.38,0,.39.85-.67,1.42-1.35,1.86a8.24,8.24,0,0,1-8.08.89c-2.75-1.21-2.92-3.77-2.82-6.42.08-2.08-.19-4.18-.12-6.27s-.18-3.78-2.7-4.15c-.61-.09-1.26-.55-1.09-1.29s1-1,1.75-.89c1.75.28,3.43.69,5.26.16,1-.29,1.27.87,1.29,1.72,0,2,0,4,0,6Z"/><path class="cls-1" d="M428.91,374c-3.57,1.31-3.77-1.06-3.67-4s-.13-5.86-.06-8.79c.05-2-.12-3.57-2.55-3.84-.72-.08-1.49-.46-1.34-1.41s1-1,1.71-.94c1.87,0,3.68.55,5.61.34,1.46-.16,1.32,1.33,1.34,2.33.07,3.77.12,7.54.1,11.31,0,1.38.26,2.41,1.77,2.9.76.25,2.24.2,1.83,1.57-.33,1.11-1.57.71-2.48.69C430.55,374.15,429.92,374.08,428.91,374Z"/></svg>