<svg id="Layer_1" data-name="Layer 1" xmlns="http://www.w3.org/2000/svg" xmlns:xlink="http://www.w3.org/1999/xlink" viewBox="0 0 720 432"><defs><style>.cls-1{fill:url(#linear-gradient);}.cls-2{fill:url(#linear-gradient-2);}.cls-3{fill:url(#linear-gradient-3);}.cls-4{fill:url(#linear-gradient-4);}.cls-5{fill:#0f121b;}.cls-6{fill:url(#linear-gradient-5);}.cls-7{fill:#231f20;}</style><linearGradient id="linear-gradient" x1="359.24" y1="114.12" x2="359.24" y2="66.52" gradientUnits="userSpaceOnUse"><stop offset="0.14" stop-color="#c9eafb"/><stop offset="0.31" stop-color="#bee3f4"/><stop offset="0.61" stop-color="#a2d0e2"/><stop offset="1" stop-color="#75b2c6"/></linearGradient><linearGradient id="linear-gradient-2" x1="363.02" y1="133.49" x2="420.36" y2="133.49" gradientUnits="userSpaceOnUse"><stop offset="0" stop-color="#046938"/><stop offset="0.23" stop-color="#027641"/><stop offset="0.48" stop-color="#007f48"/><stop offset="0.79" stop-color="#027340"/><stop offset="1" stop-color="#046938"/></linearGradient><linearGradient id="linear-gradient-3" x1="340.28" y1="107.92" x2="420.36" y2="107.92" xlink:href="#linear-gradient-2"/><linearGradient id="linear-gradient-4" x1="299.66" y1="135.06" x2="420.36" y2="135.06" gradientUnits="userSpaceOnUse"><stop offset="0" stop-color="#589842"/><stop offset="0.05" stop-color="#5e9b42"/><stop offset="0.32" stop-color="#77a741"/><stop offset="0.48" stop-color="#80ab41"/><stop offset="0.67" stop-color="#74a641"/><stop offset="1" stop-color="#589842"/></linearGradient><linearGradient id="linear-gradient-5" x1="299.66" y1="161.48" x2="386.52" y2="161.48" xlink:href="#linear-gradient-4"/></defs><title>Church_network_Logos</title><polygon class="cls-1" points="293.26 80.09 359.5 59.37 422.95 80.85 425.22 151.39 293.26 147.85 293.26 80.09"/><polygon class="cls-2" points="384.15 119.47 363.02 125.54 378.92 125.44 416.51 145.46 420.36 147.5 420.36 145.46 420.36 128.91 384.15 119.47"/><path class="cls-3" d="M357.85,125.57l31.28-16.4,19.54,2.94s6.4-2.41,11.69-4.61V90.19l-19.83,2.29-22.22,17.25-19.93.73-18.1,11.62,4,3.57Z"/><polygon class="cls-4" points="416.78 151.06 404.67 145.46 377.32 132.81 341.95 133.02 332.99 126.76 330.21 124.82 329.72 124.48 311.37 111.68 299.66 109.92 299.66 124.76 337.75 148.45 386.27 144.34 417.54 160.2 420.36 159.09 420.36 158.21 420.36 154.53 420.36 152.72 416.78 151.06"/><path class="cls-5" d="M90.36,245.71c0-26.64,0-30.75-1.18-31.15V214c1.86-.2,5.19-.39,8.33-.5,2.44-.09,7.34-.19,10.28-.19a58.65,58.65,0,0,1,15.37,1.86c6.86,2.06,15.28,7.93,15.28,21.64,0,8.33-4,14.29-7.15,16.94a22.7,22.7,0,0,1-5.19,3.54v.28c1.66,2.16,3.42,4.9,16.64,24,2.36,3.33,5.29,7.25,6.18,7.93v.6H131.09a11.22,11.22,0,0,1-3.62-.4c-5.58-8.81-12-19.09-18-28.59h-1.87v4.6c0,19,0,23.21,1.08,23.79v.6H89.18v-.6c1.18-.58,1.18-4.79,1.18-33.39Zm30.35-7.84c0-5.88-3.62-9.5-9.59-9.5a27,27,0,0,0-3.53.2v19.68a22.69,22.69,0,0,0,2.65.1,11.2,11.2,0,0,0,6.46-2,10.06,10.06,0,0,0,4-8.42Z"/><path class="cls-5" d="M223.66,251.49c0,22.62-17.24,39.85-40.44,39.85-22.72,0-40.35-17.14-40.35-39.18,0-22.51,17.72-39.55,41.12-39.55,22.92,0,39.67,16.54,39.67,38.77Zm-18.8.38c0-12.53-8.82-22.72-21.25-22.72-13,0-21.94,9.8-21.94,22.92,0,12.73,8.81,22.71,21.84,22.71S204.86,264.7,204.86,252Z"/><path class="cls-5" d="M227.56,251.68c0-22,16.65-39,45.43-39,2.65,0,4.51.11,6.76.3a52,52,0,0,1,6.27,1c-.3,5.19-.39,9.4-.69,17.63h-.68a9.64,9.64,0,0,0-4-2.06,33,33,0,0,0-7.54-.79c-15.56,0-25.85,9.11-25.85,22.92,0,14.1,9.31,23.4,24,23.4a33.17,33.17,0,0,0,9.11-.88,13.74,13.74,0,0,0,4.6-2.06h.59c.1,3.92.39,13.32.49,17.14-1.37.39-4.32,1-6.46,1.38a68.42,68.42,0,0,1-9.7.58c-24.28,0-42.3-15.27-42.3-39.47Z"/><path class="cls-5" d="M295.12,245.71c0-26.54,0-30.07-1.28-31.24v-.78h20.77v.68c-1.19,1-1.28,4.7-1.28,24.09v5.38h.29l11.16-14.59c8.14-10.38,10.68-14,10.2-15v-.58h23.59v.58c-1.47.69-4.6,4.8-14.4,16.26l-15.86,18.4,19.49,23.32c10.87,12.92,13.81,16.25,15.37,17.13v.69h-25v-.5c.59-.68-3-5.28-11.55-16.06l-13.13-16.74h-.19v7.93c0,20,.09,23.6,1.37,24.77v.6H293.75v-.69c1.37-1.28,1.37-4.7,1.37-33.3Z"/><path class="cls-5" d="M453,256.08c0,28.6,0,32.81,1.47,33.39v.6h-21v-.6c1.38-.58,1.38-4.79,1.38-26.92v-3.34H406v3.34c0,22.13,0,26.34,1.38,26.92v.6h-21v-.6c1.38-.58,1.38-4.79,1.38-33.39V245.71c0-26.64,0-30.85-1.28-31.44v-.58h20.76v.58c-1.28.59-1.28,4.8-1.28,26.74v2.83h28.8v-2.93c0-21.84,0-26-1.27-26.64v-.58h20.55v.58c-1.17.59-1.17,4.8-1.17,31.44Z"/><path class="cls-5" d="M483.1,256.08c0,28.6,0,31.83,1.47,33.39v.6H463.52v-.69c1.37-1.37,1.37-4.7,1.37-33.3V245.71c0-26.64,0-30.07-1.27-31.24v-.78h20.76v.68c-1.18,1.27-1.28,4.7-1.28,31.34Z"/><path class="cls-5" d="M495.14,245.71c0-26.54,0-30.36-1.37-31.24v-.78h20.85v.78c-1.26,1-1.36,4.6-1.36,31.24V273.9c0,.78.1,1,.88,1h14.2a19.52,19.52,0,0,0,4.8-.4c1-.19,2.55-.49,2.84-.88h.79c-.11,7.64-.11,10.77-.11,16.46H493.87v-.88c1.37-.79,1.27-4.51,1.27-33.11Z"/><path class="cls-5" d="M542.92,245.71c0-26.54,0-30.36-1.36-31.24v-.78h20.85v.78c-1.27,1-1.38,4.6-1.38,31.24V273.9c0,.78.11,1,.89,1h14.2a19.47,19.47,0,0,0,4.8-.4c1-.19,2.54-.49,2.83-.88h.79c-.1,7.64-.1,10.77-.1,16.46H541.65v-.88c1.37-.79,1.27-4.51,1.27-33.11Z"/><path class="cls-5" d="M630.82,269.6c0,12.82-10.77,21.64-26,21.64-5.68,0-12-1.07-15.77-2.74.2-5.69.3-8.52.59-17.33h.59a12.42,12.42,0,0,0,4,2.83,22.56,22.56,0,0,0,8.61,1.47c4.9,0,8.33-2.15,8.33-6.66,0-2.73-1.86-5.09-5-7.63-2.75-2.16-5.39-4.51-7.55-6.47-5.19-4.61-9.3-10.67-9.3-18.9,0-11.84,8.12-22.62,26.24-22.62a45.26,45.26,0,0,1,11.46,1.47c-.31,6.17-.31,8.91-.5,17.24h-.68a10.08,10.08,0,0,0-3.62-2.25,15.38,15.38,0,0,0-5.19-.78c-5.19,0-8.71,2.53-8.71,6.66,0,2.53,1.07,4.2,2.93,6.06s5.09,4.41,9.21,8c6.36,5.68,10.28,11.36,10.28,19.88Z"/><polygon class="cls-6" points="371.64 161.25 367.11 157.85 363.04 154.78 353.94 154.99 341.92 155.27 336.8 153.42 331.68 151.58 326.93 149.87 314.68 145.46 299.66 140.05 299.66 145.46 299.66 159.09 360 182.91 386.52 172.44 371.64 161.25"/><path class="cls-7" d="M229.48,342.57c0-13.8,10.2-23.88,26.93-23.88a37.59,37.59,0,0,1,4.2.24,27.57,27.57,0,0,1,3.78.6c-.12,2.46-.17,4.8-.29,8.1h-.18c-.73-.18-1.51-.3-2.46-.48a27.46,27.46,0,0,0-4.8-.42c-10.74,0-17.53,6.24-17.53,15.89s6.67,16.15,16.56,16.15a32.88,32.88,0,0,0,5.52-.36,22.76,22.76,0,0,0,2.71-.67H264c.07,1.68.24,6.19.3,7.92-.95.24-2.64.6-3.89.79a39.22,39.22,0,0,1-5.64.41c-14.17,0-25.32-9.17-25.32-24.24Z"/><path class="cls-7" d="M312.1,345.14v21h-8.93V346.28H283.24v19.87h-9v-46.8h9V338.6h19.93V319.35h8.93v25.79Z"/><path class="cls-7" d="M322.91,339.15v-19.8H332V345c0,4.44.42,7.38,1.61,9.48,1.63,2.69,5,4.19,8.4,4.19s6.48-1.31,8.22-3.89c1.5-2.22,2-5.4,2-10V319.35h8.82v25.5c0,6-.66,10-2.58,13.43-2.52,4.69-8.4,8.7-16.32,8.7-8.1,0-14.22-3.35-17.09-9.12-1.68-3.24-2.17-6.9-2.17-12.77Z"/><path class="cls-7" d="M371.88,339.15V319.53c.9-.12,2.28-.18,3.66-.24s3.78-.12,5.15-.12a30.79,30.79,0,0,1,9.19,1.14c3.48,1,8.88,4.32,8.88,12.54a13.32,13.32,0,0,1-5,10.79,14.38,14.38,0,0,1-3.48,2.05v.12c.42.6,1.14,1.68,10.86,15.29,1.32,1.81,3.23,4.5,3.54,4.92v.13H394.38c-3.42-5.16-7.5-11.34-12.54-18.72H380.4v18.72h-8.52v-27ZM390,333.51c0-4.38-2.94-6.84-7.32-6.84a19.92,19.92,0,0,0-2.28.12V341A13.07,13.07,0,0,0,382,341a8.55,8.55,0,0,0,4.44-1.14,6.86,6.86,0,0,0,3.54-6.3Z"/><path class="cls-7" d="M407.34,342.57c0-13.8,10.2-23.88,26.94-23.88a37.9,37.9,0,0,1,4.2.24,27.82,27.82,0,0,1,3.78.6c-.12,2.46-.18,4.8-.3,8.1h-.17c-.72-.18-1.5-.3-2.47-.48a27.43,27.43,0,0,0-4.79-.42c-10.75,0-17.53,6.24-17.53,15.89s6.66,16.15,16.57,16.15a32.91,32.91,0,0,0,5.51-.36,23.24,23.24,0,0,0,2.71-.67h.11c.06,1.68.24,6.19.3,7.92-1,.24-2.63.6-3.9.79a39.22,39.22,0,0,1-5.64.41c-14.15,0-25.32-9.17-25.32-24.24Z"/><path class="cls-7" d="M490,345.14v21H481V346.28H461.11v19.87h-9v-46.8h9V338.6H481V319.35H490v25.79Z"/><path class="cls-5" d="M430.62,74.94,360.13,53.67,292.34,74.05l-3,.89,0,27.23V166.1l.95.4,5,1.94L360,194l36.17-14.24,25-9.89.76-.3,3.06-1.22,4.09-1.58,1.55-.63V74.94Zm-131,7.65,60.47-18.17,57.43,17.34-19.91,3.66-21.2,18.1L357,104.61l-19.62,14.8-19.55-17.54-18.13-4.28Zm75.1,94.49L358,163.73l-21.33-2.21,19.12,10.29,1.22,9.92-57.33-22.65v-19l42.26,15.2,21.11-.5,23.47,17.67Zm45.61-18-2.84,1.12L386.3,144l-48.5,4.18-38.14-23.37V109.92l11.7,1.75,18.37,12.82.49.33,2.77,2,9,6.23,35.38-.2,27.33,12.66,12.1,5.61,3.6,1.65Zm0-11.57-3.86-2-37.59-20-15.89.1,21.13-6.07,36.21,9.43Zm0-40c-5.31,2.18-11.71,4.62-11.71,4.62l-19.52-3-31.29,16.42-13.62.07-4-3.56,18.1-11.64,19.95-.73,22.22-17.24,19.82-2.28Z"/></svg>