<svg xmlns="http://www.w3.org/2000/svg" width="243.906" height="60.691" viewBox="0 0 243.906 60.691">
  <g id="Group_201" data-name="Group 201" transform="translate(-261.594 -352)">
    <g id="Group_176" data-name="Group 176">
      <rect id="Rectangle_19" data-name="Rectangle 19" width="13.087" height="4.25" transform="translate(294.945 373.222)" fill="#2d8240"/>
    </g>
    <g id="Group_177" data-name="Group 177">
      <rect id="Rectangle_20" data-name="Rectangle 20" width="13.087" height="4.194" transform="translate(294.945 364.103)" fill="#2d8240"/>
    </g>
    <g id="Group_178" data-name="Group 178">
      <path id="Path_588" data-name="Path 588" d="M321.378,400.254l-.191-2.381.131-2.381.527-2.38-.906-2.382.867-2.381-.03-2.381-.715-2.378.236-2.381-.1-2.38.489-2.382.167-2.38-.411-2.382.435-2.382-1.005-2.383.332-2.383.334-2.382-.445-2.382.425-2.383L321.044,355l.242-2.22-2.2.134-2.371.221-2.372-.641-2.371.371-2.372.245-2.372-.225-2.372-.837-2.371.078-2.373.581-2.372-.316-2.372-.065-2.369-.11-2.372.366-2.371-.5-2.372.745-2.372-.8-2.373.124-2.373.692-2.374-.777-2.374.935-2.373-.426-2.373.453-2.374-.018-2.4-.968-2.177.75-.656,2.2.923,2.38-.831,2.381.735,2.38-.148,2.381-.494,2.381-.217,2.381-.036,2.38.552,2.382.341,2.381-.544,2.381.161,2.378.26,2.381-.276,2.38.469,2.382-.958,2.38.123,2.382.421,2.382.325,2.383-.571,2.383-.188,2.382.282,2.382.705,2.383.026,2.387-.53,2.335,2.318.407,2.371-.34,2.372-.065,2.371-.221,2.372-.068,2.372-.231,2.372.788,2.372-.264,2.372.063,2.372.372,2.372-.333,2.369-.231,2.372-.328,2.371.7,2.373-.081,2.371-.258,2.373-.31,2.373-.006,2.374.1,2.374.225,2.373.35,2.373.318,2.374-1,2.378.27,1.988-.193.081-1.991.834-2.38.049-2.381-.277-2.38Zm-38.013-12.142a19.892,19.892,0,0,1-2.15-4.1l-1.62-4.052.129,4.362c.056,1.911.056,1.911.112,6v11.259c0,2.443.089,4.706.253,6.487h-7.176c.163-1.779.253-4.041.253-6.487v-6.924c0-1.618.038-3.007.082-4.639l.167-6.281-1.645,4.934a26.726,26.726,0,0,1-3.338,7.071,35.031,35.031,0,0,0-2.943-7.289,37.214,37.214,0,0,0,7.1-15.2l.2-.932H269.69a20.688,20.688,0,0,0-2.829.145v-6.555a21.252,21.252,0,0,0,2.829.133h3.42v-4.432a41.489,41.489,0,0,0-.221-5.137h7.178a46.056,46.056,0,0,0-.231,5.137v4.432h2.519a22.033,22.033,0,0,0,2.434-.1v6.479a19.7,19.7,0,0,0-2.209-.1h-2.925l.4,1.05a24.394,24.394,0,0,0,6.1,8.9A33.354,33.354,0,0,0,283.365,388.112Zm30.952,19.6a31.317,31.317,0,0,1-9.84-9.588l-.814-1.285-.459-.818a34.9,34.9,0,0,1-4.532-12.273l-.128-.618h-3.6v15.787l.923-.182c3.673-.724,4.514-.942,6.867-1.589l.3-.082L303.1,403a112.945,112.945,0,0,1-15.7,4.126l-2.412.507-1.09-7.037a29.357,29.357,0,0,0,3.489-.39l.662-.1V363.3c0-2.328-.038-3.782-.146-5.172,1.441.111,2.9.149,5.339.149h16.38c2.466,0,3.934-.038,5.336-.147-.108,1.357-.143,2.768-.143,5.226v14.692c0,2.614.037,3.8.149,5.2l-.374-.027c-.29-.021-3.433-.09-3.433-.09h-6.573l.233.957a19.066,19.066,0,0,0,1.571,4.535l.4.852.76-.555a28.16,28.16,0,0,0,5-4.482l4.9,4.6c-1.581,1.269-4.656,3.7-6.569,4.974l-.777.518.653.667a23.871,23.871,0,0,0,7.655,5.507A36.728,36.728,0,0,0,314.317,407.711Z" fill="#2d8240"/>
    </g>
    <g id="Group_179" data-name="Group 179">
      <path id="Path_589" data-name="Path 589" d="M336.567,376.95h5.988l7.3,12.554h8.194l-8.4-13.92a10.713,10.713,0,0,0,6.934-10.558c0-7.406-5.411-12.291-14.445-12.291H329.266V389.5h7.3Zm0-17.386h6.513c3.992,0,5.936,2.574,5.936,5.462,0,2.784-1.891,5.411-5.936,5.411h-6.513Z" fill="#2d8240"/>
    </g>
    <g id="Group_180" data-name="Group 180">
      <path id="Path_590" data-name="Path 590" d="M379.477,352a19.12,19.12,0,1,0,19.12,19.12A18.751,18.751,0,0,0,379.477,352Zm0,31.043c-6.723,0-11.451-4.885-11.451-11.923,0-7.091,4.728-11.924,11.451-11.924,6.776,0,11.5,4.833,11.5,11.924C390.981,378.158,386.253,383.043,379.477,383.043Z" fill="#2d8240"/>
    </g>
    <g id="Group_181" data-name="Group 181">
      <path id="Path_591" data-name="Path 591" d="M422.44,390.239a19.12,19.12,0,1,0-19.067-19.119A18.794,18.794,0,0,0,422.44,390.239Zm0-31.043c6.776,0,11.5,4.833,11.5,11.924,0,7.038-4.727,11.923-11.5,11.923-6.723,0-11.451-4.885-11.451-11.923C410.989,364.029,415.717,359.2,422.44,359.2Z" fill="#2d8240"/>
    </g>
    <g id="Group_182" data-name="Group 182">
      <path id="Path_592" data-name="Path 592" d="M454.524,389.5h7.3v-29.94H473.38v-6.829H443.073v6.829h11.451Z" fill="#2d8240"/>
    </g>
    <g id="Group_183" data-name="Group 183">
      <path id="Path_593" data-name="Path 593" d="M490.718,383.726a8.33,8.33,0,0,1-8.3-6.408l-7.039,1.891c2,6.671,7.3,11.03,15.023,11.03,8.4,0,14.077-4.675,14.077-11.241s-6.146-9.4-11.5-11.24c-4.623-1.576-8.772-2.626-8.772-5.568,0-2.206,2.154-3.834,5.515-3.834a7.222,7.222,0,0,1,7.3,5.567l7.039-1.943c-1.576-5.778-7.039-9.98-13.919-9.98-7.774,0-13.447,4.885-13.447,10.61,0,6.408,5.462,8.667,9.822,10.243,5.2,1.839,10.19,2.731,10.19,6.461C496.706,381.782,494.658,383.726,490.718,383.726Z" fill="#2d8240"/>
    </g>
    <g id="Group_184" data-name="Group 184">
      <path id="Path_594" data-name="Path 594" d="M341.415,407.255a6.332,6.332,0,0,1-5.7,3.4,6.468,6.468,0,1,1,5.466-9.954l.068.116,1.61-.416-.115-.2a7.969,7.969,0,0,0-7.029-4.047,8.047,8.047,0,1,0,7.251,11.6l.089-.192-1.575-.442Z" fill="#2d8240"/>
    </g>
    <g id="Group_185" data-name="Group 185">
      <path id="Path_595" data-name="Path 595" d="M357.18,403.094h-8.634v-6.636h-1.589v15.488h1.589V404.64h8.634v7.305h1.611V396.458H357.18Z" fill="#2d8240"/>
    </g>
    <g id="Group_186" data-name="Group 186">
      <path id="Path_596" data-name="Path 596" d="M374.738,405.671c0,3.4-1.518,5.052-4.641,5.052-3.094,0-4.663-1.7-4.663-5.052v-9.213h-1.589v9.17c0,4.283,2.22,6.642,6.252,6.642s6.252-2.359,6.252-6.642v-9.17h-1.611Z" fill="#2d8240"/>
    </g>
    <g id="Group_187" data-name="Group 187">
      <path id="Path_597" data-name="Path 597" d="M391.615,401.306c0-2.991-2.2-4.848-5.733-4.848H381.4v15.488h1.589V406.11h2.891a7.947,7.947,0,0,0,.923-.052l3.6,5.888h1.824l-3.807-6.215A4.374,4.374,0,0,0,391.615,401.306Zm-5.668,3.344h-2.956v-6.645h2.956c2.527,0,4.036,1.234,4.036,3.3C389.983,403.4,388.474,404.65,385.947,404.65Z" fill="#2d8240"/>
    </g>
    <g id="Group_188" data-name="Group 188">
      <path id="Path_598" data-name="Path 598" d="M408.857,407.255a6.33,6.33,0,0,1-5.7,3.4,6.468,6.468,0,1,1,5.465-9.954l.069.116,1.609-.416-.115-.2a7.967,7.967,0,0,0-7.028-4.047,8.047,8.047,0,1,0,7.251,11.6l.089-.192-1.575-.442Z" fill="#2d8240"/>
    </g>
    <g id="Group_189" data-name="Group 189">
      <path id="Path_599" data-name="Path 599" d="M424.623,403.094h-8.634v-6.636H414.4v15.488h1.589V404.64h8.634v7.305h1.611V396.458h-1.611Z" fill="#2d8240"/>
    </g>
    <g id="Group_190" data-name="Group 190">
      <path id="Path_600" data-name="Path 600" d="M435.326,410.051v-4.9c0-.568-.018-1.337-.046-2.018a11.193,11.193,0,0,0,1.3,2.181l.116.162.107-.168a4.539,4.539,0,0,1,.677-.825l.09-.091-.085-.1a10.71,10.71,0,0,1-2.047-3.221h.708a9,9,0,0,1,1.087.068l.15.017v-1.377l-.155.024a6.573,6.573,0,0,1-1.082.066h-.816v-1.614a10.79,10.79,0,0,1,.083-1.726l.025-.156H433.9l.025.156a10.3,10.3,0,0,1,.083,1.743v1.6H432.9a7.689,7.689,0,0,1-1.152-.066l-.153-.022v1.375l.149-.017a10.371,10.371,0,0,1,1.156-.068h.934a13.51,13.51,0,0,1-2.766,5.582l-.083.094.089.089a3.676,3.676,0,0,1,.676.891l.1.17.12-.158a12.713,12.713,0,0,0,2.083-3.925c-.023.566-.033,1.123-.033,1.722v4.515a14.11,14.11,0,0,1-.1,1.949l-.022.153h1.556l-.03-.158A11.69,11.69,0,0,1,435.326,410.051Z" fill="#2d8240"/>
    </g>
    <g id="Group_191" data-name="Group 191">
      <path id="Path_601" data-name="Path 601" d="M443.506,407.913a16.692,16.692,0,0,0,2.894-2.279l.1-.1-.967-.946a14.537,14.537,0,0,1-.043-1.687v-3.648a15.527,15.527,0,0,1,.05-1.835l.02-.18-.178.032a10.04,10.04,0,0,1-1.673.083h-4.124a15.4,15.4,0,0,1-1.7-.067l-.157-.016.016.283c.031.526.061,1.022.061,1.632v11.024a10.645,10.645,0,0,1-1.708.263l-.16.011.363,1.471.139-.05c.192-.067.33-.1.528-.157.1-.026.208-.056.342-.094a42.854,42.854,0,0,0,4.916-1.394l.1-.035-.13-1.258-.159.054c-1.152.389-1.793.588-2.912.871V404.72h1.529a11.563,11.563,0,0,0,1.844,3.95,11.9,11.9,0,0,0,3.653,3.192l.111.069.072-.11a4.164,4.164,0,0,1,.76-.943l.137-.13-.167-.087A10.385,10.385,0,0,1,443.506,407.913Zm-4.379-9.354h5.061v1.836h-5.061Zm0,4.976V401.6h5.061v1.938Zm2.807,1.185h1.777a15.153,15.153,0,0,1,1.6.058,9.748,9.748,0,0,1-2.5,2.117A7.831,7.831,0,0,1,441.934,404.72Z" fill="#2d8240"/>
    </g>
    <g id="Group_192" data-name="Group 192">
      <path id="Path_602" data-name="Path 602" d="M463.779,406.06l.175.02-.028-.174a8.061,8.061,0,0,1-.066-1.3v-3.259a7.933,7.933,0,0,1,.066-1.252l.028-.173-.175.019a13.735,13.735,0,0,1-1.564.067h-2.043a12.852,12.852,0,0,0,.5-1.514h2.137c.6,0,1.248.031,1.769.085l.148.015v-1.44l-.153.021a12.841,12.841,0,0,1-1.781.083h-7.06a9.984,9.984,0,0,1-1.593-.083l-.169-.024.016.17c.063.653.1,1.494.1,2.193l-.016,2.289a28.472,28.472,0,0,1-.675,6.144,9.155,9.155,0,0,1-1.2,2.8l-.072.112.111.074a3.2,3.2,0,0,1,.889.772l.123.143.1-.163c1.478-2.549,2.054-5.746,2.054-11.4v-1.784h3.929a6.267,6.267,0,0,1-.483,1.514h-.865a13.924,13.924,0,0,1-1.6-.067l-.163-.019.013.163c.035.422.051.832.051,1.33v3.31a7.39,7.39,0,0,1-.066,1.184l-.028.172.173-.018a13.431,13.431,0,0,1,1.43-.067h1.6v4.346c0,.278,0,.307-.375.307a9.833,9.833,0,0,1-1.542-.135l-.222-.032.076.211a3.443,3.443,0,0,1,.23,1.035l.009.113.114.009c.4.034,1.081.052,1.42.052a2.614,2.614,0,0,0,1.055-.148,1.106,1.106,0,0,0,.555-1.107v-4.651h1.733A11.141,11.141,0,0,1,463.779,406.06Zm-6.232-4.9h5.043v1.208h-5.043Zm0,3.669v-1.31h5.043v1.31Z" fill="#2d8240"/>
    </g>
    <g id="Group_193" data-name="Group 193">
      <path id="Path_603" data-name="Path 603" d="M452.681,406.262,451.6,405.5l-.05.184a14.232,14.232,0,0,1-2.223,5.032l-.1.1,1.2,1.078.079-.156a24.607,24.607,0,0,0,2.148-5.386Z" fill="#2d8240"/>
    </g>
    <g id="Group_194" data-name="Group 194">
      <path id="Path_604" data-name="Path 604" d="M458.068,406.806l-1.247-.408-.032.144a7.434,7.434,0,0,1-.668,2.007,7.744,7.744,0,0,1-1.221,1.823l-.1.118.132.082a3.117,3.117,0,0,1,.8.671l.109.121.1-.129a10.962,10.962,0,0,0,2.093-4.3Z" fill="#2d8240"/>
    </g>
    <g id="Group_195" data-name="Group 195">
      <path id="Path_605" data-name="Path 605" d="M451.954,404.121l.111.109.843-1.136-.087-.082a14.288,14.288,0,0,0-2.755-2.088l-.1-.06-.853,1.023.133.081A12.05,12.05,0,0,1,451.954,404.121Z" fill="#2d8240"/>
    </g>
    <g id="Group_196" data-name="Group 196">
      <path id="Path_606" data-name="Path 606" d="M462.953,406.527l-.045-.131-1.169.454.044.123a13.691,13.691,0,0,0,2.244,4.229l.1.132.107-.128a3.151,3.151,0,0,1,.821-.756l.128-.087-.1-.114A9.485,9.485,0,0,1,462.953,406.527Z" fill="#2d8240"/>
    </g>
    <g id="Group_197" data-name="Group 197">
      <path id="Path_607" data-name="Path 607" d="M450.922,396.822l-.09-.064-.966.923.141.093a10.224,10.224,0,0,1,2.45,2.182l.1.11.955-.976-.087-.094A14.152,14.152,0,0,0,450.922,396.822Z" fill="#2d8240"/>
    </g>
    <g id="Group_198" data-name="Group 198">
      <path id="Path_608" data-name="Path 608" d="M483.786,407.317a13.173,13.173,0,0,0,1.4-3.29,16.9,16.9,0,0,0,.587-3.359,5.7,5.7,0,0,1,1.025.1l.158.028V399.35l-.159.029a7.887,7.887,0,0,1-1.588.1H482.4c.166-.581.411-1.539.527-2,.135-.505.135-.505.2-.725l.043-.139-1.449-.319-.01.156a11.591,11.591,0,0,1-.387,2.115,12.752,12.752,0,0,1-2.485,5.411l-.086.105-.476-.5-.072.013a5.839,5.839,0,0,1-1.2.066h-1.471c.656-.514,1.193-1,1.643-1.429h1.44a6.839,6.839,0,0,1,1.115.066l.157.026V401.01l-.161.033a5.906,5.906,0,0,1-1.111.065h-.354a22.116,22.116,0,0,0,2.4-3.2l.088-.128-1.294-.625-.05.141a8.1,8.1,0,0,1-1.1,1.913v-1l-.163.035a5.449,5.449,0,0,1-1.075.066h-.765v-.477a4.731,4.731,0,0,1,.1-1.221l.044-.169h-1.524l.03.16a6.271,6.271,0,0,1,.1,1.213v.494h-1.173a6.743,6.743,0,0,1-1.362-.082l-.164-.037v1.325l.154-.023a8.8,8.8,0,0,1,1.355-.066h1.19v1.683h-1.75a8.1,8.1,0,0,1-1.468-.1l-.16-.03v1.33l.149-.016a14.519,14.519,0,0,1,1.462-.067h2.174a20.333,20.333,0,0,1-4.066,2.58l-.186.091.159.132a2.822,2.822,0,0,1,.653.736l.068.1.108-.059c.809-.438,1.173-.647,1.826-1.07H477a6.754,6.754,0,0,1-1.119.987h-.53l.035.162a5.261,5.261,0,0,1,.065,1.091c-1.214.132-2.639.224-3.192.224-.164,0-.35,0-.531-.016l-.172-.016.218,1.391.223-.038a5.208,5.208,0,0,1,.731-.085c1.263-.1,1.731-.147,2.275-.2l.448-.042V410.3c0,.193,0,.222-.29.222a12.063,12.063,0,0,1-1.779-.151l-.207-.031.058.2a3.581,3.581,0,0,1,.181,1.02l.005.118.117.011c.47.045.954.068,1.438.068,1.29,0,1.747-.192,1.747-1.271v-2.446c1.021-.14,1.571-.226,2.962-.477l.11-.02v-1.226l-.16.032c-1.28.253-1.761.327-2.912.471v-.391a12.5,12.5,0,0,0,1.78-1.622c.218-.235.218-.235.32-.336l.159-.16-.2-.216.088.066a2.774,2.774,0,0,1,.736.7l.107.148.109-.146a13.231,13.231,0,0,0,1.073-1.643,17.942,17.942,0,0,0,1.412,3.995,11.308,11.308,0,0,1-4.286,3.61l-.178.1.158.127a2.969,2.969,0,0,1,.767.9l.071.119.117-.076a14.711,14.711,0,0,0,4.058-3.525,12.9,12.9,0,0,0,3.288,3.536l.122.094.077-.133a2.891,2.891,0,0,1,.783-.931l.142-.117-.154-.1A10.937,10.937,0,0,1,483.786,407.317Zm-7.474-7.892h.816a9.321,9.321,0,0,1,.99.045,17.52,17.52,0,0,1-1.436,1.638h-.37Zm5.4,2.035c.132-.336.173-.441.3-.8h2.474a13.447,13.447,0,0,1-1.409,5.288A16.123,16.123,0,0,1,481.713,401.46Z" fill="#2d8240"/>
    </g>
    <g id="Group_199" data-name="Group 199">
      <path id="Path_609" data-name="Path 609" d="M502.071,410.373v-2.342a11.722,11.722,0,0,1,.067-1.544l.023-.176-.176.026a11.833,11.833,0,0,1-1.61.066h-5.736c-.587,0-1.23-.015-2.15-.051l-.155-.006.016.154a14.736,14.736,0,0,1,.067,1.616v2.274a10.469,10.469,0,0,1-.1,1.543l-.02.152H493.7v-.645h7.08v.7h1.41l-.022-.154A10.859,10.859,0,0,1,502.071,410.373Zm-1.287-.016H493.7v-.919h7.08Zm0-1.985H493.7v-.886h7.08Z" fill="#2d8240"/>
    </g>
    <g id="Group_200" data-name="Group 200">
      <path id="Path_610" data-name="Path 610" d="M505.3,400.587a17.751,17.751,0,0,1-7.459-4.275l-.04-.041h-1.291l-.04.047a7.139,7.139,0,0,1-.815.867,19.187,19.187,0,0,1-2.206,1.583,20.246,20.246,0,0,1-4.217,1.923l-.2.067.143.152a3.175,3.175,0,0,1,.638.949l.054.117.119-.049c.564-.232,1.04-.437,1.469-.633.043.515.06.924.06,1.476V404.2a11.915,11.915,0,0,1-.084,1.476l-.022.172.171-.02a12.473,12.473,0,0,1,1.546-.068h8.214c.653,0,1.189.018,1.549.051l.158.015-.012-.159c-.031-.42-.05-.82-.05-1.517v-1.358c0-.58,0-.591.051-1.589.486.227,1.005.457,1.56.7l.127.053.051-.127a2.91,2.91,0,0,1,.588-1.015l.135-.158Zm-8.114-3.227a16.515,16.515,0,0,0,2.4,1.947,8.351,8.351,0,0,1-.894.036h-2.834a9.059,9.059,0,0,1-.929-.033A15.125,15.125,0,0,0,497.187,397.36Zm-4.433,7.329v-2.5h1.813l-1.015.475.1.132a7.5,7.5,0,0,1,.985,1.787l.043.1Zm3.787,0h-1.792l1.02-.5-.059-.121a11.489,11.489,0,0,0-1.046-1.8l-.054-.077h1.931Zm1.2,0v-2.5h2.073l-.054.114a7.563,7.563,0,0,1-1.119,1.77l-.106.128.913.486Zm4.009,0h-2.168l.029-.034a9.126,9.126,0,0,0,1.22-1.788l.064-.119-1.049-.557h1.9Zm-.494-3.581h-8.112c-.489,0-.889-.009-1.233-.028a21.823,21.823,0,0,0,1.931-1.064c.2-.124.4-.244.576-.362v.883l.157-.028a6.62,6.62,0,0,1,1.284-.083h2.851a6.458,6.458,0,0,1,1.2.083l.158.029v-.922a26.41,26.41,0,0,0,2.694,1.452C502.266,401.108,502.019,401.108,501.258,401.108Z" fill="#2d8240"/>
    </g>
  </g>
</svg>
