<svg id="Layer_1" data-name="Layer 1" xmlns="http://www.w3.org/2000/svg" xmlns:xlink="http://www.w3.org/1999/xlink" viewBox="0 0 720 432"><defs><style>.cls-1{fill:#8dc63f;}.cls-2{fill:url(#New_Gradient_Swatch_2);}.cls-3{fill:none;stroke:#fff;stroke-linecap:round;stroke-linejoin:round;stroke-width:0;}.cls-4{fill:#1a6887;}.cls-5{fill:#4d4d4d;}</style><linearGradient id="New_Gradient_Swatch_2" x1="332.15" y1="184.5" x2="388.21" y2="294.06" gradientUnits="userSpaceOnUse"><stop offset="0" stop-color="#62bb46"/><stop offset="1" stop-color="#00aa4f"/></linearGradient></defs><title>Church_network_Logos</title><path class="cls-1" d="M320.64,278.27c.78.23,2.34.94,2.9.31C322.65,277.34,322,277.93,320.64,278.27Z"/><path class="cls-1" d="M336.11,261.81a.75.75,0,0,1-.28-.2C335.81,261.77,335.46,261.91,336.11,261.81Z"/><path class="cls-1" d="M298.06,264.17c0-.51-.47-.95-2.57-.63l.72.72A14,14,0,0,1,298.06,264.17Z"/><path class="cls-1" d="M412,280.89c-1.83.58.83,1.38-2.76.76.73.92,1.5,2.08,3.2,1.05a1.66,1.66,0,0,0,.14.31l1.4-1.4A4.49,4.49,0,0,0,412,280.89Z"/><path class="cls-1" d="M349.47,226.47a.64.64,0,0,0-.21-.05C347.93,226.63,349.05,226.5,349.47,226.47Z"/><path class="cls-1" d="M354.79,260.09c-.88.14-2.24.29-3.57.36l-.46.75a10.66,10.66,0,0,0,2.74-.56A10.14,10.14,0,0,1,354.79,260.09Z"/><path class="cls-1" d="M349.57,226.46h-.1l.06,0C349.73,226.45,349.79,226.42,349.57,226.46Z"/><polygon class="cls-1" points="349.53 226.5 349.51 226.5 349.54 226.5 349.53 226.5"/><path class="cls-2" d="M302,260.07c-.71.1-1.08.25-1.41,0,1.74.23,5.71-.81,4.68-1.13l-.71.1c4.67-.93,14.3-2.21,15.21-1a5.65,5.65,0,0,0-1.2-1.71l4.55,1.55,4.53,1.47c-.92-1,1.5-4-2.5-4l-.15,0-.95,2.08-2.91-2.07a5.39,5.39,0,0,0,3.86,0l0-.06h.12a14.79,14.79,0,0,1,4.87-.67c-.74.26-1.65,1.85-.59,1.79,2.67-1.64,1.88-1,5.25-2.49-1.11.4.43,1.87,2.22,1.54-.32-.21-.1-1.65-.79-1.72l4.75.92c-1.17-.11-.41-1.32.52-1.91-.41.38,3.89-.6,5.12-.62l-1.85.64c5-1,5.36,1.41,10.38.56-.66-.21-1.8-1.68.74-2.23,1.29.61,5.75,2.87,10.29,2.67l.79-.55,3.49-.11c-2.3-.68-8.63-2.06-12-2.56,1.84-.6.45-.57,3.3-.93.95-.53-1.64-.39-2.48-.3l6.58-1.16c-.16.9,5.19.12,5,.84l-3.65.1-3.66.07c-.16.91,4.53,1.82,9.19.9,1.13-.51-1.13-1.31-1.08-1.6a17,17,0,0,0,4.92-.43l-2.06-.11c2.55-.71,4.43.37,7.4-.93,1.06-.24,3-1.56,3.27-1.15-1.56,1.19-1.39,4-.08,4.39a59.66,59.66,0,0,0,6.6-2.78c1.58-1.06-3-.93-1.65-1.85-.07-.12.24-.3,1.31-.59a6.63,6.63,0,0,0-1.31.59c.12.19,1.13.21,1.55.19.47-.2.31-.33.32-.46s.23-.27.87-.4c.32.31,1.13.06,1.54-.1.21-.08.33-.13.31-.09a3.2,3.2,0,0,1-.68.53,5.07,5.07,0,0,0,1.73-.57l1.58-.9c.12.12.46.17,1,.13a5,5,0,0,0,2-.57,1.38,1.38,0,0,0,.71-.77,1.52,1.52,0,0,0,0-.21.73.73,0,0,0-.07-.19,2,2,0,0,0-.25-.33,5,5,0,0,0-1.33-1c-.11.11-.9,0-1.34,0l.09,0c-.44,0-.37,0-.09,0-2.42-.73-4.29-1.15-6-1.53l-5.91-1.3c-.46.05-2.69-.26-1.81.22a12,12,0,0,0-2.59-.92c-2.83,0,3.11.75.9,1-.09-.41-3.52-1.28-5.5-1.86.72-.43,4.68.78,6.62,1.47.18-.76-3.15-2.35-7.94-3.5-3.82-.81-1.74.19-2.4,0a32.39,32.39,0,0,1-6.47-1.48,17.37,17.37,0,0,0-5.61-.94c-2.45.14-.22.82-.79,1.06,3.12.58,4.86.37,7,.69l-2.64-.17a22.69,22.69,0,0,0,4.2.75c-1,0-4.07-.39-7.58-.84s-7.46-.9-10.27-1c-1-.23-2.69-.54-1.86-.61l1.77.23c1.66-.15-3.3-.76-1-.69a82.67,82.67,0,0,0-8.28-1.29l-.68.31a13.34,13.34,0,0,1,3.1.32,31.8,31.8,0,0,0-3.26-.32,8.17,8.17,0,0,1-3.24-.81l1.15.13,1.16.1a31.71,31.71,0,0,1-3.59-1.27,8,8,0,0,1-1.41-.73,1.15,1.15,0,0,1-.56-.73c.26.27.32.27.37.36a.65.65,0,0,0,.61.15c-.09,0-.14.06-.14.11s0,0,0,.07l0,0,.15.08a11.42,11.42,0,0,0,2,.71c1.61.42,3.18.68,1.71.71,2.17-.12,3.65.41,6.48.2-.1.13-1,.18,1.45.33-.13-.06,0-.09.93.05l-.93-.05c.11.05.37.12.53.17h.17l1.38,0c.21,0,.3,0,.25,0-1.07-.11-.17-.05,0,0l1.49.15c-.62-.06-1.19-.09-1.74-.12-.22,0-.64,0-1.38,0h-.14c.11,0,.12,0-.05,0a6.44,6.44,0,0,0-1.28.1c1.19.44,5.18.78,6.49,1.1,1.49.09-.6-.23.23-.31l2,.47c.24-.31,4-.15.54-.71l3.15.32a32,32,0,0,1,6,.55c1.49.1,3.68.88,2.43.43l2.45.44,2.44.47.06-.09c4.88.65,9.84,2.27,15.52,2.72a30.53,30.53,0,0,0-3.33-.78c-1.77-.12-3.21,0-3.6-.44a32.48,32.48,0,0,1,3.6.44,11.68,11.68,0,0,1,4.1.86l-.77-.08c.8.23,1.61.48,2.56.73.48.13,1,.27,1.55.4l.89.2,1.44.35,1-.13,1.36.39,1.69.47.91.25.47.12a2.57,2.57,0,0,1,.37.16l1.4.68c1.89.89,2.32,1.87,2.35,2.29a2,2,0,0,1,.75,1.06,3.09,3.09,0,0,1,0,1.83,4.66,4.66,0,0,1-.95,1.65,7.29,7.29,0,0,1-2,1.6,29.92,29.92,0,0,1-6.48,2.45l-1.45.41-1.05.27c-.58.15-1.1.29-1.56.44l-.27-.52a63.53,63.53,0,0,1-8.15,1.43l.09-.55c-2.77.11-6.86,1.71-11.14,2.42a4.36,4.36,0,0,0,2.14-.36,22.85,22.85,0,0,1-7.84,1.51,26,26,0,0,0-7.53,1.12,7.32,7.32,0,0,0-2.78.47,1.43,1.43,0,0,1,.29,0l-.47.08c-.49.19-1,.4-1.55.59-1.56.77-3.25,1.87-3.15,1.23l.41-.68-.3,0c-1.25.46-1.09-.13-.48-.74a11.93,11.93,0,0,1-1.8-.1c-.88,1.24-3.52.22-4.77,1.62-.9-.39-5.85.55-7.3-.19a12.39,12.39,0,0,1-4.23.63l-.47,1-3.41-.68c-1.85.88-2.61,1.36-.56,1.73-4.84-.29-3.85.25-8-.18l.29.58c-1.42.22-3.82-.22-4.59.44-2,1.16-8.23,2.05-14.53,3.31l2.73,2.72a8.13,8.13,0,0,1,3.51-.25l-1.26.61c1.93.73,5.32-3.11,7.25-3.45.42-.21-.67-.3-1.26-.42,5-1.47.68,1.34,4.44,1.57.69-.76-.91-1.86,1.62-2.07,1.26-.66,7.38,2.27,10.83.75-.76.61-1.51,1.21.24,1.63,2.68.18,7.26-2.38,9.68-.49.34-.17.47-.33.49-.48-.72-.17-1.13-.36-1-.61.7.18,1,.38,1,.61,2.05.47,6.67.78,7.89,1.84,1-2,4.16-1.5,7.1-1s5.63,1.16,5.65-.72l6.32.28-.15-.39c4.05-.2,5.45.76,6.84,1.73.94-.24.28-.62.2-.83,5.94-.62,6.54-.45,11.39,1.73l.58-1.27c1.29.82,8.69-1.68,14.4.26a1,1,0,0,0-.59-.64c3.21,1,7.2.37,10.67.14s6.4,0,7.28,2.62l2.08.88,2.07.89c-4.08-.23-1.94,1.09-1.4,2l16.57-16.57a14.35,14.35,0,0,0,0-20.3L373.92,174.3a14.35,14.35,0,0,0-20.3,0l-61.86,61.86a14.36,14.36,0,0,0,0,20.3l3.55,3.54C297.82,259.09,299.29,261.51,302,260.07Zm86.17-12.37.14,1.15-.85-1Zm-13-12.67,2.77.63c.25.2-.52.16-1.55-.1C375.7,235.33,374.67,235.1,375.13,235Zm-.53,1.26c.25.18,3.94,1.2.44.49C374.78,236.58,372,236,374.6,236.29Zm-6.82-1.59v.52l-1.28-.4A4.18,4.18,0,0,0,367.78,234.7Zm-17.91,16c3.29-.79.93.73,3.88-.09.83.21-2.41.67-1.57.84l1.06.06a6.4,6.4,0,0,1-1.06-.06C350.12,251.38,349.09,251.73,349.87,250.69Zm-5.42-19.8a.92.92,0,0,0-.41-.19C344.26,230.76,344.43,230.82,344.45,230.89Zm-.26.24a28.91,28.91,0,0,1,3.26.37l-2.59-.17c.05-.05-.27-.12-.67-.2a15.7,15.7,0,0,1-2.05-.33C342.58,230.87,343.53,231,344.19,231.13ZM339,230.6l.9.17.91.15s-.65-.08-1.29-.2-1.28-.23-1.28-.23Zm42.59-11.1.72-.11s.93-.09,1.88-.27l.84-.18.07,0c.17,0,.31-.09.46-.14l.31-.12.26-.13-.26.13h0l-.13.06-.18.06c-.15.05-.29.1-.46.14H385l-.28.08-.29.06-.21,0-.42.08C382.71,219.39,381.59,219.5,381.59,219.5Zm1.66,0,.53-.09c.15,0,.23-.09.36-.13l.26,0,.64-.1c-.16,0-.05,0,.27-.09l.62-.22a2.94,2.94,0,0,0,.7-.43,3,3,0,0,1-.36.27,4.67,4.67,0,0,1-1.07.44l-.67.16-.39.08-.36.07a4.64,4.64,0,0,1-1.07.17Zm3-1,0,0h0Zm.12-.09.09-.06Zm.57-.28a.58.58,0,0,0,.09-.26.68.68,0,0,0,0-.14.64.64,0,0,1,0,.14,1.47,1.47,0,0,1-.82,1.06c-.58.3-1.09.48-.52.28a3.45,3.45,0,0,1-.62.2l-.56.13-.48.1a1,1,0,0,1-.36,0l.27-.1.87-.26.54-.13a5.44,5.44,0,0,0,1-.44,4.6,4.6,0,0,0,.38-.3A1.75,1.75,0,0,0,387,218.07Zm-3.1-2.26.45.11.13,0,.19.06.41.13a6.49,6.49,0,0,1,.9.36,2.22,2.22,0,0,1,.71.54,4.37,4.37,0,0,0-1.9-.94c-.19-.05-.23-.05-.05,0a8.7,8.7,0,0,1,1.24.53,10,10,0,0,0-1.65-.63,5.21,5.21,0,0,1-.77-.24c-.4-.17-.56-.25-.49-.24l.29.09.26.09A2.19,2.19,0,0,0,383.87,215.81Zm-2-.84c.31.1.74.24,1.46.51-.24-.06.15.11.19.12s-.25-.14-2-.72l.33.09C380.31,214.47,382.84,215.24,381.83,215Zm-48.28,11.82c.11,0,.07,0,0,.23a.86.86,0,0,0,.17.74A1,1,0,0,1,333.55,226.79Zm2,2.8-.71-.25a3,3,0,0,0,.33,0l.33,0,.37.27.39.27Zm.79-.6c-.2.19-1.75-.33-2.46-1a.61.61,0,0,0,.15.13C334.22,227.71,334.62,228.32,336.38,229Zm-1.55-2.27a1.68,1.68,0,0,1,.2-.29l.21.15A1.53,1.53,0,0,0,334.83,226.72Zm2.57-1.42s.39-.1.8-.18.81-.16.81-.16l.53.13-1.08.09C337.93,225.23,337.4,225.3,337.4,225.3Zm1.39,3.45c.07-.06.5-.08-.17-.23l1.07.26,1.09.23C339.72,228.82,339.33,228.81,338.79,228.75Zm14,1.8c-.78,0-.45-.43-.89-.35C351.11,229.74,357,231.16,352.82,230.55Zm4.43-7.68c-1.56.15-2.89.19-4.09.22-.67,0-1.34.08-2,.08.64,0,1.29-.06,2-.08,1.27-.09,2.62-.26,4.36-.55C358.47,222.57,356.24,222.9,357.25,222.87ZM367.9,221l-.89.09-.29,0,1.18-.05,2.4-.25c0,.05-.47.15.19.13Zm4.38-1c-.3,0-.41,0,.15-.05-.15,0-.14,0-.15.05.67,0,2.33-.09.26.16h-.33c-1.47.16-3.25.44-3.79.56l-.14,0c-.07,0,0,0,.14,0a14.13,14.13,0,0,1,2.1-.53,13.76,13.76,0,0,0,1.73-.08C373.2,220.05,372.24,220.1,372.28,220.05Zm-.39,1.1c-.13-.05.68-.22.83-.3l-2.28.12c2-.2,2.4-.19,2.28-.12l1.52-.09A17.83,17.83,0,0,0,371.89,221.15Zm3-1.05c1,0-.57.23,1.45.14C375,220.31,372.26,220.47,374.93,220.1Zm1.26-6.09-1.52-.26s-.33-.08-.66-.14l-.65-.13C374,213.59,376.29,214,376.19,214Zm-.72-.29c-.7-.08-2-.3-3.51-.54s-3.13-.44-4.45-.52l-.44,0-1.18-.19C369.1,212.69,373.24,213.31,375.47,213.72Zm-9.75,7.71h0l.89-.08a.37.37,0,0,1,.23,0l-.23,0a9.14,9.14,0,0,1-1.76.33l.87-.25-1.92.19Zm-1.18.58h-2.3l1,0Zm-3-9.75c.58,0,1.16.07,1.16.07s-.51,0-1-.06l-1-.05-.28,0Zm-3.78,9.13-.09.11c2.19-.23,1.72-.07,2,0l-3.86.26Zm-13.38,1.1c.34,0,.71-.09,1.05-.11l-.08.13C344,222.7,343,222.76,344.43,222.49Zm-11,3.07a6,6,0,0,1,.85-.51,11.18,11.18,0,0,1,1.28-.56c0-.08-1,.24-.26-.14a7.12,7.12,0,0,0,1.82-.34c1-.24,2.2-.53,3.34-.87,2.32-.24.91.68-.92,1.52l.05,0s1.14-.28,2.31-.5,2.35-.42,2.35-.42l-.33,0,1-.13c1-.18,2.17-.35,4.34-.6-.79-.12-3.12.1-1.73-.32a25.26,25.26,0,0,1,3.73-.18c-4.6.49,1.34-.05-2,.47l2.49-.24c1.36-.2,2.77-.37,4.12-.5-.09,0-.1,0,.23-.06a13.92,13.92,0,0,1,2.24-.16c.63,0,1.21-.08,1.72-.1.14,0,.25-.05.23,0h-.23c-.13,0-.25.06-.34.08h.15c-.33.07-.29,0-.15,0-.54,0-1,0-1.38,0-.77.06-1.59.13-2.47.22.2,0,.8.08-.67.23-1,0-2.18.14-3.45.27-.83.12-1.62.25-2.37.38a11.16,11.16,0,0,1-1.76.36c.53-.12,1.13-.24,1.76-.36l.1,0-2.3.24-2.29.27a25.74,25.74,0,0,0-3.25.86,7.22,7.22,0,0,1-2,.17l-.24.05.19-.08c-.08-.06-.14-.22-2.37.3a20.38,20.38,0,0,1,2.5-.87c.91-.28,1.49-.49.49-.38a12.34,12.34,0,0,0-2.56.62c-.4.17-.61.31-1.28.61.55-.33-.42-.17-1.4.21a12.58,12.58,0,0,0-1.29.57c-.35.17-.59.3-.56.13A2.09,2.09,0,0,1,333.47,225.56Zm4,61.45-.34,1.84a6.53,6.53,0,0,0,2.83-1.67c2.48,2.33-5,.91-2.67,3.55.89-2,4.06-2.46,7.12-3s6-1,6.54-3.07c2.77-.35-.54,2.08,2.22,1.72l.59-1.15.88,1.29a3,3,0,0,0,2.47-2.78,5.66,5.66,0,0,1-1.76-.14c-.11.09-.25.14-.35.23-.06-.21.1-.24.35-.23,2-1.41,6.07-.44,7.23-.69l-2.37.85c7.65.16,16.7-2,24.16-.58l-.47.81c5.67.93,4.35-1.23,10.48-1.09l-.23-.16a8,8,0,0,0,4.59.67c-1.61-.76,2.73-1.94.63-2.75,6.13,1,3.08.94,7.28,3.36l.8-1.3c.48.33.82.62,1.17.85l2.37-2.37h0l.3-.3c-1.55-.1-3.14-.63-4-.74a4,4,0,0,0,1.44-.14l-2.52-1.22-2.54-1.2c-.87.41-.25.87.36,1.33-1-.26-1.72-.93-3.28-1.2.31,1.1.13,2.18,2.28,2.92l-2.44-.85-2.44-.83c-.38.42-2.66,1-2,1.46-2.8.34-6.67-2.63-10.42-2.08a.44.44,0,0,1,.11.23l1.25,1.26c-2-.16-1.12-.68-1.25-1.26l-.23-.23h.12a2.49,2.49,0,0,0-1.33-.63c-3.49,0-6.62,1-10.69-.57l-2.41,1.66c-3.22-.57,3.25-2.09-2.12-3-3.81-.73-1.47,1.44-2.82,1.86-1.87-1-5.15-2.88-8.69-1.59a17.43,17.43,0,0,0,3.16.31l-2.7.86c3.2,1.69,5.53,1.27,3,2.51-.3-3.37-10.38-.77-10.71-4l-1.78.64c.51,0,.59.17,1.09.15-3.45,1.46-2.53-2.41-7-2-1.54.22-2.62.66-1.57,1.05l1.13.29a5.57,5.57,0,0,1-1.13-.29l-3.45-.83c-.83,0-.79.42-.18.52l-4.83-.29,0,.09c.39.25.54.43.21.45l-.21-.45a23.61,23.61,0,0,0-3.28-1.59c-1.34.44.67.34.33.72l-2.92-.76c-1.18.78,1.24,1.57,3.25,1.48-2.71,3-2.42-.8-8.29.94l2.76.41c-1.76,1.7-3.91,1.05-7,2.07.73-.53,6.2-2.61,3-3.39a6.29,6.29,0,0,1-3.78-.28c0,1.06-1.67.79-3.76.72l.16,1.39a5.49,5.49,0,0,1-1.6-.5l14.57,14.57,1.69-.59C330.54,289.27,333.34,288.14,337.47,287Zm28.21-7.45c1.73-.05,2.73-1.29,2.44.32a19.94,19.94,0,0,1-2.44-.32,2.82,2.82,0,0,1-.7-.05A5.62,5.62,0,0,1,365.68,279.56Zm-21.42-3.78-.45,1.35-.5,0Zm-29.57,2-.17-.34c.33-.37.83-.39,1.84-.44Z"/><path class="cls-1" d="M361.09,234.83c1.76.06,1.13,0-.08,0Z"/><path class="cls-3" d="M385.1,222.28l.46-.15"/><path class="cls-4" d="M181,338.91l2.06.76a4.11,4.11,0,0,0,1.52.54l1.52.23,1.76.38,2.36.15.91.15,1.14-.07h1.91a2.83,2.83,0,0,0,.38-.08l.91-.23,1.68-.53a16.2,16.2,0,0,0,4-2l2.89-1.68,3.88-3.2,2.52-2,1.06-1.44a3.12,3.12,0,0,1,.61-.76,2.32,2.32,0,0,1,.23-.92l.84-1.67-.08-.84.31-2.21-.46-1.14-.23-1.14a7.23,7.23,0,0,0-.61-1.38,1.13,1.13,0,0,1-.11-.34,1.49,1.49,0,0,0-.19-.42,1.21,1.21,0,0,1-.46-.3l-1.22-1.6-.83-.76-1.07-1.37-1-.54-1.37-1.44-.84-.38a2.82,2.82,0,0,1-1.07-.92l-.38-.49a2.92,2.92,0,0,0-.23-.27L201.67,310l-1.3-1.52-.84-.38-1.37-2-.68-.61c-.26-.15-.41-.58-.46-1.29a2,2,0,0,0,0-.38c0-.16-.06-.36-.11-.61a1,1,0,0,1-.38-.69.66.66,0,0,1,.07-.3l.31-2,.68-1.68.31-1a4.5,4.5,0,0,1,1.22-1.56,2.49,2.49,0,0,1,1.6-.72l.83.07,1.22-.45h.69l1-.16,1.45.16,3-.16,1.3.23,2.2.46a10.51,10.51,0,0,1,1.15.46,10.88,10.88,0,0,1,1.21.61,2.05,2.05,0,0,1,.77,1.82v.42a2.37,2.37,0,0,1-.08.57,1,1,0,0,0,.91-.53,13.78,13.78,0,0,1,.84-1.45c.26-.5.48-1,.69-1.37a11.84,11.84,0,0,0,.53-1.22,10.35,10.35,0,0,0,.46-1.06,1.61,1.61,0,0,1,.3-.61,6.06,6.06,0,0,0,.69-1.07,2,2,0,0,0,.07-.61V291l-.45-.11a1.15,1.15,0,0,0-.31,0l-1.83-.5c-.45-.12-.82-.21-1.1-.26l-.8-.12q-.39,0-1,0l-5.25-.16-1.38.23-2.2.31a11.67,11.67,0,0,0-3,1.14,38.11,38.11,0,0,0-4.3,2.51,14.36,14.36,0,0,0-1.68,1.22l-3.5,3.27-1,.84-.08.38L191,300.91l-.22.69-.54,1.06-.23,1-.45,1.76.15,1.21v1a1.66,1.66,0,0,0,.19.46l.49,1,.61,1.3c.05.05.17.17.35.38a6.13,6.13,0,0,0,.72.68l2.74,2.74c.56.56,1.21,1.16,1.94,1.79s1.62,1.31,2.63,2l1,.76.73.61c.22.2.49.47.79.8L203,321.4a16.88,16.88,0,0,1,1.75,2.21,7.49,7.49,0,0,1,.76,1.82,22,22,0,0,1,.61,2.82,8.64,8.64,0,0,1-.5,2.32,12.77,12.77,0,0,1-1,2.48c-.72,1.07-1.35,1.65-1.91,1.75l-1.6.53-1.14.31h-1.37l-1.07.15-2.13-.46-1.68.16-1.37-.54-1.67-.15-1.68-.68-1.21-.16-2-1.29-1.83-.91-.92-.92-.53-.46a1.11,1.11,0,0,1-.46-1,6.39,6.39,0,0,1,.08-1.14.94.94,0,0,0-.53-.15,1.44,1.44,0,0,0-.46.08l-2.51,8.68a4.54,4.54,0,0,0,.38.34.83.83,0,0,1,.23.27c.4.4.75.72,1,.95S180.8,338.81,181,338.91Z"/><path class="cls-4" d="M217.83,312.79a3.12,3.12,0,0,1-.5.31c0,.45.15.68.46.68a1.25,1.25,0,0,0,.76-.3l2.89-2a5.24,5.24,0,0,1,1.37-.08,6.16,6.16,0,0,1,.23,1.52l-.61,2.52L222.2,317l-.38,1.14-.61,1.6-.38.61-.76,2.67-1.67,3.5-1.15,4.95-1.52,4.27a4.65,4.65,0,0,0-.23,1.59q0,3.81,3.81,3.81a9.61,9.61,0,0,0,3.58-.76l2.36-1.29,1.75-.84,8.68-6.25a1.63,1.63,0,0,1,.27-.19,4.52,4.52,0,0,0,.49-.34l-.26.91a4.21,4.21,0,0,1-.19.54l-.46,2.05-.68,2.59.07.76V339a.32.32,0,0,0,.08.23l.3.45a7.26,7.26,0,0,0,.88,1.07,1.5,1.5,0,0,0,.95.23,6.47,6.47,0,0,0,3.35-1.22l5.33-3.65.69-.46a1.84,1.84,0,0,1,.34-.27.3.3,0,0,0,.19-.26c0-.16-.15-.31-.46-.46l-.41.27a1.19,1.19,0,0,0-.27.19l-.84.53a3.91,3.91,0,0,1-1.9.68,1.12,1.12,0,0,1-1-.76,4.31,4.31,0,0,1-.38-2A6.21,6.21,0,0,1,242,332l.46-1.52.08-.84,1.14-3.27.76-3.2,2.82-9.29.27-.53c.12-.26.29-.56.49-.92a15.92,15.92,0,0,0,1.07-2.28,26.15,26.15,0,0,0,.91-3.2,3.56,3.56,0,0,0-.68-.08l-4.5.15-.23,0a2.2,2.2,0,0,0-.53,0c-.1.41-.19.72-.27.95a3.88,3.88,0,0,1-.19.5l-.76,2.81a5.91,5.91,0,0,1-.26.88c-.13.33-.27.7-.42,1.1l-3.89,9.45-.91,2.36a4.76,4.76,0,0,1-.69,1.06,49.57,49.57,0,0,1-5,6.7,13.89,13.89,0,0,1-3.47,2.9,6.87,6.87,0,0,1-3.31,1.14,2,2,0,0,1-1.71-.84,3.18,3.18,0,0,1-.65-2.05,3.32,3.32,0,0,1,0-.57c0-.18.06-.4.11-.65l.46-1.45,1.37-5.18.46-1.41a17.92,17.92,0,0,1,.91-2.24c.25-.61.46-1.14.61-1.6l.38-1.14,2.89-9.14a7.89,7.89,0,0,0,.46-2.52c0-1.16-.53-1.75-1.6-1.75a.16.16,0,0,0-.11,0,.16.16,0,0,1-.12,0l-2.89,1.6-.61.23c-.1.05-.29.16-.57.34s-.65.44-1.11.8l-2.51,1.52-2.59,1.83A.55.55,0,0,0,217.83,312.79Z"/><path class="cls-4" d="M300.31,311.5l.08-1.07-.39-1.14a11.69,11.69,0,0,0-.68-1.6c-.1-.2-.41-.35-.91-.46a1,1,0,0,1-.35,0,1,1,0,0,0-.26,0,.3.3,0,0,1-.23-.08,5.84,5.84,0,0,0-1.26.23,15,15,0,0,0-2.09.76l-1.22.46a2.16,2.16,0,0,0-.54.3,6.66,6.66,0,0,0-.64.38,8.12,8.12,0,0,1-.8.46l-4,2.06-2.59,1.9L281,315.84l-.15.15a.62.62,0,0,1-.19.12.58.58,0,0,0-.27.19,4.93,4.93,0,0,1,.15-.61,1.36,1.36,0,0,0,.08-.38,12.34,12.34,0,0,0,.53-1.76,14.63,14.63,0,0,0,.46-1.79c.05-.33.1-.59.15-.8v-.07l-.07-.15a9.18,9.18,0,0,0-.46-2.21,3.27,3.27,0,0,0-1.22-1.07c-.1,0-.3-.18-.61-.38h-.83a5.54,5.54,0,0,0-1.26.11,13.88,13.88,0,0,0-1.56.65l-3.43,1.45-6.25,3.58-.53.3a1.84,1.84,0,0,0-.53.31l-1.75,1.37s0,.07-.08.07a.42.42,0,0,0-.15,0,.28.28,0,0,1-.15,0v-1l.91-3.2.08-1.67a2.9,2.9,0,0,1,0-.54,2.87,2.87,0,0,0,0-.38,1.89,1.89,0,0,0-.64-1.33,2,2,0,0,0-1.41-.65,7.2,7.2,0,0,0-1.91.31,6.06,6.06,0,0,0-1.75.76l-4.72,3.12-1.22.88a1,1,0,0,0-.23.64,1.91,1.91,0,0,0,.84-.15l.69-.53.64-.31a1.8,1.8,0,0,1,.73-.15,2.21,2.21,0,0,1,1.6.42,2.18,2.18,0,0,1,.3,1.56v2.06a4.54,4.54,0,0,1-.19,1c-.13.48-.29,1.08-.5,1.79l-1.52,5-5.79,16.15a1.18,1.18,0,0,0-.15.49c-.05.28-.13.65-.23,1.11h6.55c.05-.56.12-1,.19-1.45s.29-1.19.65-2.36l1.3-4.19c.25-.81.58-1.74,1-2.78s1-2.37,1.67-4c.41-.91.77-1.71,1.1-2.4s.68-1.38,1-2.09a23.79,23.79,0,0,1,2.13-3.43,38.75,38.75,0,0,1,2.82-3.35,9.92,9.92,0,0,1,2.63-1.94,6.16,6.16,0,0,1,2.7-.88,2,2,0,0,1,1.53.84,2.87,2.87,0,0,1,.68,1.83,15.81,15.81,0,0,1-.11,1.87,20.35,20.35,0,0,1-.73,2.85c-.3,1.17-.63,2.32-1,3.47s-.73,2.29-1.14,3.46l-.76,2.59-3.27,10.36-.61,1.52.45.15.92-.07h4.11a4.73,4.73,0,0,0,.91-.08,4.59,4.59,0,0,1,.23-.76l.69-3.5.83-2.67.84-2.66,1.22-2.9.31-1.29a2.62,2.62,0,0,1,.19-.46c.07-.15.24-.51.49-1.07.2-.4.39-.77.57-1.1a8.21,8.21,0,0,0,.5-1.11l1.83-3.5a6.41,6.41,0,0,1,1.75-2.28l2.13-1.91a29.08,29.08,0,0,1,2.51-2.09,4.91,4.91,0,0,1,1.53-.8,9.41,9.41,0,0,1,2.43-.46c1.27,0,1.91,1.09,1.91,3.28a14.31,14.31,0,0,1-1,4.95l-1.07,2.74-3.43,9.14-.15,1a5.93,5.93,0,0,1-.69,1.67,6,6,0,0,0-.53,1c-.1.28-.2.55-.3.8l-.38,1.37-.54,1.83v.07a1.48,1.48,0,0,0,.16.65c.1.23.2.47.3.73s.51.61.76.61a5.07,5.07,0,0,0,2.29-.84l2.28-1.22,4.57-2.51,2.36-1.3.69-.61-.08-.38a2.07,2.07,0,0,1-.53-.15,5.46,5.46,0,0,0-2.52,1.29,3.93,3.93,0,0,1-2.13.84.83.83,0,0,1-.53-.3,3.45,3.45,0,0,1,0-1.64c.07-.23.26-.83.57-1.79l.76-2.67.91-2.05,1-3.43.92-1.75.45-1.9,1.45-3.13,1.07-3.42a12.08,12.08,0,0,0,.42-1.22,4.75,4.75,0,0,0,.11-.54Z"/><path class="cls-4" d="M349.73,335.79l.69-.61-.08-.38a2.34,2.34,0,0,1-.53-.15,5.4,5.4,0,0,0-2.51,1.29,4,4,0,0,1-2.14.84.83.83,0,0,1-.53-.3,3.45,3.45,0,0,1,0-1.64c.07-.23.27-.83.57-1.79l.76-2.67.92-2.05,1-3.43.91-1.75.46-1.9,1.44-3.13,1.07-3.42a12.08,12.08,0,0,0,.42-1.22,4.75,4.75,0,0,0,.11-.54l-.15-1.44.08-1.07-.38-1.14a12.7,12.7,0,0,0-.69-1.6c-.1-.2-.41-.35-.91-.46a1,1,0,0,1-.35,0,1,1,0,0,0-.26,0,.3.3,0,0,1-.23-.08,6,6,0,0,0-1.26.23,15,15,0,0,0-2.09.76l-1.22.46a2,2,0,0,0-.53.3,5.71,5.71,0,0,0-.65.38,8.12,8.12,0,0,1-.8.46l-4,2.06-2.59,1.9-3.35,2.21-.15.15a.52.52,0,0,1-.19.12.64.64,0,0,0-.27.19,4.68,4.68,0,0,1,.16-.61,1.28,1.28,0,0,0,.07-.38,13.71,13.71,0,0,0,.54-1.76,16.06,16.06,0,0,0,.45-1.79c.05-.33.1-.59.15-.8v-.07l-.07-.15a8.72,8.72,0,0,0-.46-2.21,3.27,3.27,0,0,0-1.22-1.07c-.1,0-.3-.18-.61-.38h-.83a5.54,5.54,0,0,0-1.26.11,13.88,13.88,0,0,0-1.56.65l-3.43,1.45-4,2.28-2.27,1.3-.54.3a1.84,1.84,0,0,0-.53.31l-1.75,1.37s0,.07-.08.07a.42.42,0,0,0-.15,0,.28.28,0,0,1-.15,0v-1l.69-2.41.22-.79.08-1.67a2.9,2.9,0,0,1,0-.54,2.87,2.87,0,0,0,0-.38,1.89,1.89,0,0,0-.64-1.33,2,2,0,0,0-1.41-.65,7.2,7.2,0,0,0-1.91.31,6.06,6.06,0,0,0-1.75.76l-4.72,3.12-1,.69-.26.19a1,1,0,0,0-.23.64,1.91,1.91,0,0,0,.84-.15l.05,0,.64-.5.65-.31a1.72,1.72,0,0,1,.72-.15,2.21,2.21,0,0,1,1.6.42,2.18,2.18,0,0,1,.3,1.56v2.06a3,3,0,0,1-.1.66c0,.11-.05.23-.09.37-.13.48-.29,1.08-.49,1.79l-1.53,5-5.78,16.15a1,1,0,0,0-.16.49c-.05.28-.12.65-.22,1.11h6.54c.05-.56.12-1,.19-1.45s.3-1.19.65-2.36l1.3-4.19c.25-.81.58-1.74,1-2.78s1-2.37,1.67-4c.41-.91.77-1.71,1.11-2.4l1-2.09a23,23,0,0,1,2.14-3.43,36.92,36.92,0,0,1,2.81-3.35,9.87,9.87,0,0,1,2.31-1.76l.32-.18a6.15,6.15,0,0,1,2.71-.88,2,2,0,0,1,1.52.84,2.81,2.81,0,0,1,.68,1.83,13.94,13.94,0,0,1-.11,1.87,15.67,15.67,0,0,1-.52,2.15c-.06.23-.13.45-.2.7-.31,1.17-.64,2.32-1,3.47s-.74,2.29-1.15,3.46l-.76,2.59-3.27,10.36-.61,1.52.46.15.91-.07h4.11a4.84,4.84,0,0,0,.92-.08,5,5,0,0,1,.22-.76l.69-3.5.84-2.67.83-2.66,1.22-2.9.31-1.29a2.62,2.62,0,0,1,.19-.46c.07-.15.24-.51.49-1.07l.52-1a.47.47,0,0,0,.05-.1,8.21,8.21,0,0,0,.5-1.11l1.83-3.5a6.53,6.53,0,0,1,1.75-2.28l2.13-1.91a30.71,30.71,0,0,1,2.51-2.09,4.91,4.91,0,0,1,1.53-.8,9.48,9.48,0,0,1,2.43-.46c1.27,0,1.91,1.09,1.91,3.28a14.31,14.31,0,0,1-1,4.95L343,322.77l-3.43,9.14-.15,1a5.27,5.27,0,0,1-.57,1.46l-.11.21a5.48,5.48,0,0,0-.54,1c-.1.28-.2.55-.3.8l-.38,1.37L337,339.6v.07a1.61,1.61,0,0,0,.15.65c.1.23.2.47.3.73.26.4.51.61.76.61a5.07,5.07,0,0,0,2.29-.84l2.28-1.22,1.95-1.07,2.62-1.44Z"/><path class="cls-4" d="M364.37,333.51l-.69.68c-.33.32-.63.59-.92.82a3.27,3.27,0,0,1-1.74.93,1,1,0,0,1-.73-.38l0-.06a1.41,1.41,0,0,1-.31-.93,5.71,5.71,0,0,1,.16-1.06l1.29-4.42.3-1.75,1.07-2.82.53-2.28,1.07-2.75.23-1.6,1.44-3.73.16-1,.68-2.51c.05-.3.13-.89.23-1.75a5.18,5.18,0,0,1,.08-1c.05-.26.1-.48.15-.69a4.42,4.42,0,0,0,.23-1.14c0-.46-.33-.68-1-.68a1.77,1.77,0,0,0-.54.07l-1.14.38-1.83.61-3,2c-.26.15-.5.31-.73.46s-.46.3-.72.45c-.71.46-1.21.79-1.48,1a5.09,5.09,0,0,0-.57.45.6.6,0,0,0-.08.38v.31a7,7,0,0,1,.76-.23l1.52-.84a.92.92,0,0,1,.61-.15c.66,0,1,.46,1,1.37a3.59,3.59,0,0,1,0,.53c0,.21,0,.38,0,.54l-.69,2.59-.84,4.11-3.2,10.28-1.21,4.72-.76,2.36,0,0a5.83,5.83,0,0,0-.4,1.34,6.9,6.9,0,0,0-.12,1.14,2.1,2.1,0,0,0,.54,1.45,1.72,1.72,0,0,0,1.37.61,3,3,0,0,0,1.52-.53l5.86-4.11a9,9,0,0,0,2.4-2.08.92.92,0,0,0,.19-.51C364.9,333.91,364.72,333.71,364.37,333.51Z"/><path class="cls-4" d="M370,289.11a2.92,2.92,0,0,0-1.15.53L364,292.46a.91.91,0,0,1-.23.15,1.59,1.59,0,0,0-.46.31,3,3,0,0,0,.23.91,12.42,12.42,0,0,1,.46,2.89,4.61,4.61,0,0,1-.46,2,12.42,12.42,0,0,1-1.52,2.36,7.39,7.39,0,0,0,.88-.3l.64-.3a8.71,8.71,0,0,0,1.75-.77l1.3-.91,1.9-1.07a2.47,2.47,0,0,0,.69-.61c.2-.25.56-.73,1.06-1.44a3.94,3.94,0,0,0,1-3.2,8,8,0,0,0-.3-2.44C370.72,289.41,370.41,289.11,370,289.11Z"/><path class="cls-4" d="M377.41,325.66l.15-1.52a5.64,5.64,0,0,1,.68-1.83,12.65,12.65,0,0,0,1.07-2.66c.41-1.32.61-2,.61-2.06l.23-.57a.8.8,0,0,1,.15-.27l-.08-.76,1.15-2.82c.61-1.57,1.14-2.38,1.6-2.43l4.72-.31a7.23,7.23,0,0,0,1-.38c.71-.3,1.28-.56,1.71-.76l.8-.38,2.21-1.14a8.67,8.67,0,0,0,1-.5l.49-.3a.94.94,0,0,0,.27-.23l.23-.34a2.21,2.21,0,0,1-.53.07.86.86,0,0,0-.38.08c-.56.1-1.05.18-1.45.23a7.93,7.93,0,0,1-.84.07h-.08l-3.35-.23-1.29-.07c-.71.05-1.29.07-1.75.07H385c-.61,0-.94-.22-1-.68l.76-2,1.6-5.94.38-.95c.15-.38.4-.93.76-1.64l-.15-.23c-.41.15-.73.28-1,.38a10,10,0,0,0-1,.53c-.86.51-1.55.89-2,1.15a16.83,16.83,0,0,1-1.91.76c-.2.61-.35,1.12-.45,1.52l-1.15,2-.53,1.3a10.22,10.22,0,0,1-.72,1.25,7.09,7.09,0,0,1-1.11,1.18c-.86.76-1.57,1.41-2.13,1.94s-1,.91-1.22,1.11q-.84.61-1.41,1a17,17,0,0,1-1.86,1v.38a11.1,11.1,0,0,0,1.18.08h.87c.36-.05.59-.08.69-.08h.46a4,4,0,0,1,.49,0,7.21,7.21,0,0,1,.73.11l.91.08q-.15.76-.15.84l-.84,2.43-.31,1.37a4.18,4.18,0,0,1-.3.92q-.3.76-.84,2l-1.67,5.4-2.36,6.71c-.26.81-.5,1.72-.73,2.74,0,.19-.08.37-.11.54a9.39,9.39,0,0,0-.23,1.67.68.68,0,0,0,0,.26,1.1,1.1,0,0,1,0,.27l.22.69.16,1.59a2,2,0,0,0,.45,1l.46.38,1.29,1.22a1.18,1.18,0,0,0,.77.16l1.6.07a9,9,0,0,0,2.51-1.14l2.28-1.07,5.64-3.19a8.73,8.73,0,0,0,1.6-1,1.18,1.18,0,0,0,.46-.8c0-.46-.21-.69-.61-.69a.5.5,0,0,0-.38.15l-1.68,1.45a12.14,12.14,0,0,1-2.51,1.3,6.52,6.52,0,0,1-2.44.68,1.69,1.69,0,0,1-1.3-.76l-.68-1.14-.46-.76a1.22,1.22,0,0,1-.23-.84v-.61l.31-1.83-.08-1.43v0Z"/><path class="cls-4" d="M435.09,339.48a10.23,10.23,0,0,0,2-.72l2.36-1.52,3.12-1.75,2.05-1.91,1.22-1,.77-1,.26-.26a1,1,0,0,0,.19-.27.91.91,0,0,1,.15-.23c0-.15-.15-.38-.45-.68a2.72,2.72,0,0,1-.42.34,1.27,1.27,0,0,0-.34.27,24,24,0,0,1-2.17,1.86,5.19,5.19,0,0,1-1.64.8l-2.52.76c-.55.15-1,.28-1.29.38a3.12,3.12,0,0,1-.53.15l-1,.08-.38,0-.92.11a3.46,3.46,0,0,1-.65.08h-1.29a2.69,2.69,0,0,1-.65-.08L430,334.5l-1.41-.23a8.79,8.79,0,0,1-1-.23c-.35-.1-.76-.24-1.22-.42s-1.09-.44-1.9-.8a6.61,6.61,0,0,1-.61-.27l-.46-.22a3.19,3.19,0,0,1-.53-.38c-.2-.18-.51-.42-.91-.73l-.57-.45a1.45,1.45,0,0,1-.31-.35c-.07-.12-.18-.3-.3-.53s-.32-.55-.58-.95a1.87,1.87,0,0,1-.26-.35l-.27-.41h-.3a5,5,0,0,1-1.07-1.91l-.76-3.65-.3-.38a1.35,1.35,0,0,1-.16-.84c0-1.22,0-2.25.08-3.09s.13-1.68.23-2.55H417a3.29,3.29,0,0,1-.08-.61v-.45a5,5,0,0,1,.15-1.11c.1-.43.31-1.28.61-2.55s.44-1.89.57-2.32a3.38,3.38,0,0,1,.35-.88l.76-1.22.83-1.75a15.75,15.75,0,0,1,3.66-4.53,20,20,0,0,1,5.56-3.54l2.06-1,3.73-.76,1-.46,1.44-.07,1.77-.27.29,0,.5-.11a.78.78,0,0,1,.22,0l.19,0a15.74,15.74,0,0,1,2.78.3c1.1.21,2.25.49,3.47.84l1,.31c-.05.25-.1.48-.15.68a2.36,2.36,0,0,1-.16.46,1.71,1.71,0,0,0-.22.68v.08a.16.16,0,0,0,0,.11.16.16,0,0,1,0,.12l.46-.08c.3-.46.54-.81.72-1.06a6.33,6.33,0,0,1,.65-.77,16.38,16.38,0,0,1,1.87-1.86,12.65,12.65,0,0,1,1.71-1.34c.4-.15.61-.27.61-.38l.45-.45.28-.24,0,0,.38-.27-.08-.3a3.47,3.47,0,0,0-.64-.08,1,1,0,0,1-.42-.07l-2.06-.92-1.37-.15-.23-.06h0l-.61-.17a2.48,2.48,0,0,0-.61-.15q-.45-.08-1.14-.15a1.87,1.87,0,0,1-.42,0,2.23,2.23,0,0,0-.34,0,.63.63,0,0,0-.23,0s-.28.11-.68.27h-3.66a2.74,2.74,0,0,0-.42.07c-.23,0-.77.21-1.63.46l-1.57.42-1.48.42-3.28.91a18.6,18.6,0,0,0-4,1.75l-.66.4a47,47,0,0,0-4,2.65q-2.4,1.75-4.57,3.69a31.27,31.27,0,0,0-3.62,3.77c-.4.51-.76,1-1.06,1.41s-.6.89-.88,1.37-.57,1-.87,1.68-.69,1.41-1.15,2.32c-.5,1.07-.92,2-1.25,2.78a17.53,17.53,0,0,0-.76,2.13,11.93,11.93,0,0,0-.38,1.87,15.26,15.26,0,0,0-.12,2,6.45,6.45,0,0,0,0,.76c0,.25,0,.51,0,.76l.23,2.29.07,2.89a5.14,5.14,0,0,0,.23,1.45l.69,1.9.53,1.83a4.36,4.36,0,0,0,.57,1.06q.5.76,1.26,1.83c.76,1,1.39,1.82,1.9,2.4a12.42,12.42,0,0,0,1.52,1.49,14.67,14.67,0,0,0,4.38,2.17,16.17,16.17,0,0,0,4.91.87,23.66,23.66,0,0,0,5.56-.84C433.23,340,434.15,339.76,435.09,339.48Z"/><path class="cls-4" d="M464.44,311.35a8.13,8.13,0,0,1,1.37-.54l6.25-.15a2.43,2.43,0,0,0,1.67-1.07c.56-.55,1-1,1.41-1.44s.7-.74.95-1c.71-.66,1.2-1.13,1.45-1.41a5.91,5.91,0,0,0,.76-1.11,2,2,0,0,0-.84.16l-.91.61a2,2,0,0,1-1.14.45h-.15c-2.29-.15-3.53-.23-3.74-.23a3.26,3.26,0,0,0-.83.12,4.51,4.51,0,0,0-1.18.53c-.49.28-1.11.66-1.87,1.14l-2.89,1.87c-.61.41-1.16.79-1.64,1.14l-1.37,1c-.43.33-.88.69-1.33,1.07s-.94.8-1.45,1.25a2.19,2.19,0,0,1,0-.49,2.26,2.26,0,0,0,0-.35l.69-4.34a2.83,2.83,0,0,0-.08-.38c-.05-.2-.12-.45-.22-.76a8.05,8.05,0,0,0-1.41-1.18,2.54,2.54,0,0,0-1.34-.34,1.38,1.38,0,0,0-.38,0,3.19,3.19,0,0,0-.49.19,9,9,0,0,0-.92.49c-.38.23-.92.57-1.63,1l-.84.46-2.06,1.37-2.13,1.06a3,3,0,0,1-.76.46v.69l.57-.12.27,0,2.05-.76a2.53,2.53,0,0,1,.69-.15.84.84,0,0,1,.61.23l.84,1.37.3.53a9.36,9.36,0,0,1,.15,2.36,8.26,8.26,0,0,1,0,.88,6.43,6.43,0,0,1-.11.8l-.84,3a10.18,10.18,0,0,0-.3,1.75,1.75,1.75,0,0,1-.08.42c-.05.18-.13.47-.23.87s-.25,1-.45,1.68l-.84,2.82c-.41,1.42-.84,2.84-1.3,4.26s-.88,2.85-1.29,4.27c-.15.51-.33,1.13-.53,1.86s-.44,1.62-.69,2.63a10.25,10.25,0,0,1,1.6.08c.71.05,1.26.07,1.64.07h1c.1,0,.29,0,.57,0s.57,0,.87,0a2.15,2.15,0,0,0,.23-.77l.38-2.28,1.3-5.41c.15-.5.26-.92.34-1.25a2.29,2.29,0,0,1,.27-.73,8.36,8.36,0,0,0,.76-2.05.07.07,0,0,1-.08-.08v-.3c.15-.31.27-.52.34-.65a2.46,2.46,0,0,0,.23-.53q.12-.34.27-1c.1-.44.28-1.11.53-2,.15-.51.37-1.12.65-1.83s.6-1.42.95-2.13.71-1.38,1.07-2a10.29,10.29,0,0,1,.91-1.41l.84-1,1.45-1.9A5,5,0,0,1,464.44,311.35Z"/><path class="cls-4" d="M474.94,311.23a12.84,12.84,0,0,0-1,.92,10.18,10.18,0,0,0-.73.79,8.63,8.63,0,0,0-.61.92l-.76,1.22L471,316.3l-.84,2.2-1.91,4.27a43.41,43.41,0,0,0-1.37,4.34c-.25.81-.45,1.48-.61,2s-.26,1-.34,1.44-.13.82-.15,1.15,0,.7,0,1.1a3.59,3.59,0,0,0,0,.53,7,7,0,0,0,.11.69l.54,1.68.3,1.44a4.1,4.1,0,0,1,.19.46,4.77,4.77,0,0,0,.34.68,3.11,3.11,0,0,1,.46.27l.23.19.76,1.14a3.86,3.86,0,0,0,1.07.69l.72.42c.13.07.27.16.42.26a5.51,5.51,0,0,0,.76.39,2,2,0,0,0,.61.07,7.52,7.52,0,0,0,2.67-.65,16,16,0,0,0,3.12-1.71l4.34-3,1.07-.53a3.12,3.12,0,0,1,.49-.38,5.32,5.32,0,0,0,.72-.61,1.31,1.31,0,0,0,.27-.19c.08-.08.16-.17.27-.27V334l-.19-.19-.19-.19-.77.15-.45.35a1.28,1.28,0,0,0-.23.19L482,335.56a5.14,5.14,0,0,1-3.43,1.3,2.23,2.23,0,0,1-1.52-.46l-1.37-1.07-.92-.68-1-1.83-.68-.84-.31-3.42-.23-.61a.86.86,0,0,1-.07-.38,1.87,1.87,0,0,1,1.37-1.83,8.82,8.82,0,0,0,2.06-1.37l.95-.69c.28-.2.54-.4.8-.61l1-.72,1-.72c1.07-.76,1.81-1.3,2.21-1.6a9.6,9.6,0,0,0,.76-.61l1.75-1.68,2.06-1.83,1.75-3,1.22-2.05a6.06,6.06,0,0,0,.38-2.29,1.48,1.48,0,0,1,0-.34c0-.13.06-.32.11-.57l-.72-1.22a2.68,2.68,0,0,0-.53-.68,1.09,1.09,0,0,0-.61-.27l-.95-.11-2.14-.23-1.29.53-3.12,1.45a16.08,16.08,0,0,1-1.34.95l-2.7,1.86C475.9,310.48,475.34,310.9,474.94,311.23Zm3.5,0a3.92,3.92,0,0,1,.95-1,3.59,3.59,0,0,1,1.18-.27,2.51,2.51,0,0,1,1.83.5,1.91,1.91,0,0,1,.68,1.56,10.4,10.4,0,0,1-.91,3.43c-.25.56-.46,1-.61,1.33a7.73,7.73,0,0,1-.49.91c-.18.28-.4.59-.65.92a13.75,13.75,0,0,1-1.07,1.18c-.66.76-1.2,1.36-1.63,1.79a13,13,0,0,1-1.26,1.1,12,12,0,0,1-1.37.88l-2.06,1.1a1.74,1.74,0,0,0,.15-.53.75.75,0,0,1,.08-.31l.23-1.75a7.88,7.88,0,0,1,.84-2.51l1.29-2.59.84-2.59a7.75,7.75,0,0,1,1.14-2Z"/><path class="cls-4" d="M488.29,327.11c-.26.81-.46,1.48-.61,2a13.49,13.49,0,0,0-.35,1.44c-.07.44-.12.82-.15,1.15s0,.7,0,1.1a3.59,3.59,0,0,0,0,.53c0,.21.06.44.12.69l.53,1.68.3,1.44a4.1,4.1,0,0,1,.19.46,4,4,0,0,0,.35.68,3.5,3.5,0,0,1,.45.27l.23.19.76,1.14a3.86,3.86,0,0,0,1.07.69l.72.42c.13.07.27.16.42.26a6.16,6.16,0,0,0,.76.39,2,2,0,0,0,.61.07,7.52,7.52,0,0,0,2.67-.65,16,16,0,0,0,3.12-1.71l4.34-3,1.07-.53a3.12,3.12,0,0,1,.49-.38,5.32,5.32,0,0,0,.72-.61.93.93,0,0,0,.27-.19l.27-.27V334l-.19-.19-.19-.19-.76.15-.46.35a1.78,1.78,0,0,0-.23.19l-1.37,1.29a5.14,5.14,0,0,1-3.43,1.3,2.23,2.23,0,0,1-1.52-.46l-1.37-1.07-.92-.68-1-1.83-.68-.84-.31-3.42L494,328a.74.74,0,0,1-.08-.38,1.87,1.87,0,0,1,1.37-1.83,8.82,8.82,0,0,0,2.06-1.37l.95-.69c.28-.2.54-.4.8-.61l1-.72,1-.72c1.07-.76,1.81-1.3,2.21-1.6a9.6,9.6,0,0,0,.76-.61l1.76-1.68,2.05-1.83,1.75-3,1.22-2.05a5.86,5.86,0,0,0,.38-2.29,1.48,1.48,0,0,1,0-.34c0-.13.06-.32.12-.57l-.73-1.22a2.68,2.68,0,0,0-.53-.68,1.09,1.09,0,0,0-.61-.27l-.95-.11-2.13-.23-1.3.53-3.12,1.45c-.1.1-.55.42-1.33.95s-1.69,1.15-2.71,1.86c-.71.51-1.27.93-1.67,1.26a12.84,12.84,0,0,0-1,.92,10.18,10.18,0,0,0-.73.79,7.35,7.35,0,0,0-.6.92l-.77,1.22-.83,1.22-.84,2.2-1.9,4.27A38.39,38.39,0,0,0,488.29,327.11Zm6.31-3a.75.75,0,0,1,.08-.31l.23-1.75a7.88,7.88,0,0,1,.84-2.51L497,317l.84-2.59a7.75,7.75,0,0,1,1.14-2l.84-1.14a3.92,3.92,0,0,1,.95-1A3.59,3.59,0,0,1,502,310a2.51,2.51,0,0,1,1.83.5,1.92,1.92,0,0,1,.69,1.56,10.47,10.47,0,0,1-.92,3.43c-.25.56-.46,1-.61,1.33a6.5,6.5,0,0,1-.49.91c-.18.28-.4.59-.65.92a12.25,12.25,0,0,1-1.07,1.18c-.66.76-1.2,1.36-1.63,1.79a11.91,11.91,0,0,1-1.26,1.1,11.15,11.15,0,0,1-1.37.88c-.51.28-1.19.65-2.06,1.1A1.74,1.74,0,0,0,494.6,324.14Z"/><path class="cls-4" d="M541,338.61a3.12,3.12,0,0,0-.53.15,2.09,2.09,0,0,1-1,.31,4.21,4.21,0,0,1-1.79-.46,5.49,5.49,0,0,1-1.56-1.07l-.92-1.06L534,335.41l-.77-1.29-.68-.61a4.7,4.7,0,0,1-.84-1.15l-1.06-2.13-1.15-1.9-.91-2.36-.91-1.15a2.34,2.34,0,0,1-.38-1.52,4.71,4.71,0,0,0,.91-.53c.81-.46,1.48-.83,2-1.11s.92-.46,1.18-.57l1.33-.61a5.47,5.47,0,0,0,.76-.41c.18-.13.34-.25.5-.35l.53-.38c.71-.56,1.4-1.13,2.06-1.71a9.4,9.4,0,0,0,1.37-1.41c.55-.66,1-1.26,1.37-1.79a7.74,7.74,0,0,0,.8-1.52,8.33,8.33,0,0,0,.38-1.6,18.69,18.69,0,0,0,.11-2.17,5.2,5.2,0,0,0-1.1-1.45,2.5,2.5,0,0,0-1.41-.3h-1.45a3.44,3.44,0,0,0-1.06.07l-2.29.92-1,.3-8.53,4.49-2,1.37q-.15-.07-.15-.15a.22.22,0,0,0-.08-.15l.38-1,2.44-9.06.76-2.06.54-2.44,1-2.59.38-2,.53-2.2v-.54a17.58,17.58,0,0,1,1-2.13c.1-.25.24-.7.42-1.33a23.72,23.72,0,0,0,.49-2.4,4,4,0,0,0,.23-1l-.53-.69c-.51-.66-.94-1-1.3-1a2.3,2.3,0,0,0-1.21.46,18.83,18.83,0,0,1-2.59,1.52L521.46,287a5.51,5.51,0,0,1-.8.53q-.64.38-1.56,1a3,3,0,0,0-.38.23,3.85,3.85,0,0,1-.61.3l.15.61a.86.86,0,0,0,.38.08,1.77,1.77,0,0,0,.68-.23,3.6,3.6,0,0,1,1.6-.53,1.21,1.21,0,0,1,1.22,1l-.45,2.05v1.14a4.66,4.66,0,0,1-.77,2.29,4,4,0,0,0-.34.84c0,.15-.06.43-.11.83a14.74,14.74,0,0,1-.84,3.66l-3.35,10.81a.62.62,0,0,0-.08.38v.39a2.93,2.93,0,0,1,0,.49,7.61,7.61,0,0,1-.41,1.26c-.11.45-.23.9-.38,1.33l-.46,1.26a11.66,11.66,0,0,0-.46,1.75c-.1.45-.18.82-.23,1.1a4.24,4.24,0,0,0-.07.5l-3.35,10.66-.08.53-2.59,9.14.08.3h1.6l3.27.08c.56.05.93-.05,1.1-.3a3.86,3.86,0,0,0,.42-1.53l1.22-4.49.46-2.51.68-1.83,2-6.47a12.92,12.92,0,0,1,1.37-2.82l1.6-2.29.69-1.06a6.13,6.13,0,0,1,.53-.76,8,8,0,0,1,.69-.77l1.44-1.37.69-.76a6.91,6.91,0,0,1,.91-.68l1.45-1,.38-.16a1.57,1.57,0,0,1,.38-.11,2.87,2.87,0,0,0,.61-.19l1.37-.38a1.32,1.32,0,0,1,.54-.08,1.45,1.45,0,0,1,1.06.65,2,2,0,0,1,.53,1.26,7.5,7.5,0,0,1-.22,1.29l-.38,1.52a5.26,5.26,0,0,1-.69,1.22l-1.37,2.14a7.65,7.65,0,0,1-.69,1,3.85,3.85,0,0,1-.76.65,6.38,6.38,0,0,1-1.25.6c-.54.21-1.26.46-2.17.77a11,11,0,0,0-1.15.49q-.53.27-1,.57c-.61.36-.94.56-1,.61-1,.51-1.62.83-1.82.95s-.31.27-.31.42a4.06,4.06,0,0,0,.31.92l1.14,3,1.52,2.28.76,2.28a8.47,8.47,0,0,0,.57,1.11q.42.72,1.11,1.71c.4.56.76,1,1.06,1.45a5.14,5.14,0,0,0,.84.91l1.14,1,1.07,1.37,1,.69.3.38c.16.2.59.31,1.3.31h1l4.11-1.83,3.35-1.45c.26-.1.38-.25.38-.46v-.3Z"/><path class="cls-5" d="M276.11,355.72a10.68,10.68,0,0,1,5.35-1.39,11.05,11.05,0,0,1,4.86,1.06,10.43,10.43,0,0,1,3.78,3.11L292,357a11.81,11.81,0,0,0-4.47-3.75,13.71,13.71,0,0,0-6.11-1.34,12.85,12.85,0,0,0-9.32,3.62,12,12,0,0,0-3.72,8.93,12.7,12.7,0,0,0,3.07,8.6,12.54,12.54,0,0,0,10,4.23,14.1,14.1,0,0,0,6-1.26,12.2,12.2,0,0,0,4.51-3.56l-1.91-1.44a10.75,10.75,0,0,1-8.49,4,10.52,10.52,0,0,1-7.65-3,9.89,9.89,0,0,1-3-7.38,10.33,10.33,0,0,1,1.36-5.26A9.93,9.93,0,0,1,276.11,355.72Z"/><polygon class="cls-5" points="319.32 362.69 307.02 362.69 307.02 352.56 304.61 352.56 304.61 376.72 307.02 376.72 307.02 365.06 319.32 365.06 319.32 376.72 321.74 376.72 321.74 352.56 319.32 352.56 319.32 362.69"/><path class="cls-5" d="M349.61,367.14a18.52,18.52,0,0,1-.24,3.78,5.67,5.67,0,0,1-1.09,2.18,5,5,0,0,1-1.84,1.42,5.4,5.4,0,0,1-2.3.51,6.36,6.36,0,0,1-2.74-.65,5,5,0,0,1-2-1.61,5.35,5.35,0,0,1-.84-2.39,31.87,31.87,0,0,1-.1-3.24V352.56H336v14.58a19.82,19.82,0,0,0,.44,5.09,6.67,6.67,0,0,0,2.8,3.7,8.8,8.8,0,0,0,5,1.4,7.36,7.36,0,0,0,7.12-5,17.8,17.8,0,0,0,.63-5.23V352.56h-2.42Z"/><path class="cls-5" d="M377.9,364.72a5.72,5.72,0,0,0,2.65-2.26,6.46,6.46,0,0,0,.93-3.47,6.07,6.07,0,0,0-1.34-4,6.25,6.25,0,0,0-3.5-2.11,29.08,29.08,0,0,0-5.46-.33h-4.81v24.16h2.42V365.5h1.36l8.69,11.22h3l-8.69-11.22A12.14,12.14,0,0,0,377.9,364.72Zm-9.11-1.59v-8.21h4.26a10.59,10.59,0,0,1,3.55.43,3.63,3.63,0,0,1,1.73,1.42A3.9,3.9,0,0,1,379,359a4.14,4.14,0,0,1-.65,2.26,3.81,3.81,0,0,1-1.81,1.47,10.56,10.56,0,0,1-3.58.46Z"/><path class="cls-5" d="M400.86,355.72a10.69,10.69,0,0,1,5.36-1.39,11,11,0,0,1,4.85,1.06,10.43,10.43,0,0,1,3.78,3.11l1.91-1.46a11.81,11.81,0,0,0-4.47-3.75,13.71,13.71,0,0,0-6.11-1.34,12.85,12.85,0,0,0-9.32,3.62,12,12,0,0,0-3.72,8.93,12.75,12.75,0,0,0,3.07,8.6,12.57,12.57,0,0,0,10,4.23,14.09,14.09,0,0,0,6-1.26,12.12,12.12,0,0,0,4.51-3.56l-1.91-1.44a10.72,10.72,0,0,1-8.49,4,10.5,10.5,0,0,1-7.64-3,9.89,9.89,0,0,1-3-7.38,10.32,10.32,0,0,1,1.35-5.26A10,10,0,0,1,400.86,355.72Z"/><polygon class="cls-5" points="444.08 362.69 431.77 362.69 431.77 352.56 429.36 352.56 429.36 376.72 431.77 376.72 431.77 365.06 444.08 365.06 444.08 376.72 446.49 376.72 446.49 352.56 444.08 352.56 444.08 362.69"/><rect class="cls-5" x="179.64" y="362.88" width="75.67" height="2"/><rect class="cls-5" x="462.74" y="362.88" width="76.15" height="2"/></svg>