<svg id="Layer_1" data-name="Layer 1" xmlns="http://www.w3.org/2000/svg" viewBox="0 0 720 432"><defs><style>.cls-1{fill:#10364b;}.cls-2{fill:#fff;}.cls-3{fill:#356453;}</style></defs><title>Church_network_Logos</title><path class="cls-1" d="M465.21,218.66c-3.22.9-6.43,1.86-9.64,2.84L399,179.27l-15.93,11.89-25.18-24-25.19,24-15.93-11.89-57,42.55c-3.58-1.1-7.16-2.17-10.76-3.18-5.75-1.62-11.53-3.13-17.34-4.45,5.62,2,11.17,4.14,16.66,6.41s11,4.62,16.34,7.09c2.71,1.2,5.38,2.49,8.05,3.78s5.34,2.56,8,3.93,5.28,2.65,7.86,4.09l7.76,4.25,7.6,4.48c2.55,1.45,5,3.06,7.46,4.65s5,3.09,7.31,4.83l7.12,5.05c2.32,1.74,4.55,3.57,6.83,5.34s4.43,3.66,6.55,5.58,4.35,3.71,6.23,5.82l5.84,6.07,5.85,6.08,5.86-6.08,5.84-6.07c1.87-2.11,4.15-3.87,6.23-5.81s4.24-3.84,6.56-5.57,4.5-3.61,6.83-5.34l7.12-5c2.34-1.74,4.87-3.21,7.31-4.83s4.91-3.19,7.47-4.65,5-3,7.6-4.47l7.76-4.26c2.58-1.42,5.24-2.71,7.86-4.08s5.28-2.65,8-3.93,5.33-2.58,8-3.79q8.08-3.72,16.33-7.1c5.5-2.28,11-4.44,16.66-6.43C476.73,215.52,471,217,465.21,218.66Z"/><polyline class="cls-2" points="372.47 215.09 374.81 214.67 382.96 216.06 387.1 211.54 395.29 208.56 403.26 200.59 402.53 196.96 412.16 197.44 399 183.72 386.68 192.92 380.5 197.53 374.19 202.25 379.29 204.43 368.99 206.13 360.88 212.19 366.2 216.16"/><path class="cls-2" d="M338.16,255.73l2.3,1.42c2.65,1.55,5.17,3.34,7.7,5.15s5.15,3.46,7.52,5.54l1.43,1.19,1.44-1.19c2.37-2.08,5-3.7,7.52-5.54s5.06-3.59,7.71-5.14,5.21-3.26,7.86-4.79l1.4-.77c5.71-4.43,29.33-24.84-11.54-31.48C371.5,220.12,419.63,231,338.16,255.73Z"/><polygon class="cls-2" points="357.9 171.15 347.35 181.62 352.54 181.49 341.03 186.8 334.98 193.09 346.17 196.54 350.81 204.67 354.19 207.19 352.27 196.59 359.5 190.26 352.6 189.66 361.48 186.18 357.9 171.15"/><polygon class="cls-2" points="320.68 190.59 316.31 191.54 319.18 187.3 316.84 183.28 297.22 197.85 300.24 197.85 291.53 202.07 273.75 215.26 295.64 210.29 297.38 212.75 304.08 209.33 303.61 215.62 318.88 209.92 326.73 195.8 320.68 190.59"/><path class="cls-1" d="M388.43,241.52c1-1.09,2.36-1.3,2.89-1.86,1.34-1.42,2.69-4,2.06-5.71-.17-.46-1.42-2.65-1.42-2.65s.71,2,1,3c.39,1.1-1.26,3.91-3.35,5.41-2.42,1.74-3.08,2.14-3.58,2.74s2.48.35-.33,2-3,2.22-4.44,2.92a15.58,15.58,0,0,0-1.94,1.33l3.29-.82c.79-.61,2.66-1.3,3-1.78,1-1.3,2.24-1.6,2.55-2.65S386.69,243.37,388.43,241.52Z"/><path class="cls-1" d="M386.65,227.34a6.31,6.31,0,0,1,1.77,1c.23.28.13.36.19.59l.25.95c-.11.37-.56-1.4-1.81-2s-1.68-.78-1.39-1.34-2.43-2.39-2.43-2.39c.41.22,1.77,1,2,1.16a2.59,2.59,0,0,1,.86,1C386.29,226.81,385.4,226.71,386.65,227.34Z"/><path class="cls-1" d="M368.92,248.29a17.52,17.52,0,0,0,4.9-1.92,6.75,6.75,0,0,0-2.64.76c-.48.33-3.69.51-4.47,1s-1.07,2-3.65,3S351,254.05,350.15,255s2.46-1,3.61-.76-1.8.58-.54.68a22.92,22.92,0,0,0,4.23-.86c1.82-.48,3.79-.73,4.61-1.27,1.55-1,3.95-1.79,4.57-2.6C367.38,249.23,367.45,248.3,368.92,248.29Z"/><path class="cls-1" d="M312.36,360.79a8.87,8.87,0,0,0-6.31-2.74,8.57,8.57,0,0,0,.05,17.13,9.1,9.1,0,0,0,6.26-2.74v2.85a10.66,10.66,0,0,1-6.18,2,10.71,10.71,0,1,1,0-21.42,10,10,0,0,1,6.18,2Z"/><path class="cls-1" d="M332,364.67v-8.41h2.3V377H332V366.81h-10.6V377h-2.31V356.26h2.31v8.41Z"/><path class="cls-1" d="M343.62,368.59c0,1.54-.06,3.3.9,4.62a5.36,5.36,0,0,0,4.18,2,5.45,5.45,0,0,0,4.06-1.84c1.1-1.31,1-3.13,1-4.75V356.26h2.3v13c0,2.26-.16,4-1.81,5.74a7.62,7.62,0,0,1-5.57,2.37,7.78,7.78,0,0,1-5.36-2.12c-1.81-1.73-2-3.63-2-6v-13h2.31Z"/><path class="cls-1" d="M396.35,360.79a8.88,8.88,0,0,0-6.32-2.74,8.57,8.57,0,0,0,.05,17.13,9.11,9.11,0,0,0,6.27-2.74v2.85a10.69,10.69,0,0,1-17-8.59,10.83,10.83,0,0,1,10.79-10.79,10,10,0,0,1,6.18,2Z"/><path class="cls-1" d="M416,364.67v-8.41h2.31V377H416V366.81h-10.6V377H403.1V356.26h2.31v8.41Z"/><path class="cls-1" d="M363,356.26h3.77c3.18,0,4.66.39,5.71,1a6.44,6.44,0,0,1,2.77,5.47,8.8,8.8,0,0,1-1.21,4.72c-1.2,1.65-2.66,2-4.53,2.23l5.06,7.61H372l-5.74-8.87H367c1.43,0,3.41,0,4.51-1a6.72,6.72,0,0,0,1.54-4.47,4.78,4.78,0,0,0-2-3.93c-1-.66-2.28-.74-4.12-.74h-1.65v19.06H363Z"/><path class="cls-3" d="M135.62,305.12h7.44l7.55,23.77,7.45-23.77h7.38l-14.77,41Z"/><path class="cls-3" d="M188,339.68H176.33l-1.91,5.82H167.5l14.77-40.95,14.65,40.95h-7Zm-1.85-5.77-3.92-12.69-4,12.69Z"/><path class="cls-3" d="M207,345.5V305.12h7v34.61h9.52v5.77Z"/><path class="cls-3" d="M234.76,345.5V305.12h7v34.61h9.52v5.77Z"/><path class="cls-3" d="M262.56,305.12h19v5.71h-12V322.2H280v5.71H269.59v11.82h12v5.77h-19Z"/><path class="cls-3" d="M301.26,345.5V328.89L289.9,305.12h7.21l7.67,16.33,7.5-16.33h7.27L308.3,328.89V345.5Z"/><path class="cls-3" d="M404.8,317.93c0,7.09-3.11,13.09-13.9,13.09a14.69,14.69,0,0,1-2.31-.17V345.5h-7V305.7a32.91,32.91,0,0,1,8.6-1.15C401.8,304.55,404.8,311,404.8,317.93ZM388.59,325a10.84,10.84,0,0,0,2.19.18c5.25,0,6.87-3.46,6.87-7.33,0-4.15-1.73-7.5-6.87-7.5a12.56,12.56,0,0,0-2.19.23Z"/><path class="cls-3" d="M439.29,317.93c0,5.48-1.84,10.27-7.67,12.23l9.52,15.34H433.7L424.58,331a6.89,6.89,0,0,1-1.49-.17V345.5h-7V305.7a32.83,32.83,0,0,1,8.59-1.15C436.29,304.55,439.29,311,439.29,317.93ZM423.09,325a10.79,10.79,0,0,0,2.19.18c5.25,0,6.86-3.46,6.86-7.33,0-4.15-1.73-7.5-6.86-7.5a12.47,12.47,0,0,0-2.19.23Z"/><path class="cls-3" d="M451.52,345.5V305.12h7V345.5Z"/><path class="cls-3" d="M479.55,321.22V345.5h-7V304.55l23.76,24.8V305.12h7v41Z"/><path class="cls-3" d="M354.39,314.82c0-3.47,2.71-4.62,6-4.62a10.42,10.42,0,0,1,4.4.92c.76-.67,1.57-1.37,2.46-2.09.7-.56,1.43-1.16,2.18-1.78a20,20,0,0,0-10.14-2.7c-6.92,0-11.94,3.29-11.94,10.38,0,12.52,15.75,12.17,15.75,20.25,0,3.17-2.25,5.13-6.12,5.13a14.75,14.75,0,0,1-6.76-1.81l-.36.27-3.36,2.73-.93.77c3.18,2.61,7.75,3.81,11.93,3.81,6.46,0,12.69-3.12,12.69-11C370.19,322.54,354.39,323.06,354.39,314.82Z"/><path class="cls-3" d="M535.45,329.29h8.07v9.35a17.29,17.29,0,0,1-6.8,1.21c-7.73,0-14-4.39-14-14.54s6.11-14.48,13.73-14.48a16,16,0,0,1,9.38,2.92l.1-.1,2.42-2.14c.61-.55,1.28-1.13,2-1.72-4.15-3.8-8.71-5.18-14.13-5.18-11.71,0-21,6.46-21,20.7s9.46,20.77,21.17,20.77a26.49,26.49,0,0,0,14.19-3.75V323.64H535.45Z"/><path class="cls-3" d="M568.58,314.82c0-3.47,2.71-4.62,6-4.62a10.35,10.35,0,0,1,4.4.92c.76-.67,1.57-1.37,2.46-2.09.7-.56,1.43-1.16,2.18-1.78a19.93,19.93,0,0,0-10.14-2.7c-6.92,0-11.94,3.29-11.94,10.38,0,12.52,15.75,12.17,15.75,20.25,0,3.17-2.25,5.13-6.12,5.13a14.79,14.79,0,0,1-6.76-1.81l-.36.27-3.36,2.73-.92.77c3.17,2.61,7.74,3.81,11.92,3.81,6.46,0,12.69-3.12,12.69-11C584.38,322.54,568.58,323.06,568.58,314.82Z"/></svg>