<svg id="Layer_1" data-name="Layer 1" xmlns="http://www.w3.org/2000/svg" viewBox="0 0 720 432"><defs><style>.cls-1{fill:#1e6274;}</style></defs><title>Church_network_Logos</title><path class="cls-1" d="M180.89,345.71l-13.59,31h-2.48l-13.64-31h2.75l10.31,23.6c.8,1.86,1.73,4.47,1.77,4.47h.05s1-2.61,1.77-4.47l10.32-23.6Z"/><path class="cls-1" d="M196.27,376.71v-31h2.53v31Z"/><path class="cls-1" d="M235,354c-.66-4.12-4.07-6.6-8.41-6.6-4.56,0-7.88,2.17-7.88,5.8s4.6,5,8.81,6.11S238,362.23,238,368.47c0,5.09-4.43,8.86-11.11,8.86s-10.76-4-11.43-9.08l2.44-.67c.35,4,3.54,7.4,9.07,7.4,5.14,0,8.37-2.75,8.37-6.47,0-5.13-5.84-6.11-10.18-7.39-3.54-1-9-2.52-9-7.84,0-4.82,4.47-8.19,10.58-8.19,5.53,0,9.87,3.23,10.8,8.24Z"/><path class="cls-1" d="M274.74,345.71v2.44H264.12v28.56h-2.57V348.15H251v-2.44Z"/><path class="cls-1" d="M306.08,367.67H289.74l-3.94,9H283l13.78-31H299l13.77,31H310Zm-1-2.26-5.72-13.06c-.66-1.59-1.37-3.58-1.41-3.58h-.05s-.75,2-1.41,3.58l-5.72,13.06Z"/><path class="cls-1" d="M346.91,355.32a8.69,8.69,0,0,0-6.51-2.88c-5.13,0-8.32,3.68-8.32,8.77,0,5.36,3.5,8.68,8.32,8.68a8.45,8.45,0,0,0,7.09-3.63L355,368.2a16.19,16.19,0,1,1-.53-14.87Z"/><path class="cls-1" d="M396.57,345.71v31h-7.44v-12h-11.6v12h-7.44v-31h7.44v12h11.6v-12Z"/><path class="cls-1" d="M441.1,345.71v17.23c0,9.29-5.49,14.39-13.68,14.39s-13.68-5.1-13.68-14.39V345.71h7.43v17.05c0,5.31,2.17,7.61,6.25,7.61s6.24-2.3,6.24-7.61V345.71Z"/><path class="cls-1" d="M475.27,376.71l-5.75-10.1h-3.81v10.1h-7.44v-31h11.56c7.79,0,12.48,4.25,12.48,10.63a9.31,9.31,0,0,1-5.58,8.94l6.87,11.43ZM465.71,360h5.13a3.68,3.68,0,1,0,0-7.35h-5.13Z"/><path class="cls-1" d="M519.17,355.32a8.71,8.71,0,0,0-6.51-2.88c-5.14,0-8.33,3.68-8.33,8.77,0,5.36,3.5,8.68,8.33,8.68a8.42,8.42,0,0,0,7.08-3.63l7.53,1.94a16.19,16.19,0,1,1-.53-14.87Z"/><path class="cls-1" d="M568.82,345.71v31h-7.44v-12h-11.6v12h-7.44v-31h7.44v12h11.6v-12Z"/><path class="cls-1" d="M366.75,129.56a87.13,87.13,0,1,0,87.13,87.13A87.23,87.23,0,0,0,366.75,129.56Zm23.85,55.93a33,33,0,0,1,29.1,17l-15.65,4.12c-2.93-3.66-8.42-5.95-13.45-5.95a20.34,20.34,0,0,0-9.7,2l-.82.46,7.15-17.5C388.34,185.54,389.46,185.49,390.6,185.49Zm-54.9,64.06L309.31,185.5h16.43s19.51,49.05,19.6,49.05L365,185.5h16.42l-26.3,64.05Zm54.9,2.56a33,33,0,0,1-25.77-11.9l7.84-19.27.15,1c1.46,8.74,8,14.77,17.78,14.77,6.13,0,12-3.11,14.64-7.5l15.55,4A32.92,32.92,0,0,1,390.6,252.11Z"/></svg>